<?xml version="1.0" standalone="no"?>
<!DOCTYPE svg PUBLIC "-//W3C//DTD SVG 20010904//EN"
 "http://www.w3.org/TR/2001/REC-SVG-20010904/DTD/svg10.dtd">
<svg version="1.0" xmlns="http://www.w3.org/2000/svg"
 width="2552.000000pt" height="2960.000000pt" viewBox="0 0 2552.000000 2960.000000"
 preserveAspectRatio="xMidYMid meet">

<g transform="translate(0.000000,2960.000000) scale(0.100000,-0.100000)"
fill="#000000" stroke="none">
<path d="M16945 29555 c-319 -59 -582 -195 -805 -415 -137 -136 -304 -367
-273 -377 13 -5 5 -43 -8 -43 -5 0 -9 -8 -9 -19 0 -10 -7 -24 -15 -31 -8 -7
-15 -17 -15 -22 0 -6 -6 -24 -14 -41 -23 -51 -83 -226 -102 -297 -27 -102 -33
-146 -43 -283 -5 -71 -11 -131 -14 -133 -3 -3 -17 -7 -31 -8 -21 -3 -25 0 -21
15 7 20 -10 35 -21 18 -4 -8 -3 -9 4 -5 7 4 12 2 12 -3 0 -6 -7 -11 -16 -11
-9 0 -12 -5 -8 -11 5 -8 -1 -10 -20 -7 -27 5 -36 -6 -13 -16 6 -3 -1 -4 -17 0
-26 5 -28 3 -17 -10 20 -24 5 -19 -18 5 l-20 22 5 -29 c3 -22 2 -25 -6 -14 -6
10 -10 11 -10 2 0 -8 -12 -4 -35 10 -19 13 -33 29 -30 36 2 6 1 12 -4 12 -5 0
-11 -9 -14 -21 -3 -12 -10 -18 -17 -14 -8 5 -7 11 2 23 12 15 11 16 -5 3 -9
-8 -15 -16 -13 -19 5 -5 -19 -32 -28 -32 -3 0 -2 7 1 17 4 10 2 14 -5 9 -6 -3
-13 -2 -17 4 -3 6 4 10 16 10 33 0 16 12 -20 14 -34 2 -42 -17 -15 -32 15 -8
15 -10 0 -15 -10 -4 -16 -1 -16 8 0 8 -4 15 -9 15 -6 0 -8 9 -6 19 2 14 -1 18
-10 14 -8 -2 -14 -8 -13 -11 0 -4 0 -17 -1 -30 -1 -19 -5 -22 -22 -17 -16 5
-19 4 -14 -5 6 -9 4 -11 -5 -5 -7 4 -16 2 -21 -6 -7 -10 -8 -5 -5 14 3 15 0
27 -5 27 -5 0 -10 -4 -10 -10 -1 -5 -2 -14 -3 -19 0 -6 -7 -16 -14 -23 -20
-20 -36 11 -16 33 12 14 12 18 1 27 -14 12 -27 6 -27 -12 0 -6 4 -5 9 3 6 9
11 10 15 3 4 -6 -3 -16 -15 -23 -17 -9 -19 -13 -8 -20 11 -7 11 -9 1 -9 -7 0
-11 -4 -8 -9 5 -8 -11 -16 -51 -26 -6 -2 -9 3 -6 11 3 8 0 14 -6 14 -6 0 -11
-4 -11 -9 0 -15 -30 -22 -48 -11 -10 5 -12 10 -4 10 6 0 12 4 12 10 0 12 -29
2 -53 -18 -16 -15 -17 -14 -11 4 4 10 12 22 18 26 6 4 8 9 5 13 -8 7 -50 -30
-44 -39 3 -3 -1 -2 -7 4 -17 14 -31 12 -25 -3 3 -8 -4 -13 -22 -14 -14 0 -18
1 -8 4 27 7 20 18 -12 18 -21 1 -28 -3 -24 -15 3 -8 -7 -2 -22 15 -30 31 -60
43 -51 19 3 -8 1 -14 -4 -14 -6 0 -10 6 -10 12 0 7 -7 3 -15 -9 -10 -15 -21
-19 -36 -16 -15 4 -20 2 -15 -5 3 -6 -2 -15 -12 -21 -14 -7 -19 -6 -19 4 0 7
5 12 11 11 6 -2 8 -1 3 1 -4 3 -5 9 -2 14 4 5 -1 6 -10 3 -8 -4 -18 -17 -21
-31 -5 -19 -9 -22 -16 -11 -7 10 -8 8 -7 -7 2 -35 -1 -46 -11 -40 -6 4 -8 11
-4 16 3 5 0 17 -8 26 -9 12 -9 15 0 9 7 -4 12 -1 12 9 0 9 -4 14 -8 11 -5 -3
-9 1 -9 10 0 9 7 12 18 9 9 -3 21 0 25 7 4 7 3 10 -1 5 -5 -4 -18 -1 -30 7
-21 14 -22 13 -23 -16 -1 -39 -3 -40 -34 -23 -23 11 -29 11 -38 -1 -7 -7 -10
-19 -8 -26 6 -17 -14 -37 -31 -30 -10 4 -12 1 -6 -9 4 -8 5 -11 0 -7 -4 4 -17
3 -29 -3 -19 -9 -19 -9 -3 4 18 15 24 32 7 22 -6 -4 -25 -8 -43 -10 -28 -4
-30 -3 -14 9 15 12 15 15 2 26 -12 10 -15 10 -15 -2 0 -20 -36 -52 -44 -40 -3
6 -3 12 1 15 5 2 3 2 -4 1 -6 -2 -17 3 -23 11 -15 18 -50 7 -50 -16 0 -11 4
-19 10 -19 5 0 7 7 3 16 -5 14 -3 15 15 5 12 -7 22 -21 22 -32 0 -11 4 -18 8
-15 5 3 9 -1 9 -8 0 -8 -8 -11 -18 -9 -10 3 -15 11 -12 19 3 9 -2 14 -15 14
-12 0 -24 5 -27 11 -4 6 -13 8 -20 5 -8 -3 -19 3 -27 12 -8 10 -9 13 -1 9 8
-5 11 1 8 20 -2 16 -4 32 -4 38 -1 5 -6 4 -12 -2 -6 -6 -17 -10 -23 -9 -6 2
-8 1 -3 -1 4 -3 4 -10 0 -16 -4 -6 0 -8 10 -4 10 4 17 2 17 -4 0 -7 -9 -9 -22
-5 -13 3 -27 6 -31 6 -5 0 -5 6 -2 13 4 6 0 4 -8 -5 -8 -10 -17 -15 -20 -11
-4 3 -1 13 6 21 8 11 8 14 0 9 -6 -4 -13 -3 -15 2 -1 5 -12 3 -22 -5 -16 -11
-17 -14 -4 -14 9 0 19 -7 22 -16 10 -26 7 -28 -16 -8 -12 10 -18 13 -14 7 12
-21 -41 -16 -54 5 -11 16 -11 16 -6 0 5 -18 -9 -26 -16 -9 -2 4 -12 5 -23 0
-19 -7 -19 -8 2 -8 27 -1 38 -17 17 -25 -22 -8 -26 -8 -19 4 4 6 3 10 -2 9
-12 -4 -63 23 -58 30 2 4 -1 13 -7 21 -8 13 -9 13 -5 -1 3 -9 1 -22 -3 -30 -5
-8 -4 -19 3 -28 9 -11 6 -11 -12 2 -20 13 -28 14 -40 4 -12 -9 -13 -9 -7 0 5
9 -2 12 -25 9 -17 -2 -35 -10 -40 -17 -4 -7 -12 -10 -16 -5 -4 5 -2 11 5 13 6
3 12 14 12 25 0 16 3 18 14 9 10 -9 15 -8 19 4 9 22 -29 14 -49 -11 -8 -10
-12 -13 -8 -5 4 9 2 12 -7 9 -8 -3 -13 -12 -11 -22 5 -28 -7 -18 -23 20 -8 20
-19 33 -25 29 -6 -4 -10 -3 -9 2 3 20 -2 25 -16 13 -14 -12 -20 -5 -17 21 1 3
-6 6 -14 6 -8 0 -14 -4 -14 -9 0 -4 5 -8 10 -8 6 0 10 -4 10 -10 0 -5 -6 -9
-12 -7 -7 1 -12 -4 -10 -11 1 -8 -2 -11 -8 -7 -6 3 -8 11 -5 16 4 5 1 9 -6 9
-8 0 -7 5 2 17 13 15 12 15 -8 5 -14 -8 -20 -19 -18 -31 2 -14 -1 -18 -11 -14
-7 3 -11 9 -8 14 8 13 -8 10 -36 -7 -18 -11 -19 -14 -5 -9 18 6 18 4 -3 -15
-14 -14 -21 -28 -17 -38 3 -9 2 -13 -2 -8 -4 4 -8 19 -8 33 0 21 -5 26 -28 29
-15 1 -25 -1 -22 -7 3 -5 -1 -6 -10 -3 -12 5 -13 10 -6 17 15 15 14 24 -3 24
-8 0 -12 -6 -8 -15 3 -9 1 -13 -5 -9 -7 5 -9 -1 -6 -14 4 -16 2 -20 -8 -17 -8
3 -15 10 -15 16 -1 7 -2 15 -3 19 0 3 -9 -1 -18 -9 -21 -18 -58 -21 -43 -3 11
13 -6 35 -28 35 -9 0 -13 -7 -9 -20 4 -17 2 -18 -14 -9 -23 12 -24 18 -1 35
15 13 14 13 -8 5 -16 -6 -24 -15 -23 -27 1 -11 0 -13 -3 -6 -3 6 -11 9 -17 5
-18 -11 -38 -12 -31 -2 3 5 9 7 13 5 4 -3 8 1 8 9 0 10 -5 11 -15 6 -29 -16
-51 -1 -48 33 3 32 39 100 48 91 3 -3 11 15 18 41 11 38 26 57 88 110 127 108
228 130 647 139 165 3 332 8 370 10 39 2 160 7 270 10 110 3 310 10 445 15
135 5 352 12 483 16 256 7 267 10 267 60 0 29 10 28 -345 14 -132 -5 -375 -14
-540 -20 -1043 -37 -1223 -47 -1360 -81 -125 -30 -199 -71 -288 -161 -64 -64
-77 -82 -72 -101 4 -14 3 -18 -3 -9 -11 16 -36 -33 -33 -65 1 -13 -2 -23 -8
-23 -6 0 -11 -9 -11 -20 0 -11 -4 -20 -8 -20 -8 0 -25 -72 -53 -225 -7 -38
-18 -73 -24 -77 -7 -5 -6 -8 2 -8 7 0 11 -19 11 -52 0 -39 -3 -46 -8 -28 -4
14 -8 -91 -9 -232 -1 -167 2 -258 9 -258 5 0 10 -12 10 -26 0 -14 -4 -23 -8
-20 -12 7 -12 -212 -1 -243 7 -18 6 -32 -2 -48 -10 -18 -10 -26 -1 -35 15 -15
16 -31 0 -22 -8 5 -9 2 -3 -12 4 -10 7 -28 6 -39 -8 -95 -7 -512 1 -522 7 -9
7 -13 -1 -13 -15 0 -14 -103 1 -118 9 -9 9 -12 0 -12 -7 0 -12 -15 -12 -38 0
-21 5 -43 12 -50 8 -8 9 -12 1 -12 -8 0 -12 -577 -12 -2147 -1 -1181 -3 -2148
-4 -2150 -2 -1 -418 -5 -925 -9 l-922 -7 0 3014 c0 3281 3 3121 -55 3274 -32
87 -104 194 -163 245 -57 48 -157 102 -232 124 -178 53 -392 57 -1345 21 -363
-13 -698 -25 -744 -27 l-84 -3 -47 115 c-59 146 -84 194 -158 305 -273 413
-688 619 -1247 619 -176 1 -263 -13 -417 -64 -213 -71 -434 -221 -574 -389
-98 -117 -120 -148 -111 -158 4 -3 9 1 13 10 5 15 7 15 22 1 14 -15 16 -14 24
5 4 11 11 21 16 21 5 0 14 12 21 27 10 21 9 28 -1 34 -9 6 -7 9 8 9 13 0 56
34 110 86 254 247 599 372 921 335 388 -44 732 -302 917 -686 28 -59 44 -99
51 -125 1 -3 4 -12 7 -20 22 -65 26 -84 22 -106 -3 -15 -1 -23 5 -20 5 4 8 -6
6 -21 -2 -16 1 -33 6 -39 12 -15 -1 -57 -15 -45 -8 7 -11 -1 -10 -27 1 -21 -5
-46 -14 -57 -10 -12 -11 -15 -2 -7 21 18 28 15 22 -14 -3 -16 -9 -23 -18 -20
-18 7 -29 -13 -15 -27 8 -8 11 -7 11 3 0 7 3 11 6 7 14 -14 -8 -26 -31 -17
-18 7 -28 5 -40 -6 -19 -19 -20 -30 -1 -15 8 7 17 8 20 3 7 -12 -39 -36 -53
-28 -6 4 -11 13 -11 19 0 7 4 6 10 -3 7 -12 9 -11 8 6 -2 24 -24 28 -33 5 -4
-9 2 -22 12 -31 20 -17 30 -46 12 -34 -6 3 -15 0 -20 -7 -6 -9 -9 -10 -9 -2 0
6 5 15 10 18 6 4 8 11 4 16 -3 5 -9 7 -14 4 -4 -3 -11 2 -14 11 -3 8 -11 12
-17 8 -7 -4 -9 1 -7 12 2 11 11 18 19 16 9 -2 11 0 4 7 -14 14 -55 2 -49 -14
3 -7 1 -15 -3 -18 -5 -3 -10 3 -10 14 -1 12 7 23 21 29 12 4 23 16 23 25 0 16
-1 16 -14 -1 -10 -14 -13 -14 -13 -3 0 8 6 21 13 28 10 11 9 12 -2 6 -11 -6
-13 -2 -9 19 3 14 1 26 -3 26 -5 0 -9 -11 -9 -25 0 -14 0 -28 -1 -32 0 -5 -14
-16 -30 -26 -16 -11 -29 -25 -29 -32 0 -8 -9 -13 -21 -12 -21 1 -21 1 1 19 19
15 20 19 6 24 -9 3 -13 10 -10 15 3 5 0 9 -6 9 -8 0 -7 6 1 21 15 29 -2 43
-27 23 -10 -8 -13 -12 -5 -8 9 5 12 3 7 -5 -10 -16 -26 -4 -26 20 0 11 3 18 8
16 4 -3 13 2 21 10 12 13 11 14 -10 8 -20 -7 -22 -6 -12 7 10 12 10 19 -2 34
-9 12 -14 14 -15 6 0 -7 -5 -10 -11 -6 -8 5 -8 9 1 14 6 4 11 10 11 14 -3 21
2 26 31 26 39 0 29 13 -12 14 -20 1 -30 -4 -31 -14 0 -10 -3 -8 -9 5 -11 27
-12 37 -1 31 4 -3 8 4 7 17 -1 14 -8 22 -21 24 -16 1 -16 1 -2 -3 9 -3 17 -10
17 -15 0 -6 -5 -7 -10 -4 -6 4 -9 1 -8 -7 3 -13 -42 -21 -69 -13 -14 5 -6 35
9 35 5 0 6 -5 2 -12 -5 -7 -3 -8 5 -4 9 6 8 13 -5 27 -15 17 -15 19 -2 14 9
-4 19 -2 22 3 3 5 -10 7 -30 5 -32 -3 -36 -1 -30 14 5 13 4 15 -4 7 -13 -13
-2 -46 13 -37 6 3 7 1 3 -5 -11 -19 -36 -15 -29 5 4 11 3 14 -5 9 -8 -5 -10
-1 -5 10 4 12 3 15 -5 10 -7 -4 -12 -1 -12 9 0 12 -5 15 -16 11 -19 -7 -42 14
-36 34 3 8 1 12 -3 8 -12 -11 -35 11 -35 33 0 11 -4 19 -8 19 -9 0 -8 -42 2
-58 4 -7 4 -12 0 -12 -3 0 -1 -6 5 -14 8 -10 9 -16 1 -21 -6 -3 -8 -11 -5 -16
4 -5 -4 -9 -17 -9 -20 1 -21 2 -6 11 24 13 24 43 1 35 -17 -6 -17 -5 0 8 14
11 15 15 3 25 -11 9 -15 8 -20 -5 -4 -9 -9 -14 -13 -11 -3 4 -12 2 -20 -4 -22
-19 -15 -1 9 21 12 11 18 20 13 20 -4 0 0 9 10 20 10 11 14 20 10 20 -5 0 0 7
11 15 19 14 18 14 -2 9 -14 -4 -23 0 -27 10 -4 9 -2 16 2 16 5 0 12 -6 14 -12
4 -10 6 -10 6 -1 1 7 -14 20 -31 28 -20 10 -27 11 -18 3 9 -7 15 -20 15 -28 0
-8 3 -18 8 -21 5 -4 8 -12 5 -20 -2 -7 -12 4 -22 25 -9 20 -21 34 -27 31 -5
-4 -7 -11 -4 -16 10 -15 -5 -10 -22 7 -15 14 -14 15 3 12 29 -5 31 37 3 52
-14 8 -19 8 -15 1 4 -6 3 -18 -2 -27 -6 -11 -12 -13 -16 -6 -7 12 -66 -4 -78
-22 -5 -7 -8 -8 -8 -1 0 6 4 15 9 20 6 6 1 10 -14 10 -12 0 -21 -3 -18 -7 2
-5 -1 -9 -6 -9 -6 -1 -17 -2 -23 -3 -7 -1 -18 10 -25 24 -11 25 -11 25 -11 -8
1 -18 -4 -38 -11 -45 -9 -9 -11 -6 -8 13 3 14 0 30 -5 37 -6 7 -5 14 2 18 8 5
8 11 -1 21 -19 23 -29 16 -22 -16 3 -19 1 -30 -6 -30 -6 0 -12 12 -12 28 -1
17 -3 20 -6 9 -2 -9 -9 -15 -14 -11 -5 3 -6 11 -2 17 4 8 1 7 -9 -1 -12 -10
-17 -10 -20 -1 -3 9 -8 9 -24 0 -13 -9 -14 -11 -2 -7 21 6 31 -4 17 -20 -7 -8
-7 -14 1 -19 6 -4 9 -1 8 6 -2 6 2 13 8 16 6 2 11 -9 12 -27 1 -32 -12 -48
-24 -29 -4 8 -3 9 4 5 7 -4 12 -1 12 7 0 10 -10 14 -33 13 -18 -2 -42 1 -52 5
-11 4 -14 8 -6 8 11 1 11 4 0 18 -11 14 -11 15 -1 9 10 -6 13 -3 10 9 -1 10
-12 23 -23 29 -11 6 -22 12 -25 14 -2 2 2 7 10 13 11 7 9 8 -10 7 -25 -3 -40
-15 -40 -33 0 -5 5 -4 11 2 8 8 19 7 40 -4 29 -15 41 -30 15 -20 -7 3 -19 0
-25 -6 -7 -7 -12 -7 -11 -2 5 22 0 36 -10 30 -6 -4 -8 -10 -5 -15 3 -5 -3 -13
-12 -19 -11 -6 -13 -11 -5 -12 12 -2 27 -5 40 -9 4 -1 10 -2 14 -1 12 1 0 -39
-17 -55 -8 -9 -13 -20 -10 -25 9 -13 -19 -11 -33 3 -7 7 -12 8 -12 2 0 -5 -18
-8 -40 -6 -21 2 -39 7 -38 11 3 9 -26 51 -35 51 -4 0 -5 -4 -2 -10 9 -15 -4
-32 -18 -23 -19 12 -98 10 -93 -3 6 -16 -32 -36 -55 -29 -11 4 -19 2 -19 -5 0
-6 4 -9 8 -6 4 2 14 0 22 -5 13 -9 13 -10 0 -6 -8 2 -25 0 -37 -4 -13 -5 -25
-4 -28 1 -3 6 -16 5 -32 -1 -33 -12 -50 2 -29 24 17 17 21 28 9 26 -22 -4 -35
2 -30 14 3 8 -1 14 -8 14 -7 0 -11 -6 -8 -14 8 -21 -26 -28 -41 -8 -11 15 -14
16 -21 4 -5 -8 -5 -11 0 -7 4 4 15 -2 25 -14 18 -22 58 -19 44 3 -4 7 -3 9 4
6 8 -6 9 -25 3 -44 -1 -1 -12 2 -26 7 -22 8 -25 7 -26 -13 -1 -21 -1 -21 -9 3
-7 21 -8 22 -9 5 -1 -11 -10 -27 -21 -35 -21 -15 -28 -36 -8 -24 7 5 8 3 3 -5
-5 -9 -10 -10 -18 -2 -16 16 -30 13 -23 -5 3 -8 2 -12 -4 -9 -6 3 -10 -4 -11
-17 0 -17 -2 -19 -7 -8 -8 17 -32 21 -31 5 0 -5 3 -12 6 -15 4 -3 3 1 -2 9 -5
10 -4 12 4 7 6 -4 8 -12 5 -18 -4 -6 -1 -14 5 -18 7 -4 -3 -7 -21 -7 -18 0
-25 2 -15 4 18 5 17 6 -3 20 l-21 15 23 25 c13 14 19 23 13 21 -5 -2 -11 2
-12 7 -4 13 20 14 29 0 5 -6 8 -6 8 2 0 6 -5 15 -10 18 -5 3 -10 17 -10 31 0
13 -4 24 -9 24 -15 0 -20 -27 -8 -40 9 -10 9 -11 -2 -5 -9 5 -12 4 -7 -3 3 -6
2 -14 -4 -17 -7 -4 -8 -11 -1 -18 6 -8 4 -16 -5 -25 -12 -11 -15 -11 -19 0 -3
8 -17 13 -30 13 -27 -2 -40 -10 -40 -28 0 -5 -6 -12 -14 -15 -8 -3 -11 -1 -8
4 3 5 -11 9 -30 10 -34 1 -34 0 -11 -12 13 -7 17 -13 11 -14 -18 0 -16 -17 2
-24 8 -3 14 0 12 6 -3 16 31 18 37 2 3 -7 -5 -20 -17 -29 -12 -8 -17 -15 -12
-15 6 0 3 -5 -5 -11 -13 -9 -12 -10 3 -5 9 3 17 2 17 -3 0 -13 -39 -45 -47
-38 -3 4 -1 7 5 7 7 0 12 5 12 11 0 7 -10 9 -25 7 -14 -3 -25 -3 -25 -1 0 10
28 32 33 26 3 -3 5 4 4 14 -1 14 -6 19 -19 15 -10 -2 -15 -9 -11 -16 3 -6 0
-6 -8 2 -18 16 -39 15 -39 -2 0 -8 -5 -18 -12 -22 -8 -5 -9 0 -6 14 4 12 2 22
-4 22 -5 0 -7 4 -3 9 3 6 -11 8 -34 6 -48 -4 -62 17 -23 35 l27 12 -20 -23
-20 -22 24 13 c15 7 21 8 17 1 -4 -6 -3 -11 3 -11 5 0 13 5 16 11 5 6 12 4 21
-8 13 -17 13 -17 14 6 0 17 4 22 16 17 9 -3 12 -2 9 5 -4 5 -16 7 -27 3 -11
-3 -18 -2 -16 2 3 5 1 18 -3 29 -9 18 -9 18 -5 -2 6 -32 -12 -39 -33 -14 -21
24 -36 28 -27 6 3 -8 2 -15 -3 -15 -17 0 -20 55 -4 67 8 7 12 17 7 24 -4 7 -3
10 3 6 12 -8 25 31 16 46 -7 11 -38 -42 -35 -59 1 -6 -5 -17 -13 -24 -17 -14
-55 -95 -55 -116 0 -8 -9 -33 -19 -57 -57 -124 -106 -445 -99 -649 2 -69 0
-124 -4 -122 -4 3 -8 -7 -8 -21 0 -14 4 -24 9 -21 4 3 6 -5 4 -18 -7 -33 23
-173 63 -295 124 -380 379 -691 698 -850 128 -64 223 -96 361 -122 139 -26
416 -36 537 -20 340 45 629 208 865 486 114 134 240 364 302 550 l30 90 63 2
c144 6 1091 33 1147 33 l60 0 15 -52 c19 -71 27 -208 27 -482 0 -140 4 -237
11 -249 5 -11 6 -22 2 -26 -12 -8 -18 -55 -7 -48 4 3 7 -332 6 -744 -2 -481 1
-748 7 -744 6 3 10 -3 10 -15 0 -12 -4 -18 -10 -15 -6 4 -10 -8 -10 -30 0 -22
4 -34 10 -30 6 4 10 -12 10 -42 0 -35 -3 -44 -10 -33 -6 9 -10 10 -10 3 0 -6
4 -14 9 -17 5 -3 9 -222 8 -503 0 -274 3 -518 7 -542 6 -32 5 -46 -5 -53 -11
-7 -11 -11 -1 -15 17 -7 17 -113 0 -113 -10 0 -9 -3 1 -9 9 -6 10 -11 2 -15
-14 -9 -14 -49 0 -63 8 -8 8 -13 0 -17 -6 -4 -11 -15 -10 -24 0 -14 2 -13 9 3
7 16 9 12 9 -18 1 -21 -3 -36 -7 -33 -9 5 -8 -41 1 -51 4 -3 7 -13 7 -22 0
-14 -2 -14 -10 -1 -8 12 -10 11 -10 -5 0 -12 6 -27 13 -34 10 -11 10 -14 0
-18 -8 -3 -13 -22 -13 -44 0 -24 4 -38 10 -34 6 4 10 -14 9 -47 -1 -38 -3 -46
-8 -28 -4 14 -8 -25 -8 -88 -1 -68 2 -110 8 -107 5 4 9 -1 9 -10 0 -9 -4 -13
-10 -10 -14 9 -12 -9 2 -23 10 -10 10 -15 1 -20 -7 -5 -9 -13 -3 -21 5 -9 3
-22 -3 -33 -8 -12 -9 -21 -2 -26 6 -4 11 -41 12 -82 2 -45 0 -70 -6 -62 -5 9
-9 -11 -10 -52 -1 -39 3 -66 9 -66 5 0 10 -7 10 -16 0 -9 -5 -12 -12 -8 -9 5
-9 2 1 -9 11 -14 11 -20 0 -34 -12 -14 -12 -16 0 -8 11 6 13 4 6 -11 -5 -10
-7 -186 -6 -390 1 -205 -1 -374 -6 -377 -4 -3 -181 -8 -393 -11 -943 -15
-1313 -24 -1675 -42 -381 -19 -605 -48 -721 -93 -114 -44 -251 -138 -362 -248
-89 -88 -94 -94 -76 -108 16 -11 21 -11 35 1 9 8 19 11 22 7 11 -10 8 16 -3
38 -8 15 -8 19 2 17 7 -2 12 2 11 9 -2 7 4 10 12 7 9 -4 34 14 66 45 28 28 56
51 61 51 6 0 27 14 48 30 21 17 41 30 44 30 4 0 24 11 46 25 22 14 44 25 50
25 6 0 29 9 53 20 186 86 1466 116 5222 124 1555 3 3201 -5 3580 -18 535 -18
785 -38 904 -72 68 -19 216 -94 255 -128 16 -14 33 -26 37 -26 4 0 51 -42 104
-94 84 -82 101 -103 104 -138 1 -5 8 -8 16 -8 9 0 15 -6 14 -12 -1 -7 1 -21 6
-31 4 -10 5 -21 1 -24 -11 -11 -36 -12 -36 -1 0 7 -5 7 -13 -1 -11 -8 -13 -7
-12 7 0 9 5 23 9 30 7 11 4 11 -13 1 -11 -8 -22 -20 -23 -28 -2 -9 -8 -4 -16
13 -11 26 -11 27 9 21 15 -5 19 -4 15 4 -4 6 -17 11 -30 11 -16 0 -29 11 -41
34 -11 19 -22 33 -26 30 -4 -2 -12 3 -19 12 -11 12 -15 12 -21 2 -6 -9 -9 -8
-10 7 -1 11 -1 24 0 29 1 5 -5 6 -13 3 -9 -4 -20 1 -25 11 -8 12 -10 13 -11 3
0 -9 -7 -6 -19 8 -11 13 -25 20 -32 16 -8 -5 -9 -1 -4 14 5 18 -5 28 -18 19
-2 -2 -11 3 -20 11 -10 7 -17 10 -17 5 0 -5 -4 -3 -9 4 -4 7 -22 15 -40 17
-18 2 -29 0 -26 -5 4 -6 1 -10 -4 -10 -6 0 -11 5 -11 11 0 6 -7 9 -15 5 -8 -3
-14 0 -12 7 1 7 -4 11 -12 9 -7 -1 -20 3 -29 10 -9 7 -13 8 -9 2 3 -6 0 -11
-7 -11 -8 0 -12 5 -10 11 3 7 -7 13 -21 14 -15 1 -24 -2 -20 -8 3 -6 -1 -10
-9 -10 -9 0 -16 4 -16 9 0 10 -26 9 -36 -2 -12 -12 -26 -8 -18 6 5 8 2 8 -9
-2 -13 -10 -17 -10 -17 -1 0 10 -3 10 -15 0 -13 -11 -14 -10 -10 1 4 11 -3 14
-30 13 -19 -1 -35 1 -35 5 0 4 -7 8 -14 8 -8 0 -14 -5 -13 -10 1 -5 -4 -12
-12 -15 -9 -3 -11 0 -6 8 5 8 3 11 -6 8 -8 -3 -13 -10 -12 -16 3 -14 -41 -6
-45 8 -2 6 -9 7 -15 2 -17 -12 -119 -3 -110 11 4 6 1 7 -8 1 -8 -5 -22 -7 -31
-6 -10 2 -18 -3 -18 -10 -1 -10 -4 -9 -13 2 -10 13 -30 18 -39 10 -9 -6 -78
-5 -78 2 0 4 -4 8 -10 8 -5 0 -7 -6 -4 -14 3 -7 -2 -16 -10 -19 -10 -4 -13 -1
-10 7 4 10 -3 14 -20 12 -14 0 -28 -7 -31 -13 -2 -7 -11 -10 -20 -7 -8 3 -13
10 -10 14 3 5 0 12 -6 16 -7 4 -9 3 -6 -3 4 -6 -3 -19 -15 -29 -21 -19 -21
-19 -8 5 10 19 10 25 -1 32 -9 6 -15 3 -17 -6 -2 -8 -8 -15 -13 -15 -6 0 -8 4
-4 9 3 5 -8 9 -25 9 -16 -1 -30 -5 -30 -10 0 -4 -5 -8 -11 -8 -5 0 -7 5 -4 10
3 6 1 10 -4 10 -6 0 -11 -5 -11 -11 0 -5 -5 -7 -12 -3 -7 4 -27 7 -46 6 -20
-2 -31 1 -28 7 4 6 -5 6 -26 0 -18 -5 -34 -9 -36 -9 -2 0 0 -5 4 -11 4 -7 -1
-7 -15 1 -17 9 -26 9 -37 -1 -9 -7 -14 -8 -14 -1 0 6 -8 10 -17 10 -10 -1 -28
2 -40 6 -16 5 -23 3 -23 -6 0 -10 -3 -9 -10 2 -9 13 -10 13 -10 0 0 -13 -2
-13 -9 -1 -5 8 -16 11 -24 8 -10 -4 -15 -1 -13 6 1 7 1 9 -2 4 -2 -4 -17 -14
-32 -22 -26 -14 -30 -13 -39 3 -6 10 -11 12 -11 4 0 -8 -5 -10 -12 -5 -7 4
-20 8 -28 10 -10 1 -9 -3 4 -13 24 -17 23 -17 -37 1 -26 8 -45 10 -42 5 9 -14
-19 -12 -33 2 -8 8 -15 8 -25 -1 -12 -9 -16 -8 -20 4 -5 12 -12 13 -32 5 -15
-6 -30 -8 -35 -5 -5 3 -20 1 -35 -5 -17 -7 -24 -7 -20 0 4 6 -12 10 -40 10
-25 0 -44 -4 -41 -9 3 -5 -1 -11 -9 -14 -9 -4 -12 -1 -8 9 3 7 1 14 -3 15 -5
0 -17 2 -27 4 -13 2 -17 -1 -13 -12 4 -9 1 -13 -6 -10 -7 2 -12 10 -10 16 1 7
-2 10 -8 6 -6 -3 -8 -11 -5 -16 4 -5 -1 -9 -9 -9 -8 0 -18 5 -21 10 -3 6 -1
10 6 10 7 0 10 3 7 6 -3 3 -15 -1 -27 -8 -16 -10 -25 -10 -40 -1 -15 9 -23 8
-41 -4 -13 -9 -20 -11 -16 -5 5 8 2 10 -8 6 -9 -3 -13 -11 -9 -18 5 -8 3 -8
-8 0 -25 19 -69 23 -69 6 0 -12 -4 -12 -21 4 -16 14 -24 16 -38 7 -13 -8 -23
-7 -41 2 -14 8 -32 10 -45 5 -11 -4 -30 -4 -43 1 -16 6 -32 3 -57 -11 -36 -20
-48 -17 -18 5 14 10 9 11 -28 6 -25 -4 -50 -11 -57 -15 -7 -4 -12 -2 -12 4 0
8 -6 8 -20 0 -11 -6 -20 -7 -20 -1 0 5 -14 6 -35 1 -24 -5 -33 -5 -28 3 4 7 0
8 -13 3 -21 -9 -26 -10 -71 -3 -18 2 -33 0 -33 -4 0 -5 -7 -9 -16 -9 -8 0 -13
4 -10 8 4 7 -21 8 -63 4 -11 -2 -11 -5 0 -18 12 -15 11 -16 -10 -9 -14 4 -34
16 -45 26 -23 22 -32 24 -39 7 -4 -10 -6 -10 -6 0 -1 6 -6 12 -12 12 -5 0 -7
-5 -3 -11 4 -8 0 -8 -15 0 -14 8 -21 8 -21 1 0 -5 -7 -10 -16 -10 -8 0 -13 4
-10 9 4 5 -3 7 -14 4 -11 -3 -17 -10 -14 -17 3 -6 0 -4 -8 4 -18 21 -38 23
-38 5 0 -8 -6 -16 -12 -16 -25 -2 -53 3 -62 12 -5 5 -15 1 -22 -9 -9 -11 -13
-13 -14 -4 0 7 -4 10 -10 7 -5 -3 -10 -1 -10 4 0 6 -6 10 -12 9 -7 -2 -12 3
-10 10 2 10 -2 10 -18 2 -11 -6 -20 -16 -20 -23 0 -8 -3 -8 -9 2 -6 9 -11 10
-15 2 -5 -8 -13 -8 -26 -1 -15 8 -22 6 -30 -7 -11 -17 -11 -17 -6 0 3 11 0 17
-9 17 -8 0 -15 -5 -15 -11 0 -6 -7 -3 -16 5 -16 17 -29 21 -20 8 3 -5 -10 -8
-29 -8 -18 1 -33 3 -33 6 1 17 -3 24 -10 14 -4 -6 -36 -14 -72 -17 -36 -4 -82
-9 -102 -11 -22 -2 -36 0 -32 5 9 15 -20 5 -33 -11 -11 -13 -12 -12 -6 5 6 17
4 18 -8 8 -9 -7 -20 -8 -29 -3 -8 5 -18 6 -23 3 -4 -3 -15 3 -22 13 -8 11 -15
14 -15 8 0 -17 -130 -18 -130 -2 0 9 -3 9 -8 2 -7 -10 -32 -15 -89 -14 -18 0
-33 -5 -33 -11 0 -5 -5 -7 -10 -4 -6 4 -8 10 -6 14 6 9 -84 -2 -102 -12 -6 -5
-12 -4 -12 1 0 5 -7 9 -15 9 -8 0 -15 -4 -15 -9 0 -4 -10 -8 -22 -8 -19 0 -20
2 -8 10 9 6 10 10 3 10 -6 0 -15 -5 -18 -11 -5 -6 -12 -4 -22 8 -8 10 -12 13
-9 7 3 -7 -2 -18 -11 -25 -15 -12 -16 -12 -10 4 6 15 3 17 -14 12 -11 -4 -26
-2 -33 5 -11 8 -18 7 -30 -5 -9 -9 -16 -12 -16 -6 0 7 -11 9 -27 5 -16 -3 -37
-6 -47 -5 -11 0 -27 -4 -36 -9 -11 -6 -24 -5 -36 4 -24 17 -64 27 -64 16 0 -4
-14 -7 -31 -6 -16 1 -33 -2 -36 -7 -3 -4 -12 -5 -22 -2 -29 13 -61 14 -61 2 0
-6 -7 -2 -15 9 -9 12 -14 14 -15 6 0 -7 -4 -11 -9 -8 -5 3 -11 -1 -15 -9 -3
-8 -12 -15 -20 -15 -10 0 -13 6 -9 17 5 13 2 15 -12 9 -11 -4 -22 -2 -27 6 -6
10 -8 10 -8 1 0 -7 -5 -13 -11 -13 -5 0 -7 4 -4 10 3 6 -1 7 -9 4 -9 -3 -14
-10 -11 -14 3 -5 -5 -6 -17 -2 -13 3 -19 1 -15 -5 5 -7 0 -9 -13 -6 -11 3 -18
8 -16 12 3 4 -4 7 -14 7 -13 0 -17 -6 -14 -21 3 -19 3 -19 -11 -1 -9 11 -18
15 -27 10 -23 -15 -38 -13 -38 4 0 12 -3 13 -8 5 -8 -13 -52 -14 -52 0 0 4 -6
5 -12 0 -19 -11 -39 -13 -32 -2 3 5 10 6 16 3 7 -4 8 -2 4 4 -8 13 -36 5 -36
-10 0 -5 -7 -3 -15 6 -9 8 -26 13 -40 10 -14 -2 -37 -6 -52 -9 -15 -2 -31 1
-36 8 -6 8 -7 4 -4 -10 3 -13 1 -23 -4 -23 -5 0 -9 6 -9 14 0 9 -9 12 -27 9
-16 -2 -34 -4 -40 -4 -7 1 -19 1 -25 2 -22 0 -64 -8 -76 -15 -6 -3 -14 -1 -18
5 -5 8 -3 9 7 4 11 -6 11 -5 2 5 -14 15 -33 5 -33 -18 -1 -15 -3 -14 -18 4
-12 15 -24 19 -37 14 -11 -4 -26 -2 -34 4 -12 9 -13 8 -6 -3 6 -11 3 -11 -15
2 -17 12 -25 13 -35 4 -13 -13 -128 -10 -120 3 7 11 -29 7 -37 -5 -5 -6 -8 -4
-8 5 0 10 -5 8 -15 -7 -14 -21 -55 -22 -55 -2 0 13 -28 11 -36 -3 -4 -6 -3 -8
4 -4 6 3 13 2 16 -3 7 -10 -9 -9 -37 4 -9 4 -29 4 -43 1 -15 -4 -23 -3 -20 3
3 5 -1 11 -8 14 -10 4 -13 0 -11 -14 2 -11 0 -17 -6 -14 -5 4 -9 12 -9 18 0 7
-15 12 -35 12 -21 0 -35 -5 -35 -12 0 -9 -7 -10 -24 -3 -13 5 -33 6 -45 3 -12
-3 -27 0 -35 6 -9 7 -17 8 -20 2 -3 -5 -17 -8 -31 -6 -14 1 -25 -1 -25 -5 0
-5 -13 -7 -30 -6 -16 1 -30 -3 -30 -8 0 -6 -6 -3 -13 6 -8 9 -22 15 -33 14
-10 -2 -22 2 -26 8 -5 7 -11 5 -20 -6 -13 -17 -40 -19 -54 -5 -4 4 -13 2 -21
-4 -8 -7 -13 -8 -13 -1 0 5 -11 9 -25 8 -14 0 -25 -5 -25 -9 0 -5 -7 -1 -16 7
-14 14 -18 14 -46 0 -16 -9 -27 -11 -24 -6 3 6 -1 12 -9 16 -11 4 -15 -1 -15
-17 0 -13 -3 -17 -8 -11 -8 13 -74 25 -66 12 8 -13 -10 -9 -25 5 -11 10 -14 9
-18 -1 -4 -10 -10 -9 -26 5 -16 13 -18 14 -9 2 10 -13 9 -19 -3 -29 -13 -11
-14 -10 -9 4 4 11 1 16 -12 16 -16 0 -17 2 -4 10 9 6 10 10 3 10 -6 0 -15 -5
-18 -11 -4 -6 -13 -8 -21 -5 -8 3 -14 1 -14 -5 0 -6 -4 -8 -9 -5 -5 4 -12 0
-14 -6 -4 -10 -6 -10 -6 0 -1 6 -8 12 -16 12 -8 0 -15 -6 -15 -12 0 -10 -3 -9
-9 1 -5 8 -10 9 -12 3 -3 -8 -17 -8 -41 -3 -21 5 -36 6 -34 2 3 -4 -4 -7 -14
-7 -10 0 -16 4 -14 8 3 4 -2 8 -11 8 -9 0 -14 -4 -11 -8 2 -4 -8 -7 -22 -6
-15 1 -26 6 -25 12 2 6 -4 9 -12 5 -13 -4 -13 -8 -3 -22 7 -9 1 -6 -12 6 -18
16 -30 19 -40 13 -10 -7 -11 -10 -2 -10 6 0 12 -5 12 -12 0 -6 -8 -4 -19 6
-10 9 -22 16 -27 15 -5 -1 -13 0 -19 1 -5 2 -24 4 -41 5 -25 1 -31 -2 -26 -15
3 -8 2 -12 -3 -8 -4 4 -16 3 -26 -3 -15 -8 -19 -6 -19 6 0 10 5 13 12 9 7 -5
8 -3 3 6 -7 11 -10 10 -19 -1 -13 -16 -66 -24 -66 -10 0 11 -36 6 -54 -7 -6
-5 -20 -6 -31 -1 -26 10 -37 11 -31 1 2 -4 -3 -8 -13 -8 -13 0 -17 6 -14 21 3
13 2 16 -4 8 -5 -6 -23 -11 -40 -11 -24 1 -30 5 -26 17 3 12 1 11 -7 -2 -9
-14 -15 -15 -25 -7 -10 8 -19 8 -34 0 -14 -7 -21 -7 -21 0 0 5 -5 10 -11 10
-5 0 -8 -4 -5 -8 3 -5 -1 -9 -9 -9 -8 0 -12 4 -9 9 3 4 0 8 -5 8 -6 0 -11 -7
-11 -16 0 -14 -2 -15 -17 -3 -9 8 -14 9 -10 3 4 -7 0 -17 -8 -24 -8 -7 -12
-17 -8 -23 3 -6 1 -7 -5 -3 -9 5 -9 13 0 29 10 20 10 21 -5 8 -9 -7 -26 -11
-37 -8 -11 3 -23 1 -26 -5 -4 -6 -10 -5 -15 3 -8 12 -11 11 -19 -1 -6 -10 -10
-11 -10 -3 0 7 -7 10 -17 6 -10 -4 -14 -2 -9 5 3 6 1 14 -5 18 -7 4 -9 3 -5
-4 3 -6 2 -13 -4 -17 -6 -3 -13 1 -16 10 -5 11 -10 13 -19 5 -9 -8 -14 -7 -17
2 -4 10 -8 10 -21 -1 -12 -10 -17 -10 -17 -2 0 8 -6 7 -16 -3 -8 -9 -17 -16
-19 -16 -2 0 -11 7 -19 16 -12 12 -16 12 -16 2 0 -10 -3 -9 -10 2 -6 10 -10
11 -10 3 0 -7 -5 -13 -11 -13 -5 0 -7 5 -3 11 9 15 -38 0 -48 -15 -4 -6 -8 -7
-8 -2 0 5 -7 3 -15 -4 -12 -10 -16 -9 -21 4 -3 9 -10 16 -16 16 -5 0 -6 -5 -2
-11 4 -8 -1 -9 -17 -4 -20 7 -22 6 -12 -6 10 -12 8 -15 -6 -16 -14 -1 -18 4
-14 20 3 15 2 18 -4 9 -10 -13 -47 -12 -60 3 -5 4 -3 6 2 2 6 -3 19 1 30 9 10
8 14 14 9 14 -6 0 -16 -6 -23 -12 -12 -11 -13 -9 -7 7 5 16 2 15 -14 -5 -11
-14 -20 -20 -20 -13 0 6 -9 9 -22 6 -19 -4 -21 -3 -8 7 12 10 12 11 -5 5 -11
-4 -28 -7 -38 -7 -9 0 -15 -3 -12 -9 8 -13 -19 -11 -32 2 -7 7 -15 5 -27 -6
-14 -15 -20 -13 -18 6 1 10 -36 3 -50 -9 -11 -9 -18 -9 -28 1 -10 9 -11 9 -6
-1 6 -10 1 -11 -18 -6 -16 4 -33 1 -44 -7 -15 -13 -16 -12 -3 4 7 9 12 17 10
18 -31 7 -65 1 -81 -13 -24 -21 -35 -24 -20 -5 8 10 6 13 -9 13 -10 0 -19 -4
-19 -8 0 -5 -9 -4 -19 2 -14 7 -22 7 -26 0 -4 -6 -11 -8 -16 -5 -5 4 -9 1 -9
-5 0 -6 -5 -8 -12 -3 -21 13 -42 9 -65 -11 -13 -11 -23 -14 -23 -8 0 7 6 12
13 12 6 1 -3 7 -22 15 -40 18 -41 18 -41 4 0 -5 5 -7 12 -3 7 4 8 3 4 -4 -9
-16 -36 -15 -36 0 0 6 -7 3 -16 -8 -8 -10 -13 -13 -9 -6 7 13 1 14 -57 14 -21
0 -38 4 -38 9 0 6 -5 7 -10 4 -6 -4 -8 -11 -5 -16 4 -5 -3 -9 -14 -9 -15 0
-19 5 -15 18 5 14 4 15 -5 2 -6 -8 -11 -11 -11 -6 0 5 -6 4 -13 -3 -10 -8 -17
-7 -25 1 -9 9 -12 9 -12 -2 0 -9 -5 -8 -16 6 -8 10 -13 14 -10 8 3 -7 -3 -14
-14 -17 -11 -3 -20 0 -20 6 0 8 -3 8 -8 -1 -5 -7 -16 -10 -25 -6 -11 4 -17 1
-17 -7 0 -9 -3 -10 -11 -2 -6 6 -23 8 -44 3 -18 -4 -38 -4 -45 0 -16 10 -52 1
-44 -11 4 -8 -8 -11 -32 -8 -3 0 -12 -8 -20 -18 -12 -17 -13 -17 -14 0 0 9 -3
17 -7 17 -23 0 -101 -37 -120 -57 -13 -13 -23 -21 -23 -17 0 4 -10 -5 -23 -19
-12 -15 -27 -27 -32 -27 -6 0 -3 5 5 10 12 8 12 10 1 10 -8 0 -19 -7 -25 -15
-6 -8 -22 -17 -35 -20 -13 -2 -26 -7 -30 -11 -3 -4 2 -4 11 -1 10 3 20 2 23
-4 4 -5 3 -9 -2 -8 -19 5 -63 -14 -63 -28 0 -8 5 -11 13 -7 6 4 9 3 4 -1 -13
-15 -45 -15 -51 0 -3 8 -11 15 -17 15 -8 0 -9 -3 0 -14 8 -10 6 -19 -10 -40
-25 -32 -39 -33 -39 -3 -1 20 -2 19 -17 -8 -10 -16 -16 -38 -14 -49 1 -10 -2
-16 -7 -13 -11 7 -54 -21 -48 -31 2 -4 -9 -26 -25 -50 -16 -23 -29 -45 -29
-49 0 -3 -10 -27 -21 -52 -28 -59 -35 -78 -48 -121 -6 -19 -17 -57 -26 -85 -8
-27 -19 -103 -25 -169 -6 -65 -12 -122 -15 -125 -2 -4 -7 -70 -10 -147 -3 -76
-8 -173 -11 -214 -9 -160 -15 -570 -20 -1410 -2 -481 -7 -904 -10 -939 l-6
-63 -206 6 c-114 4 -427 11 -697 16 -269 5 -616 12 -770 15 -154 3 -525 10
-825 15 -1116 20 -1665 31 -1676 35 -6 2 -23 25 -38 51 l-27 49 -9 320 c-5
176 -11 552 -15 835 l-6 515 98 47 c369 175 647 569 743 1054 28 140 38 402
20 552 -42 363 -194 699 -425 941 -183 191 -389 307 -646 363 -91 20 -132 22
-339 23 -195 0 -249 -3 -315 -19 -178 -41 -327 -108 -457 -203 -84 -62 -179
-153 -172 -165 3 -5 13 0 21 11 8 12 24 21 36 21 17 0 19 3 8 9 -10 7 -6 11
17 16 17 3 33 13 36 22 4 9 9 13 13 10 3 -4 24 6 47 22 177 122 357 187 552
198 296 16 564 -90 793 -316 126 -123 220 -264 284 -424 36 -89 41 -121 21
-138 -9 -7 -20 -22 -25 -34 -8 -16 -8 -15 -4 8 4 22 2 27 -14 27 -11 0 -21 9
-24 21 -3 12 -10 18 -15 15 -6 -4 -9 5 -7 19 1 14 -1 25 -5 25 -4 0 -11 11
-14 25 -5 21 -10 24 -25 15 -14 -7 -20 -6 -25 5 -3 8 -1 17 4 20 6 4 10 14 10
23 0 13 -2 14 -9 4 -7 -11 -13 -9 -30 9 -17 18 -18 25 -8 37 10 13 8 14 -15 9
-22 -6 -26 -4 -22 8 4 10 0 15 -10 15 -19 0 -21 16 -3 24 6 3 2 3 -10 1 -12
-3 -24 -1 -28 5 -3 5 -1 10 4 10 6 0 11 8 11 18 0 21 -42 48 -59 38 -7 -5 -9
-1 -5 8 4 10 1 16 -9 16 -11 0 -15 7 -12 21 3 13 0 19 -8 16 -7 -3 -11 -10 -9
-16 1 -7 -2 -10 -8 -6 -6 3 -8 11 -5 16 4 5 1 9 -4 9 -6 0 -11 6 -11 14 0 9
-8 12 -25 8 -18 -3 -25 0 -23 9 3 15 -22 17 -62 4 -23 -7 -24 -7 -10 10 10 13
11 16 2 11 -9 -5 -12 -3 -11 5 2 8 0 26 -4 41 -5 20 -12 25 -27 21 -15 -4 -19
-2 -14 10 4 12 1 14 -18 10 -21 -6 -22 -5 -8 13 14 18 14 18 -2 5 -16 -12 -22
-9 -20 10 1 4 -9 2 -23 -4 -16 -8 -21 -15 -14 -24 7 -8 5 -10 -8 -8 -10 2 -19
4 -20 5 -4 4 -22 7 -39 9 -8 0 -13 5 -10 10 3 5 -1 12 -10 15 -8 3 -12 11 -8
17 5 8 9 8 14 -1 5 -8 10 -8 14 -2 10 16 -21 22 -34 6 -7 -8 -18 -14 -24 -14
-6 0 -4 5 4 10 13 8 12 10 -3 10 -10 0 -15 5 -12 10 3 6 -1 10 -10 10 -9 0
-14 -4 -11 -9 3 -5 -1 -12 -10 -15 -8 -3 -12 -2 -9 4 3 6 -1 10 -9 10 -9 0
-16 8 -17 18 0 14 -2 14 -9 -3 -6 -14 -9 -16 -10 -5 -2 8 -2 18 -2 21 1 3 -5
6 -13 6 -8 0 -11 -5 -8 -11 4 -6 -1 -5 -10 3 -10 8 -20 11 -24 7 -3 -3 -15 2
-26 11 -19 17 -20 17 -8 -5 7 -12 9 -27 6 -32 -8 -13 -45 11 -45 29 0 10 3 11
14 2 12 -10 13 -9 9 8 -3 11 -11 22 -18 25 -10 3 -12 0 -8 -11 4 -10 2 -14 -4
-10 -7 5 -9 0 -6 -13 3 -12 0 -20 -6 -20 -7 0 -9 4 -6 10 3 5 1 18 -4 27 -8
13 -10 14 -11 4 0 -11 -4 -9 -15 5 -14 18 -14 18 -15 -6 0 -14 -4 -20 -8 -14
-4 6 -17 16 -29 22 -17 9 -22 9 -27 -4 -4 -12 -2 -15 9 -10 9 3 15 0 15 -8 0
-15 -30 -17 -31 -2 -1 6 0 20 1 31 1 15 -1 17 -10 8 -7 -6 -20 -9 -29 -6 -14
4 -13 2 2 -10 21 -18 21 -23 0 -23 -10 -1 -27 -5 -37 -9 -15 -6 -17 -5 -11 5
5 9 4 11 -3 6 -23 -14 -54 -16 -49 -3 3 8 -5 14 -23 15 -21 2 -27 -2 -26 -15
0 -10 -5 -17 -11 -16 -7 2 -13 -2 -13 -8 0 -5 -5 -7 -10 -4 -6 4 -8 12 -4 18
3 7 -1 4 -8 -5 -13 -15 -15 -15 -25 0 -10 15 -11 15 -10 -3 1 -11 -5 -21 -17
-23 -13 -3 -16 0 -11 10 5 7 5 10 0 6 -4 -4 -14 -3 -21 3 -11 9 -15 7 -20 -5
-4 -10 -12 -15 -18 -13 -13 5 -53 -20 -48 -31 2 -3 -2 -8 -9 -11 -7 -2 -9 1
-4 9 5 9 4 11 -3 6 -7 -4 -13 -17 -13 -29 -1 -17 -2 -18 -6 -4 -2 9 -8 17 -13
17 -5 0 -7 -8 -3 -17 6 -17 5 -17 -14 0 -11 9 -23 17 -28 17 -5 0 -1 -6 10
-13 12 -10 14 -16 7 -21 -7 -4 -12 -4 -12 -1 0 3 -13 -2 -30 -12 -16 -9 -30
-21 -30 -26 0 -5 -7 -7 -15 -3 -8 3 -14 2 -14 -2 4 -26 -3 -49 -16 -49 -8 0
-15 3 -15 7 0 12 -69 7 -74 -6 -3 -8 0 -11 8 -8 10 4 12 -2 8 -21 -3 -20 -7
-23 -13 -13 -7 10 -9 10 -10 -2 0 -10 -3 -8 -9 5 -7 17 -9 17 -9 3 -1 -12 -6
-15 -18 -11 -11 4 -14 3 -9 -5 4 -7 2 -12 -4 -12 -6 0 -8 -5 -4 -12 5 -7 2 -9
-9 -5 -11 4 -14 2 -10 -8 3 -8 10 -12 16 -8 6 3 7 1 3 -6 -6 -9 -11 -9 -21 -1
-20 17 -87 -55 -132 -141 -112 -214 -177 -441 -190 -666 -3 -62 -9 -113 -12
-113 -13 0 -4 -237 13 -327 89 -487 371 -894 753 -1087 40 -20 81 -36 90 -36
17 0 18 -55 20 -1159 1 -997 4 -1173 17 -1250 26 -146 80 -260 170 -354 104
-108 232 -161 431 -178 138 -11 2622 -69 3835 -89 366 -6 706 -13 757 -16 83
-5 92 -8 97 -27 2 -12 5 -527 6 -1145 l1 -1123 -103 5 c-57 3 -173 8 -258 11
-85 3 -396 14 -690 25 -294 11 -668 24 -830 30 -162 5 -356 12 -430 15 -233 9
-1329 47 -1891 65 -535 17 -736 -16 -876 -145 -26 -25 -41 -42 -31 -39 9 3 18
0 21 -8 2 -7 3 -5 2 4 -4 27 101 74 207 94 97 18 51 18 813 -11 164 -7 901
-33 1140 -40 99 -3 212 -8 250 -10 39 -2 169 -7 290 -10 121 -3 256 -7 300
-10 44 -3 148 -7 230 -10 83 -3 193 -7 245 -10 52 -2 212 -7 355 -10 143 -3
276 -8 295 -10 19 -2 143 -7 275 -11 132 -3 242 -8 245 -9 3 -2 82 -5 175 -6
146 -2 225 -10 225 -25 0 -11 -27 -62 -42 -78 -19 -21 -53 -23 -198 -11 -52 4
-102 7 -110 6 -47 -5 -220 -5 -247 0 -17 4 -35 3 -40 -2 -5 -5 -23 -5 -41 0
-20 6 -30 6 -27 0 4 -5 1 -9 -4 -9 -6 0 -11 4 -11 9 0 8 -175 14 -407 13 -57
0 -103 3 -103 6 0 4 -70 7 -155 7 -85 0 -155 2 -155 5 0 3 -84 5 -187 6 -104
0 -260 3 -348 7 -88 4 -245 9 -350 12 -162 5 -230 9 -230 15 0 0 -90 3 -200 6
-110 2 -242 6 -292 7 -51 1 -93 5 -93 8 0 4 -33 7 -73 6 -130 0 -296 7 -292
12 2 3 -72 6 -163 7 -194 1 -322 7 -322 14 0 3 -40 5 -88 4 -49 0 -124 4 -168
8 -43 5 -118 11 -166 13 -47 2 -110 10 -140 18 -69 19 -165 29 -172 18 -3 -5
-27 -12 -53 -17 -54 -8 -52 -8 -75 -18 -9 -4 -22 -9 -30 -10 -42 -9 -111 -43
-128 -63 -74 -89 -109 -177 -125 -313 -4 -30 -9 -58 -11 -62 -7 -10 -5 -1120
2 -1723 l7 -530 -76 -33 c-100 -44 -218 -118 -290 -181 -61 -54 -66 -71 -6
-22 33 28 148 81 175 81 7 0 14 3 16 8 4 8 48 30 143 69 69 28 72 28 275 27
264 -1 391 -19 489 -67 113 -56 235 -143 326 -234 78 -78 175 -206 175 -232 0
-6 4 -11 9 -11 5 0 11 -9 14 -19 7 -30 -22 -35 -34 -7 -6 13 -26 32 -45 42
-18 10 -31 21 -28 25 2 4 -5 10 -16 14 -11 4 -18 11 -15 16 4 5 1 9 -5 9 -6 0
-8 5 -5 10 3 6 3 10 -2 10 -4 0 -24 15 -44 34 -21 18 -52 42 -70 54 -19 11
-43 29 -54 39 -51 45 -105 83 -119 83 -23 0 -66 22 -61 31 3 4 -21 15 -52 24
-62 17 -135 45 -143 56 -3 3 -23 10 -45 14 -22 5 -47 10 -55 12 -84 19 -342
23 -404 5 -27 -7 -69 -15 -92 -17 -24 -2 -49 -7 -56 -11 -7 -4 -28 -9 -48 -11
-20 -2 -42 -12 -50 -24 -11 -14 -18 -17 -27 -8 -8 8 -17 8 -30 0 -14 -7 -24
-7 -33 2 -10 9 -11 9 -6 0 4 -7 2 -13 -5 -13 -6 0 -23 -11 -38 -25 -139 -134
-173 -171 -223 -236 -50 -67 -68 -96 -128 -204 -53 -96 -155 -411 -143 -441 4
-10 2 -15 -3 -11 -7 4 -9 -6 -6 -25 3 -19 1 -28 -5 -25 -25 15 -30 -260 -8
-427 91 -696 554 -1240 1139 -1341 261 -45 650 16 896 140 248 125 427 310
563 581 81 162 134 340 158 537 15 124 7 390 -16 517 -90 501 -386 935 -769
1131 l-86 44 1 675 c0 734 7 981 30 1019 l14 23 210 -6 c116 -3 491 -17 835
-31 1137 -45 2420 -94 2785 -106 198 -7 363 -15 366 -18 4 -3 10 -339 13 -746
15 -1604 38 -2202 95 -2400 67 -234 181 -425 361 -605 119 -120 216 -191 330
-243 146 -66 518 -117 1320 -182 330 -26 1420 -105 1455 -105 7 0 3 -3911 -5
-4755 -6 -600 -5 -683 8 -707 13 -22 14 -33 4 -67 -15 -49 -57 -101 -82 -101
-32 0 -32 17 0 42 17 13 34 38 39 55 l9 31 -77 6 c-196 15 -950 79 -1066 89
l-130 12 -37 110 c-241 703 -846 1138 -1483 1066 -371 -42 -671 -168 -872
-367 l-78 -76 67 58 c38 33 73 59 78 59 6 0 14 5 18 10 9 13 53 38 58 32 6 -5
-35 -47 -47 -47 -5 0 -14 -11 -19 -25 -5 -14 -14 -24 -19 -23 -19 5 -187 -179
-249 -271 -34 -51 -62 -99 -62 -107 0 -7 -3 -14 -7 -16 -17 -7 -123 -248 -123
-279 0 -8 -4 -19 -9 -25 -27 -29 -61 -255 -61 -407 0 -287 61 -540 195 -812
89 -180 177 -305 305 -435 241 -245 516 -380 833 -410 125 -12 214 -7 363 21
441 83 752 280 971 614 39 60 108 193 129 249 l18 48 45 -6 c111 -14 1463
-138 1621 -148 152 -10 189 -9 281 5 242 37 422 126 522 257 67 88 98 166 123
303 15 84 17 335 15 3009 l-2 2918 59 0 c32 0 202 -9 378 -20 556 -35 1325
-80 1362 -80 l35 0 -4 -3017 -4 -3018 23 -105 c65 -298 256 -497 533 -554 112
-23 353 -48 1254 -131 451 -41 838 -78 860 -81 l40 -5 33 -102 c88 -267 257
-534 463 -732 274 -263 599 -404 967 -422 349 -16 780 130 1068 361 164 132
287 289 384 491 169 352 210 743 118 1140 -146 632 -624 1145 -1192 1280 -221
53 -414 56 -642 10 -337 -68 -612 -205 -818 -410 -79 -77 -173 -192 -165 -199
2 -2 35 32 72 75 75 87 114 110 45 26 -24 -28 -45 -54 -48 -57 -19 -17 -122
-176 -149 -230 -39 -77 -51 -91 -51 -64 -1 11 -13 -5 -28 -37 l-27 -56 -575
53 c-756 69 -743 67 -784 99 -43 33 -63 107 -70 265 -3 63 -9 1291 -13 2728
l-6 2612 44 0 c24 0 161 -7 304 -15 564 -32 1440 -65 1723 -65 428 0 559 14
800 81 337 95 617 333 781 664 70 142 97 235 117 405 34 293 57 1058 69 2280
3 294 8 577 11 628 l6 92 81 0 c45 0 170 -5 277 -10 216 -11 1563 -68 3055
-130 1256 -52 1583 -68 1605 -80 10 -5 31 -31 46 -57 l29 -48 0 -920 0 -919
-105 -43 c-334 -138 -600 -381 -775 -707 -44 -83 -79 -170 -65 -161 5 3 10 -1
10 -9 0 -9 -6 -13 -13 -10 -14 5 -45 -69 -39 -94 2 -6 -1 -12 -6 -12 -11 0
-45 -134 -67 -265 -18 -106 -21 -364 -5 -493 71 -585 442 -1121 945 -1367 174
-85 324 -130 525 -154 297 -37 670 37 981 195 499 254 818 763 854 1364 5 87
-6 314 -19 385 -3 17 -11 57 -17 90 -6 33 -14 69 -19 80 -4 11 -13 44 -20 74
-17 71 -79 223 -133 325 -175 329 -413 564 -742 732 l-120 62 0 258 c0 143 3
691 6 1219 4 528 2 998 -2 1045 -5 47 -11 105 -14 130 -20 182 -142 377 -303
481 -166 109 -265 123 -1002 149 -871 30 -2108 72 -2650 89 -338 11 -673 23
-745 26 -71 3 -445 14 -830 25 -385 12 -705 23 -711 25 -14 4 -7 2404 6 2419
5 4 274 1 602 -8 961 -26 1315 -35 2218 -56 470 -11 1142 -27 1493 -35 819
-19 1192 -19 1317 -1 268 41 453 161 557 362 62 121 86 238 97 479 6 130 15
1084 17 1850 1 264 4 497 6 518 5 32 11 41 36 50 69 24 248 118 337 178 136
90 335 292 427 431 155 235 245 473 288 760 17 112 21 407 6 465 -5 21 -9 58
-10 81 0 24 -4 49 -8 55 -4 6 -10 29 -14 52 -22 128 -83 298 -155 435 -242
456 -636 747 -1141 842 -160 30 -496 32 -648 4 -371 -68 -725 -277 -958 -566
-97 -121 -200 -288 -196 -319 4 -27 -12 -83 -41 -146 -25 -53 -56 -146 -101
-307 -7 -26 -16 -43 -20 -37 -3 6 -9 2 -12 -10 -3 -12 -1 -19 4 -15 5 3 9 -5
9 -18 0 -19 -2 -20 -11 -8 -8 11 -9 5 -5 -25 4 -27 2 -35 -4 -25 -7 10 -9 1
-7 -32 1 -27 -2 -48 -7 -48 -17 0 0 -376 24 -494 107 -540 431 -977 888 -1200
50 -24 103 -48 120 -54 l29 -10 -4 -358 c-7 -745 -23 -1481 -33 -1513 -5 -18
-17 -45 -26 -59 l-16 -25 -422 7 c-541 9 -2856 44 -3351 51 -209 2 -584 8
-833 11 -322 5 -455 10 -457 18 -2 6 -6 515 -9 1131 -8 1455 -28 1982 -84
2175 -118 404 -450 763 -817 883 -218 72 -891 103 -2315 109 -261 1 -506 4
-543 7 l-69 6 1 1045 c1 575 3 1277 6 1560 3 283 8 1026 11 1650 6 1155 11
1354 36 1449 23 89 18 87 358 101 529 20 1045 38 1048 35 2 -2 18 -43 36 -91
179 -481 559 -832 1025 -949 173 -43 316 -58 516 -52 192 6 263 18 425 69 162
51 336 144 465 247 120 96 284 280 366 411 148 236 253 543 273 805 3 39 9 99
12 135 7 82 -11 284 -37 415 -28 142 -92 322 -156 446 -283 540 -790 831
-1443 828 -85 0 -186 -7 -225 -14z m380 -88 c212 -42 450 -165 612 -314 62
-57 173 -192 173 -210 0 -7 5 -13 10 -13 6 0 10 -6 10 -14 0 -8 4 -16 10 -18
8 -2 13 -19 19 -58 1 -3 12 -18 26 -34 23 -27 24 -31 9 -47 -12 -13 -12 -19
-3 -25 7 -4 10 -3 5 4 -3 6 -2 13 3 16 5 3 11 -3 14 -14 3 -11 1 -20 -3 -20
-5 0 -5 -13 0 -30 5 -16 6 -30 2 -30 -4 0 -1 -4 7 -9 11 -7 9 -10 -8 -16 -11
-3 -21 -11 -21 -17 0 -6 6 -6 15 2 13 11 14 10 9 -5 -6 -14 -4 -16 7 -10 8 4
11 5 7 0 -4 -4 -3 -14 3 -22 6 -7 8 -13 4 -13 -4 0 -14 8 -21 18 -12 15 -13
14 -12 -10 1 -15 8 -30 16 -33 8 -3 10 0 6 6 -4 7 -1 10 6 7 15 -5 24 -68 10
-68 -7 0 -7 -8 0 -22 11 -22 10 -22 -4 -4 -11 14 -13 23 -5 32 12 15 3 37 -12
28 -5 -3 -16 -20 -24 -37 -9 -18 -13 -24 -11 -15 3 10 0 20 -6 24 -6 4 -8 3
-5 -3 4 -6 0 -16 -8 -23 -8 -7 -13 -15 -11 -19 3 -4 0 -13 -6 -21 -8 -12 -9
-12 -4 3 3 10 0 17 -7 18 -9 0 -9 2 1 6 15 6 16 33 1 33 -5 0 -7 5 -4 11 4 6
0 9 -11 7 -23 -4 -43 -20 -37 -30 2 -5 -6 -8 -18 -8 l-22 0 21 19 c12 10 18
21 14 25 -4 4 -2 7 3 6 6 -1 19 -2 30 -1 16 1 17 3 5 10 -8 6 -18 7 -24 4 -5
-3 -15 2 -23 12 -12 17 -13 17 -13 2 0 -9 -5 -17 -10 -17 -7 0 -7 -8 1 -22 9
-18 9 -21 -1 -11 -18 16 -40 5 -40 -21 0 -15 3 -17 9 -8 6 11 10 10 15 -4 4
-10 4 -15 0 -11 -4 4 -13 -1 -21 -11 -12 -16 -13 -16 -7 1 4 12 1 17 -11 17
-9 0 -13 4 -10 10 3 6 -1 7 -10 4 -14 -6 -14 -8 1 -25 9 -11 12 -19 7 -19 -6
0 -14 7 -17 16 -3 8 -11 12 -17 8 -7 -4 -9 0 -5 13 8 26 -19 52 -28 27 -4 -12
-2 -15 9 -10 18 7 18 4 3 -29 -7 -16 -14 -21 -19 -14 -4 8 -9 4 -14 -10 -3
-11 -11 -21 -17 -21 -7 0 -6 5 2 15 6 8 9 19 6 24 -4 6 2 8 15 6 16 -3 18 -1
10 9 -14 17 6 69 23 59 6 -3 5 0 -2 8 -8 9 -15 10 -20 4 -9 -13 -27 -13 -39
-1 -4 5 -3 6 3 3 7 -4 17 0 24 8 7 8 17 12 24 8 6 -3 4 0 -4 8 -8 8 -20 21
-28 29 -11 13 -12 12 -8 -10 3 -14 3 -19 0 -12 -3 6 -11 9 -16 6 -6 -4 -8 -2
-4 4 3 6 2 13 -4 17 -5 3 -10 -1 -10 -9 0 -9 -4 -16 -10 -16 -5 0 -9 10 -7 21
1 12 -4 23 -11 25 -7 1 -8 0 -2 -3 7 -3 4 -11 -7 -20 -10 -8 -12 -12 -5 -8 14
7 17 -11 2 -20 -5 -3 -10 -1 -10 5 0 6 -4 9 -9 5 -5 -3 -13 0 -17 6 -4 7 -3 9
3 6 6 -4 13 0 17 8 3 8 1 17 -4 20 -5 3 -7 13 -4 23 5 13 4 14 -4 3 -5 -7 -15
-10 -21 -7 -6 4 -11 2 -11 -3 0 -6 -5 -11 -12 -11 -6 0 -2 10 10 23 l22 23
-33 -1 c-28 -1 -32 -4 -32 -27 -1 -15 3 -24 7 -22 4 3 8 -4 8 -15 0 -11 5 -23
10 -26 13 -8 13 -35 0 -35 -5 0 -9 3 -8 8 1 4 -1 17 -6 29 -9 27 -40 20 -31
-7 3 -9 -1 -23 -9 -29 -14 -12 -12 5 9 77 5 13 3 22 -4 22 -5 0 -8 -6 -5 -13
3 -8 -3 -13 -16 -13 -11 0 -20 3 -20 7 0 4 -21 6 -47 4 -27 -1 -42 0 -35 2 6
3 9 9 6 15 -4 6 2 5 15 -1 17 -10 21 -9 21 3 0 11 -9 14 -35 11 -30 -3 -33 -1
-20 12 8 8 19 12 24 8 12 -7 24 13 26 42 1 24 -16 36 -40 27 -18 -7 -49 22
-39 37 4 7 -1 7 -16 -1 -15 -8 -20 -8 -16 -1 4 6 0 11 -8 11 -9 0 -16 -6 -16
-12 0 -9 -4 -8 -10 2 -7 11 -10 11 -10 2 0 -7 -4 -10 -10 -7 -5 3 -10 2 -10
-4 0 -5 5 -13 10 -16 6 -4 7 -11 4 -17 -4 -7 -2 -8 5 -4 6 4 9 12 6 17 -3 5 1
6 9 3 18 -7 21 -20 7 -29 -5 -3 -8 -19 -6 -35 2 -16 0 -32 -4 -35 -5 -2 -9 1
-8 8 1 35 -4 57 -14 57 -6 0 -8 -7 -5 -16 3 -8 2 -13 -3 -10 -5 3 -14 -1 -21
-10 -11 -12 -15 -12 -21 -2 -6 8 -9 9 -9 2 0 -8 -11 -9 -36 -4 -29 7 -34 5
-30 -6 3 -8 -1 -14 -10 -14 -11 0 -12 5 -6 18 5 9 7 24 5 32 -3 10 0 9 7 -2
16 -27 33 -23 20 5 l-11 22 17 -22 c17 -24 44 -31 44 -12 0 5 -6 7 -12 3 -7
-4 -10 -4 -6 1 4 4 0 14 -10 22 -16 12 -16 13 2 6 15 -5 18 -3 13 10 -4 11 -2
14 9 10 11 -4 12 -9 3 -19 -6 -8 -9 -14 -5 -14 3 0 9 0 13 0 4 0 9 12 11 27 2
16 7 30 13 31 5 2 9 11 9 19 0 13 -3 13 -25 -1 -14 -9 -25 -13 -25 -10 0 4 -8
-3 -19 -15 -15 -18 -20 -19 -25 -6 -3 9 0 15 8 15 8 0 17 7 20 16 3 9 13 14
20 11 8 -3 17 0 19 8 8 18 -13 13 -50 -13 -17 -12 -36 -22 -43 -22 -7 0 -5 -6
4 -16 18 -17 21 -28 7 -19 -6 3 -15 -3 -21 -12 -10 -16 -11 -15 -6 5 4 20 2
21 -11 10 -13 -11 -17 -11 -21 0 -3 10 -7 10 -20 0 -13 -11 -15 -10 -10 9 4
14 1 24 -8 27 -8 3 -14 2 -14 -3 0 -5 -13 -8 -28 -8 -24 1 -28 5 -24 24 2 13
8 20 13 18 4 -3 7 -11 5 -18 -1 -7 -1 -9 1 -4 3 4 9 5 14 2 5 -4 6 2 2 11 -5
13 -3 15 8 10 8 -4 5 0 -5 8 -11 9 -16 16 -10 16 5 0 2 4 -6 10 -9 6 -17 5
-23 -3 -7 -9 -10 -9 -14 1 -10 24 -25 12 -19 -15 4 -19 4 -23 -3 -14 -11 17
-31 6 -31 -17 0 -14 2 -14 9 -3 7 11 10 9 16 -8 4 -13 4 -25 1 -28 -3 -4 -6
-1 -6 5 0 6 -7 9 -16 5 -15 -5 -14 -7 2 -17 11 -6 20 -22 22 -36 l2 -25 -13
23 c-7 12 -17 19 -22 15 -4 -4 -5 -2 -1 5 4 7 1 12 -8 12 -9 0 -16 5 -16 10 0
6 -4 10 -10 10 -5 0 -7 -8 -4 -17 5 -15 4 -15 -4 -3 -6 8 -8 18 -6 22 3 5 -2
15 -11 24 -9 10 -12 21 -7 28 18 24 8 51 -22 54 -16 2 -26 0 -22 -6 3 -6 15
-8 25 -5 16 4 20 0 18 -16 -1 -15 -6 -20 -17 -15 -35 15 -70 14 -70 -2 0 -10
6 -14 14 -11 9 4 17 -2 21 -14 4 -10 11 -19 16 -19 6 0 8 -4 4 -9 -3 -5 0 -13
6 -16 21 -13 21 5 0 40 -11 20 -16 33 -11 30 6 -3 17 -19 25 -35 12 -23 13
-35 3 -57 -6 -15 -11 -31 -10 -35 1 -5 -5 -8 -13 -8 -9 0 -12 6 -9 15 4 8 11
15 16 15 5 0 8 5 6 11 -4 13 -23 13 -24 -1 -1 -5 -2 -14 -3 -20 0 -5 -8 -10
-16 -10 -7 0 -19 -8 -25 -17 -11 -17 -11 -17 -6 0 3 9 1 17 -4 17 -6 0 -10 -5
-10 -11 0 -5 -4 -7 -10 -4 -5 3 -10 11 -10 16 0 6 5 7 10 4 6 -3 10 -1 10 4 0
6 -5 11 -11 11 -5 0 -7 5 -3 12 5 8 11 6 19 -6 15 -19 49 -11 41 11 -3 8 -1
11 4 8 6 -3 10 1 10 9 0 21 -26 20 -34 0 -4 -9 -9 -14 -13 -11 -3 4 0 13 7 22
8 10 9 15 1 15 -6 0 -14 0 -18 0 -5 0 -9 -4 -9 -10 -3 -24 -6 -24 -15 -1 -7
19 -12 22 -21 13 -19 -19 -30 -14 -23 11 7 22 7 22 -8 2 -8 -11 -13 -23 -11
-27 3 -5 -4 -8 -16 -8 -12 0 -19 4 -15 9 3 5 0 13 -6 17 -8 4 -9 3 -5 -4 4 -7
1 -12 -6 -13 -10 0 -10 -2 0 -6 6 -2 12 -9 12 -14 0 -11 -30 0 -54 20 -14 12
-20 13 -23 3 -3 -6 -10 -9 -15 -6 -6 4 -8 2 -4 -4 3 -6 2 -13 -4 -17 -6 -4 -8
-11 -4 -16 3 -5 11 -6 17 -2 7 4 7 0 -1 -10 -12 -14 -11 -16 8 -12 13 2 20 1
16 -2 -3 -4 4 -18 16 -32 20 -22 20 -23 2 -8 -24 20 -38 22 -29 5 4 -7 -7 3
-24 22 -26 30 -30 32 -26 13 2 -14 -1 -22 -8 -20 -7 1 -11 -3 -10 -9 1 -7 -7
-20 -18 -30 -18 -16 -19 -16 -13 -1 3 9 11 17 18 17 6 0 4 5 -4 10 -12 7 -12
10 -1 10 7 0 11 6 8 14 -4 10 -1 13 9 9 19 -7 8 24 -19 52 -18 20 -18 20 -8
-6 9 -24 8 -26 -10 -22 -11 3 -19 0 -19 -6 0 -7 4 -10 9 -6 5 3 13 0 17 -6 4
-8 3 -9 -4 -5 -7 4 -12 1 -13 -6 0 -7 -9 5 -20 27 -10 22 -19 34 -19 27 0 -7
-4 -10 -10 -7 -5 3 -10 -3 -10 -14 0 -12 7 -21 16 -21 8 0 13 -4 10 -9 -4 -5
-1 -11 6 -13 7 -3 8 -9 3 -17 -6 -10 -11 -8 -21 10 l-13 24 3 -25 c5 -42 18
-80 25 -76 4 3 7 -5 8 -17 0 -12 -1 -16 -4 -9 -3 6 -10 9 -15 6 -7 -4 -8 -2
-4 4 5 8 -1 12 -15 12 -18 0 -20 -3 -11 -12 7 -7 12 -17 12 -23 0 -5 -4 -4 -9
4 -5 8 -17 16 -26 17 -13 2 -14 0 -4 -12 16 -20 5 -29 -13 -11 -13 13 -16 13
-25 -2 -6 -9 -25 -25 -43 -35 -18 -10 -30 -14 -26 -8 3 6 1 12 -6 14 -10 4
-10 10 -1 30 12 26 8 38 -11 38 -6 0 -4 -5 4 -10 12 -8 10 -10 -8 -10 -13 0
-21 4 -18 8 3 5 0 9 -7 9 -7 0 -12 -13 -13 -28 -1 -24 1 -26 13 -13 18 18 23
18 23 -2 0 -8 -4 -12 -10 -9 -5 3 -10 2 -10 -3 0 -6 7 -13 16 -16 15 -6 14 -9
-6 -31 -14 -15 -20 -30 -16 -41 5 -13 4 -14 -7 -6 -11 9 -13 7 -13 -11 1 -19
-4 -22 -34 -23 -27 0 -35 -5 -36 -20 -2 -34 -4 -35 -33 -18 -26 15 -27 18 -12
34 9 9 19 15 23 13 4 -2 5 5 3 16 -3 14 2 19 16 18 10 -1 19 -7 19 -14 0 -10
4 -11 19 -1 16 10 17 14 5 25 -16 17 -19 27 -4 18 6 -3 10 -1 10 4 0 6 -9 11
-20 11 -14 0 -18 5 -13 18 6 14 4 15 -9 4 -8 -7 -24 -9 -34 -6 -17 6 -17 5 1
-9 11 -9 26 -17 33 -17 14 0 16 -16 2 -25 -5 -3 -18 3 -29 14 -11 11 -23 16
-26 11 -4 -6 -3 -10 2 -10 4 0 9 -11 9 -25 1 -14 -2 -22 -7 -19 -5 3 -8 0 -7
-8 2 -7 -2 -12 -9 -11 -6 1 -10 -5 -8 -15 1 -9 -4 -25 -13 -34 -17 -20 -10
-23 19 -8 13 7 19 7 19 0 0 -5 -6 -10 -12 -10 -9 0 -9 -3 1 -9 10 -7 7 -9 -12
-8 -15 1 -27 6 -27 10 0 5 -4 6 -8 3 -5 -3 -19 4 -31 15 -21 19 -22 20 -19 3
5 -30 25 -45 52 -40 14 3 28 0 31 -5 4 -5 -3 -9 -14 -9 -18 0 -25 -9 -23 -31
1 -3 -10 -11 -23 -17 -21 -10 -25 -9 -25 4 0 8 4 13 9 9 6 -3 15 4 21 15 6 12
7 20 1 20 -5 0 -12 -6 -14 -12 -3 -7 -6 -3 -6 9 -1 13 -7 22 -13 20 -7 -1 -12
6 -10 16 3 19 -14 23 -21 5 -3 -7 -6 -1 -6 14 -1 40 -31 29 -47 -17 -9 -27
-10 -44 -3 -57 12 -23 -1 -43 -32 -51 -16 -4 -18 -3 -9 9 9 10 3 9 -21 -3 -19
-9 -37 -21 -41 -27 -5 -8 -8 -7 -8 1 0 6 -8 10 -17 8 -10 -2 -25 -4 -33 -5
-11 -1 -11 -3 -2 -7 6 -2 9 -9 6 -15 -4 -5 -13 -3 -24 7 -15 14 -18 14 -30 0
-10 -12 -10 -15 4 -16 32 -3 36 -4 37 -14 0 -5 -10 -13 -23 -17 -17 -4 -18 -6
-5 -7 17 -1 15 -21 -3 -21 -14 0 -21 33 -8 42 10 6 8 8 -4 8 -19 0 -23 11 -10
24 4 4 8 12 8 17 1 5 2 12 3 15 0 4 8 1 16 -6 8 -7 15 -8 15 -2 0 5 -7 15 -15
22 -13 11 -13 15 -3 21 7 5 8 9 3 9 -6 0 -11 8 -11 19 0 10 5 17 11 15 13 -5
14 84 1 104 -4 6 -4 17 -1 22 3 6 0 10 -7 11 -10 0 -10 2 0 6 6 2 12 15 12 27
0 13 3 26 7 30 4 3 8 17 10 29 2 12 6 29 9 37 4 13 6 13 15 0 7 -11 9 -7 8 15
-2 33 61 171 95 208 11 13 30 40 41 61 29 56 154 196 243 272 217 188 473 304
731 334 97 11 275 5 366 -13z m-475 -707 c0 -5 -7 -7 -15 -4 -8 4 -15 8 -15
10 0 2 7 4 15 4 8 0 15 -4 15 -10z m338 -7 c-10 -3 -18 -9 -18 -14 0 -5 -5 -9
-11 -9 -5 0 -7 5 -3 12 5 8 0 9 -14 6 -12 -4 -20 -3 -17 2 3 4 22 8 42 7 21 0
30 -2 21 -4z m-443 -13 c3 -5 1 -10 -4 -10 -6 0 -11 5 -11 10 0 6 2 10 4 10 3
0 8 -4 11 -10z m38 -11 c-6 -6 -9 -18 -6 -25 3 -8 0 -14 -5 -14 -6 0 -13 -10
-16 -22 -3 -17 0 46 3 70 1 2 6 0 11 -3 6 -3 10 -1 10 6 0 7 3 9 7 6 4 -4 2
-12 -4 -18z m53 9 c4 -7 3 -8 -4 -4 -7 4 -12 2 -12 -5 0 -7 -3 -10 -6 -6 -6 5
3 27 11 27 2 0 7 -5 11 -12z m669 -27 c-6 -5 -25 10 -25 20 0 5 6 4 14 -3 8
-7 12 -15 11 -17z m-362 6 c3 -8 -1 -14 -9 -14 -15 0 -18 9 -7 20 9 9 10 9 16
-6z m104 -7 c4 -12 3 -13 -5 -1 -6 8 -17 11 -27 8 -10 -4 -14 -3 -10 4 9 14
37 7 42 -11z m-422 -9 l-20 -8 20 -4 c12 -3 16 -7 9 -11 -6 -4 -19 0 -27 10
-15 16 -14 18 11 19 23 1 24 0 7 -6z m133 -18 c2 -7 -1 -13 -8 -13 -6 0 -9 4
-5 9 3 5 -3 12 -12 15 -15 4 -15 5 1 3 11 -1 21 -8 24 -14z m272 11 c0 -8 -19
-13 -24 -6 -3 5 1 9 9 9 8 0 15 -2 15 -3z m42 -16 c-3 -12 -7 -17 -10 -10 -2
6 -8 12 -13 12 -6 0 -7 -4 -4 -10 3 -5 4 -10 1 -10 -17 0 -13 22 6 29 13 6 24
10 25 10 0 1 -1 -9 -5 -21z m-389 -7 c-4 -3 -11 -10 -15 -15 -4 -4 -6 1 -5 12
1 12 6 18 15 15 7 -3 10 -9 5 -12z m214 -13 c-3 -7 -5 -2 -5 12 0 14 2 19 5
13 2 -7 2 -19 0 -25z m-299 -3 c-3 -3 -9 2 -12 12 -6 14 -5 15 5 6 7 -7 10
-15 7 -18z m104 -2 c-6 -3 -9 -10 -6 -16 4 -7 1 -7 -7 1 -12 11 -12 14 1 22 8
5 17 6 20 3 3 -3 -1 -8 -8 -10z m441 -2 c3 -11 -1 -22 -7 -24 -7 -3 -13 5 -14
19 -2 29 14 32 21 5z m157 9 c0 -5 -5 -10 -11 -10 -5 0 -7 5 -4 10 3 6 8 10
11 10 2 0 4 -4 4 -10z m-790 -21 c0 -18 -2 -19 -15 -5 -8 8 -15 17 -15 20 0 3
7 6 15 6 9 0 15 -9 15 -21z m304 13 c3 -5 -1 -9 -9 -9 -8 0 -12 4 -9 9 3 4 7
8 9 8 2 0 6 -4 9 -8z m-342 -23 c16 -17 15 -18 -9 -16 -15 1 -27 9 -28 18 -3
21 16 19 37 -2z m110 3 c4 -12 -1 -18 -13 -18 -21 0 -26 22 -6 29 6 3 13 6 13
6 1 1 4 -7 6 -17z m458 14 c0 -2 -8 -10 -17 -17 -16 -13 -17 -12 -4 4 13 16
21 21 21 13z m-190 -16 c0 -5 -2 -10 -4 -10 -3 0 -8 5 -11 10 -3 6 -1 10 4 10
6 0 11 -4 11 -10z m435 -9 c3 -5 2 -12 -3 -15 -5 -3 -9 1 -9 9 0 17 3 19 12 6z
m-101 -13 c-3 -4 -9 -8 -15 -8 -5 0 -9 4 -9 8 0 5 7 9 15 9 8 0 12 -4 9 -9z
m400 4 c3 -5 -1 -9 -9 -9 -8 0 -12 4 -9 9 3 4 7 8 9 8 2 0 6 -4 9 -8z m659
-112 c38 -111 68 -270 74 -395 3 -60 3 -107 -1 -104 -4 3 -11 46 -17 95 -13
119 -44 279 -75 389 -14 50 -28 101 -30 115 l-5 25 14 -25 c8 -14 26 -59 40
-100z m-12463 91 c0 -6 -4 -13 -10 -16 -5 -3 -10 1 -10 9 0 9 5 16 10 16 6 0
10 -4 10 -9z m10820 -1 c-8 -5 -19 -10 -25 -10 -5 0 -3 5 5 10 8 5 20 10 25
10 6 0 3 -5 -5 -10z m413 -15 c-3 -9 -8 -14 -10 -11 -3 3 -2 9 2 15 9 16 15
13 8 -4z m-453 -4 c0 -5 -7 -12 -16 -15 -14 -5 -15 -4 -4 9 14 17 20 19 20 6z
m954 -6 c3 -8 1 -15 -3 -15 -5 0 -11 7 -15 15 -3 8 -1 15 3 15 5 0 11 -7 15
-15z m54 -7 c-2 -7 2 -12 8 -11 6 1 11 -5 11 -13 0 -12 -4 -11 -18 2 -10 9
-16 21 -13 25 8 13 14 11 12 -3z m-1276 -26 c-7 -2 -9 -9 -5 -15 4 -7 -1 -6
-10 2 -18 15 -23 26 -7 16 6 -3 10 -1 10 5 0 6 5 8 12 4 9 -6 9 -9 0 -12z
m298 14 c0 -3 -4 -8 -10 -11 -5 -3 -10 -1 -10 4 0 6 5 11 10 11 6 0 10 -2 10
-4z m763 -11 c-3 -9 -8 -14 -10 -11 -3 3 -2 9 2 15 9 16 15 13 8 -4z m-303
-17 c9 -20 9 -21 -2 -7 -7 9 -20 14 -28 12 -13 -4 -13 -3 0 6 19 14 18 14 30
-11z m-841 -29 c-8 -4 -16 -4 -19 2 -4 5 -14 2 -26 -7 -10 -8 -14 -13 -7 -10
6 4 15 2 18 -4 5 -8 11 -8 20 0 10 8 15 8 20 -1 4 -6 1 -15 -6 -20 -13 -8 -12
-10 11 -13 5 0 14 -6 20 -11 7 -8 3 -11 -14 -11 -14 0 -22 4 -20 8 3 5 -6 7
-20 4 -16 -3 -24 -1 -20 5 3 6 -4 21 -17 35 -18 19 -21 31 -6 23 1 -1 18 8 37
20 31 19 35 19 38 5 2 -9 -2 -20 -9 -25z m52 24 c13 -16 12 -17 -3 -4 -10 7
-18 15 -18 17 0 8 8 3 21 -13z m384 7 c3 -6 -1 -7 -9 -4 -18 7 -21 14 -7 14 6
0 13 -4 16 -10z m791 -2 c4 -7 4 -10 -1 -6 -4 4 -15 2 -24 -5 -14 -11 -14 -10
-2 6 16 20 18 21 27 5z m204 8 c0 -2 -7 -7 -16 -10 -8 -3 -12 -2 -9 4 6 10 25
14 25 6z m-663 -38 c-3 -7 -5 -2 -5 12 0 14 2 19 5 13 2 -7 2 -19 0 -25z m241
7 c-3 -3 -9 2 -12 12 -6 14 -5 15 5 6 7 -7 10 -15 7 -18z m262 10 c7 -9 8 -15
2 -15 -5 0 -12 7 -16 15 -3 8 -4 15 -2 15 2 0 9 -7 16 -15z m-996 -4 c3 -5 -1
-11 -9 -14 -9 -4 -12 -1 -8 9 6 16 10 17 17 5z m536 5 c0 -2 -8 -10 -17 -17
-16 -13 -17 -12 -4 4 13 16 21 21 21 13z m114 -34 c2 -4 0 -14 -5 -22 -8 -12
-9 -11 -7 5 2 16 -2 20 -24 18 -16 -1 -28 3 -28 8 0 6 5 7 10 4 6 -3 10 -1 10
5 0 11 34 -3 44 -18z m120 12 c5 -14 4 -15 -9 -4 -17 14 -19 20 -6 20 5 0 12
-7 15 -16z m-894 2 c0 -3 -4 -8 -10 -11 -5 -3 -10 -1 -10 4 0 6 5 11 10 11 6
0 10 -2 10 -4z m1330 -6 c0 -5 -8 -10 -17 -10 -15 0 -16 2 -3 10 19 12 20 12
20 0z m-240 -15 c0 -8 -4 -15 -10 -15 -5 0 -7 7 -4 15 4 8 8 15 10 15 2 0 4
-7 4 -15z m470 4 c-20 -8 -22 -12 -10 -19 8 -5 10 -10 4 -10 -18 0 -24 13 -13
27 6 7 19 13 28 12 10 0 6 -4 -9 -10z m104 -41 c-3 -4 0 -8 5 -8 6 0 11 -4 11
-8 0 -5 -7 -9 -15 -9 -8 0 -13 3 -10 5 3 3 0 10 -5 17 -7 8 -5 12 5 12 8 0 12
-4 9 -9z m-804 -2 c0 -2 -7 -7 -16 -10 -8 -3 -12 -2 -9 4 6 10 25 14 25 6z
m619 -9 c-2 -1 -13 -9 -24 -17 -19 -14 -19 -14 -6 3 7 9 18 17 24 17 6 0 8 -1
6 -3z m-229 -58 c0 -5 -4 -9 -8 -9 -5 0 -9 7 -9 15 0 8 4 12 9 9 4 -3 8 -9 8
-15z m-10777 5 c9 -9 -16 -32 -30 -27 -7 3 -10 -3 -6 -16 5 -20 -6 -28 -20
-15 -10 10 12 44 29 44 8 0 12 5 9 10 -7 11 8 14 18 4z m9437 2 c0 -2 -8 -10
-17 -17 -16 -13 -17 -12 -4 4 13 16 21 21 21 13z m-9370 -17 c0 -5 6 -6 14 -3
8 3 16 2 19 -3 3 -5 -2 -9 -11 -9 -9 -1 -25 -4 -34 -9 -14 -5 -18 -2 -18 12 0
11 7 20 15 20 8 0 15 -4 15 -8z m86 3 c-2 -4 4 -13 15 -20 14 -9 19 -9 19 0 0
6 3 8 7 4 5 -4 -1 -14 -11 -22 -25 -18 -40 -18 -33 1 4 8 2 17 -3 20 -6 4 -10
1 -10 -6 0 -7 -3 -9 -6 -6 -4 4 -1 13 6 22 13 16 25 21 16 7z m-266 -7 c0 -2
-6 -8 -13 -14 -10 -8 -14 -7 -14 2 0 8 6 14 14 14 7 0 13 -1 13 -2z m9387 -17
c-3 -8 -6 -5 -6 6 -1 11 2 17 5 13 3 -3 4 -12 1 -19z m-9037 -31 c0 -4 -4 -6
-9 -3 -5 4 -12 0 -15 -6 -2 -7 -4 2 -3 20 1 30 3 31 14 16 7 -10 13 -22 13
-27z m8771 19 c5 3 6 11 3 17 -5 9 -4 9 6 1 9 -10 8 -16 -9 -33 -12 -12 -19
-26 -16 -31 3 -5 0 -12 -5 -15 -8 -5 -5 -14 7 -28 10 -11 12 -17 5 -13 -8 5
-21 1 -33 -10 -29 -26 -33 -12 -9 34 17 32 19 45 10 61 -7 14 -7 21 0 21 5 0
10 -7 10 -16 0 -8 4 -13 9 -10 5 3 8 14 6 24 -1 9 0 11 2 4 3 -7 9 -10 14 -6z
m162 9 c-3 -9 -8 -14 -10 -11 -3 3 -2 9 2 15 9 16 15 13 8 -4z m-9353 1 c0 -3
-4 -8 -10 -11 -5 -3 -10 -1 -10 4 0 6 5 11 10 11 6 0 10 -2 10 -4z m455 -16
c3 -5 1 -10 -4 -10 -6 0 -11 5 -11 10 0 6 2 10 4 10 3 0 8 -4 11 -10z m-755
-29 c-5 -10 -7 -20 -5 -23 2 -2 -5 -4 -15 -5 -11 -1 -22 3 -26 8 -3 6 2 9 11
7 10 -2 20 3 23 11 3 10 0 11 -9 5 -12 -7 -12 -5 0 9 17 22 34 12 21 -12z
m460 -15 c0 -5 -8 -2 -18 7 -10 10 -21 15 -24 12 -3 -3 -8 1 -12 10 -5 14 -2
14 24 -2 17 -9 30 -22 30 -27z m25 26 c-3 -3 -11 0 -18 7 -9 10 -8 11 6 5 10
-3 15 -9 12 -12z m9142 12 c-3 -3 -12 -4 -19 -1 -8 3 -5 6 6 6 11 1 17 -2 13
-5z m-9384 -31 c-4 -11 -8 -13 -11 -5 -2 7 -9 9 -15 5 -7 -4 -6 1 2 10 16 20
33 13 24 -10z m9281 -16 c6 -26 5 -27 -21 -21 -36 9 -42 14 -15 14 13 0 22 6
22 15 0 8 -5 15 -11 15 -5 0 -7 5 -3 11 8 14 20 1 28 -34z m1580 28 c3 -8 1
-15 -4 -15 -6 0 -10 7 -10 15 0 8 2 15 4 15 2 0 6 -7 10 -15z m-10488 -8 c10
4 12 0 8 -11 -8 -20 -7 -20 -30 7 -10 12 -12 17 -5 10 7 -6 20 -9 27 -6z
m-850 -12 c-3 -9 0 -15 8 -15 8 0 16 6 18 12 4 10 10 10 32 0 26 -12 28 -32 3
-32 -8 0 -8 3 1 9 11 7 11 9 0 13 -20 7 -39 -2 -31 -15 3 -7 2 -9 -2 -4 -5 4
-18 -1 -29 -10 -20 -17 -20 -17 -7 0 13 17 12 18 -14 11 -21 -5 -26 -4 -23 7
3 8 11 13 17 11 6 -1 14 5 17 13 4 8 8 15 11 15 3 0 3 -7 -1 -15z m715 -8
c-10 -9 -11 -8 -5 6 3 10 9 15 12 12 3 -3 0 -11 -7 -18z m193 11 c-5 -8 -1 -9
12 -4 14 5 16 4 7 -5 -13 -13 -37 -3 -28 12 4 5 8 9 11 9 3 0 2 -5 -2 -12z
m-734 -8 c0 -5 11 -12 24 -16 28 -7 41 -30 21 -38 -9 -3 -12 0 -9 8 4 10 -2
12 -22 8 -19 -3 -25 -1 -20 7 4 7 2 18 -4 26 -9 11 -9 15 -1 15 6 0 11 -4 11
-10z m10457 -16 c-3 -3 -12 -4 -19 -1 -8 3 -5 6 6 6 11 1 17 -2 13 -5z m-9683
-15 c3 -3 -4 -5 -14 -6 -11 -1 -22 2 -24 6 -5 8 30 8 38 0z m8666 7 c0 -2 -7
-7 -16 -10 -8 -3 -12 -2 -9 4 6 10 25 14 25 6z m210 -8 c0 -4 -6 -8 -14 -8 -8
0 -17 4 -20 8 -2 4 4 8 15 8 10 0 19 -4 19 -8z m-9345 -8 c-3 -5 -12 -10 -18
-10 -7 0 -6 4 3 10 19 12 23 12 15 0z m355 6 c0 -3 -4 -8 -10 -11 -5 -3 -10
-1 -10 4 0 6 5 11 10 11 6 0 10 -2 10 -4z m8744 -27 c6 9 12 9 24 -1 10 -8 13
-9 9 -1 -4 6 -3 14 2 17 5 3 11 -5 13 -17 4 -20 1 -23 -20 -19 -19 4 -23 2
-17 -9 7 -12 6 -11 -9 0 -11 9 -20 11 -24 5 -4 -6 -14 -3 -24 8 -15 15 -15 18
-3 18 9 0 12 6 9 18 -4 11 0 9 14 -7 13 -16 21 -20 26 -12z m-9514 -28 c0 -14
2 -14 11 -1 9 13 10 13 6 -2 -4 -9 1 -19 10 -22 12 -5 14 -1 10 14 -3 11 0 23
5 27 6 3 8 1 5 -4 -4 -6 0 -16 8 -23 13 -11 14 -10 9 6 -4 10 -4 16 1 12 4 -4
8 -20 10 -36 l2 -29 -31 15 c-17 8 -43 29 -58 46 -21 23 -28 27 -28 14 0 -11
-5 -15 -15 -12 -11 5 -12 10 -3 24 11 16 14 17 35 3 13 -8 23 -23 23 -32z
m-280 17 c0 -5 -10 -7 -22 -4 -13 3 -17 3 -10 0 6 -3 12 -10 12 -15 0 -6 -4
-8 -9 -5 -5 4 -6 -4 -3 -16 4 -16 7 -18 9 -8 4 17 43 45 43 31 0 -5 -7 -11
-15 -15 -8 -3 -15 -10 -15 -16 0 -6 5 -8 12 -4 7 5 8 3 4 -5 -5 -7 -11 -10
-14 -7 -3 3 -14 -1 -24 -11 -17 -15 -17 -18 -2 -34 14 -16 14 -17 -3 -15 -10
2 -21 -2 -25 -8 -5 -7 -8 -4 -8 7 0 9 4 17 8 17 5 0 9 7 9 15 0 11 -4 12 -14
4 -8 -7 -13 -8 -13 -1 0 14 26 33 34 25 4 -4 3 4 -1 17 -7 22 -8 38 -4 61 2
10 51 -2 51 -13z m188 9 c8 -10 6 -13 -7 -13 -11 0 -17 6 -14 13 3 7 6 13 8
13 1 0 7 -6 13 -13z m195 -2 c-3 -9 -8 -14 -10 -11 -3 3 -2 9 2 15 9 16 15 13
8 -4z m680 -10 c-3 -9 -8 -14 -10 -11 -3 3 -2 9 2 15 9 16 15 13 8 -4z m-640
-12 c-3 -7 -6 -13 -8 -13 -2 0 -5 6 -8 13 -3 8 1 14 8 14 7 0 11 -6 8 -14z
m802 7 c-3 -5 -12 -10 -18 -10 -7 0 -6 4 3 10 19 12 23 12 15 0z m9116 -7 c13
-16 12 -17 -3 -4 -17 13 -22 21 -14 21 2 0 10 -8 17 -17z m-10221 -8 c0 -8 -4
-15 -10 -15 -5 0 -7 7 -4 15 4 8 8 15 10 15 2 0 4 -7 4 -15z m995 5 c3 -5 1
-10 -4 -10 -6 0 -11 5 -11 10 0 6 2 10 4 10 3 0 8 -4 11 -10z m929 -54 c9 -27
16 -63 16 -79 l0 -29 178 7 c342 13 1360 55 1609 66 340 16 426 3 543 -83 56
-42 130 -140 137 -183 2 -11 6 -27 10 -35 3 -8 7 -19 8 -25 2 -5 4 -17 6 -25
2 -8 0 -14 -6 -15 -18 -1 -55 -30 -55 -42 0 -17 -22 -17 -40 0 -12 10 -12 9
-1 -5 15 -21 2 -24 -18 -5 -11 10 -13 10 -7 0 5 -8 1 -13 -9 -13 -10 0 -13 5
-9 12 4 7 3 8 -5 4 -9 -6 -9 -12 1 -24 11 -15 10 -15 -14 1 -30 19 -53 23 -43
7 4 -6 11 -7 17 -4 7 4 8 2 4 -5 -12 -19 -35 6 -31 32 4 20 3 21 -9 5 -7 -10
-18 -18 -23 -18 -6 0 -9 -11 -8 -25 2 -14 -1 -23 -6 -19 -5 3 -7 10 -4 15 4 5
1 17 -4 26 -8 15 -11 15 -12 3 -1 -8 -1 -18 -1 -21 1 -4 -8 -5 -18 -2 -11 3
-20 9 -20 14 0 5 7 5 17 2 10 -4 14 -2 10 4 -4 7 -23 9 -47 6 -27 -4 -40 -2
-40 6 0 8 -6 6 -16 -4 -14 -13 -19 -14 -25 -3 -7 10 -9 10 -9 0 0 -15 -23 -11
-30 6 -4 10 -12 8 -32 -7 -14 -12 -31 -21 -37 -21 -6 0 -8 -8 -5 -17 4 -14 3
-13 -7 2 -7 11 -13 29 -14 39 -1 11 -7 21 -14 22 -6 1 -7 0 -2 -2 18 -9 -8
-53 -32 -54 -4 0 -12 10 -17 23 -5 12 -9 16 -9 9 -1 -7 -5 -10 -11 -7 -5 3
-10 3 -11 -2 0 -4 -2 -16 -4 -25 -2 -10 1 -18 7 -18 6 0 8 7 4 15 -3 8 -1 15
5 15 14 0 39 -26 39 -39 0 -15 17 -14 23 2 3 6 5 2 4 -9 -1 -19 -4 -20 -24
-11 -13 6 -23 14 -23 19 0 5 -11 6 -25 2 -18 -4 -27 -1 -31 10 -3 9 -11 13
-16 10 -6 -4 -5 -10 3 -15 11 -7 11 -9 -2 -9 -9 0 -20 7 -23 16 -5 14 -9 14
-22 3 -8 -7 -26 -13 -39 -14 -21 0 -24 3 -20 24 3 16 1 21 -6 14 -5 -5 -11
-20 -12 -32 -1 -11 -5 -21 -10 -21 -4 0 -5 -6 -1 -12 4 -7 -4 -3 -17 8 -13 12
-30 19 -36 17 -7 -3 -13 0 -13 6 0 17 38 13 48 -5 8 -15 10 -14 14 2 4 16 -2
19 -32 22 -27 2 -39 -2 -44 -13 -3 -9 -11 -13 -17 -9 -8 4 -9 3 -5 -4 3 -6 -2
-16 -13 -21 -15 -9 -22 -6 -34 12 l-15 22 1 -22 c1 -12 5 -19 9 -17 4 3 8 -1
8 -9 0 -10 -7 -13 -21 -10 -16 5 -19 11 -15 32 l5 26 -11 -24 c-10 -20 -9 -25
7 -37 10 -8 14 -14 8 -14 -7 0 -15 5 -18 10 -4 6 -11 8 -16 4 -5 -3 -8 -2 -7
3 2 4 0 8 -4 8 -4 0 -14 9 -23 20 l-15 20 6 -20 c5 -19 5 -19 -6 -1 -10 14
-10 20 0 26 8 5 3 9 -13 12 -14 3 -24 0 -24 -6 1 -34 -5 -46 -20 -45 -11 0
-13 3 -5 6 6 2 12 11 12 19 0 8 -6 11 -15 8 -11 -5 -14 -2 -9 12 8 20 6 19
-16 -10 -12 -16 -12 -18 -1 -11 9 5 12 4 7 -3 -5 -9 -12 -8 -28 1 -16 9 -22 9
-25 0 -4 -10 -8 -9 -19 1 -20 21 -18 23 20 21 19 0 32 3 30 7 -3 5 -17 8 -32
7 -15 0 -37 2 -49 6 -17 5 -23 3 -23 -8 0 -8 6 -18 13 -20 7 -4 6 -6 -5 -6 -9
-1 -18 -7 -21 -13 -3 -10 -8 -10 -18 1 -9 9 -9 11 -1 7 8 -5 12 0 12 13 0 12
0 24 1 28 0 4 -5 9 -13 11 -10 3 -10 1 -1 -5 10 -7 7 -13 -8 -27 -16 -13 -24
-15 -35 -5 -14 11 -20 1 -14 -26 1 -5 -7 -2 -18 8 -20 19 -37 23 -27 7 3 -6
-1 -7 -10 -4 -11 5 -14 2 -9 -12 5 -18 5 -18 -6 -1 -6 9 -15 15 -21 12 -14 -9
-11 -27 4 -19 9 5 9 4 0 -6 -15 -16 -32 -5 -30 19 1 13 9 19 26 19 14 0 27 5
29 11 2 6 8 8 14 5 6 -4 5 2 -1 15 -13 24 -23 28 -15 6 8 -20 -25 -32 -37 -14
-7 11 -9 11 -9 1 0 -7 -4 -11 -9 -8 -4 3 -8 -4 -7 -17 1 -13 -4 -21 -11 -20
-7 2 -13 -4 -13 -13 0 -8 4 -13 9 -9 5 3 13 1 16 -5 4 -6 3 -10 -2 -9 -19 3
-34 -2 -28 -10 3 -5 0 -13 -7 -17 -7 -4 -10 -4 -6 1 4 4 0 13 -9 20 -13 9 -13
14 -3 20 9 5 11 4 6 -3 -4 -7 -2 -12 3 -12 15 0 14 30 -1 30 -8 0 -5 7 6 15
13 10 15 15 6 15 -7 0 -22 8 -32 17 -18 16 -19 16 -8 -11 6 -16 8 -31 5 -34
-3 -3 -5 0 -5 7 0 7 -5 9 -10 6 -6 -4 -7 -11 -4 -17 5 -7 2 -8 -5 -3 -9 5 -10
10 -2 18 15 15 14 24 -4 24 -8 0 -15 -8 -15 -18 0 -10 -5 -21 -12 -25 -8 -5
-9 -1 -5 12 7 18 6 18 -9 -1 -16 -19 -16 -19 -10 10 5 28 5 28 -6 7 -7 -13
-17 -21 -26 -17 -7 3 -18 5 -23 5 -6 0 -7 5 -4 10 3 6 1 10 -4 10 -6 0 -11 -6
-12 -12 0 -10 -2 -10 -6 0 -4 10 -10 9 -25 -5 -11 -10 -23 -17 -27 -15 -3 1
-6 -2 -6 -7 0 -5 -3 -12 -6 -15 -10 -10 -7 28 3 41 5 6 17 9 26 6 14 -4 15 -3
2 5 -10 8 -18 8 -27 0 -17 -13 -17 4 0 22 6 7 0 5 -15 -6 -21 -15 -24 -22 -15
-34 7 -8 0 -5 -16 7 -15 12 -39 20 -52 18 -16 -1 -25 3 -25 11 0 8 -5 14 -11
14 -6 0 -9 -7 -5 -15 4 -13 2 -13 -14 -5 -26 14 -30 13 -30 -11 0 -11 -4 -18
-10 -14 -5 3 -7 13 -4 23 5 15 4 15 -6 -1 -6 -9 -15 -15 -21 -12 -5 4 -9 1 -9
-4 0 -6 -7 -11 -15 -11 -8 0 -15 -5 -15 -12 0 -6 -3 -8 -6 -5 -4 4 -1 13 5 21
10 12 9 14 -8 9 -12 -3 -21 -9 -21 -14 0 -5 -4 -9 -10 -9 -5 0 -6 7 -3 17 5
12 3 14 -8 9 -8 -4 -5 0 5 8 12 9 22 12 26 7 3 -6 11 -6 20 -1 13 8 12 10 -2
10 -10 0 -18 6 -19 13 0 10 -2 10 -6 0 -2 -7 -11 -13 -18 -13 -16 0 -28 -28
-18 -42 4 -7 1 -8 -8 -2 -8 5 -23 8 -34 7 -16 -1 -16 -1 -2 3 27 9 20 24 -13
25 -16 1 -39 3 -50 4 -11 1 -25 3 -31 4 -5 0 -8 5 -4 10 3 5 0 13 -7 17 -7 4
-10 4 -6 -1 4 -4 3 -16 -3 -26 -8 -15 -6 -18 8 -13 10 2 8 -1 -4 -7 -13 -7
-23 -16 -23 -22 0 -5 -7 -4 -15 3 -8 7 -15 23 -15 37 0 14 -4 21 -10 18 -5 -3
-10 0 -10 7 0 8 -3 9 -8 3 -4 -6 -18 -12 -32 -13 -19 -1 -21 1 -10 8 8 5 13
10 10 11 -32 5 -53 7 -42 3 20 -9 14 -21 -14 -28 -18 -5 -24 -12 -20 -22 4
-10 1 -14 -6 -12 -7 3 -14 19 -16 37 -2 20 0 31 7 27 5 -4 3 7 -5 24 -12 22
-16 75 -19 202 -2 111 -9 194 -19 232 -17 69 -6 63 18 -8z m7738 44 c8 12 8
10 3 -5 -4 -11 -8 -26 -8 -32 -1 -22 -17 -14 -17 8 0 11 -5 17 -10 14 -6 -4
-7 -11 -4 -17 5 -7 2 -8 -5 -3 -7 4 -22 -2 -37 -16 l-24 -22 0 22 c0 12 4 20
10 16 10 -6 50 15 50 28 0 4 -4 5 -10 2 -6 -3 -7 1 -4 10 6 14 8 14 26 -2 17
-15 21 -15 30 -3z m215 14 c-3 -3 -12 -4 -19 -1 -8 3 -5 6 6 6 11 1 17 -2 13
-5z m97 -48 c10 1 15 0 12 -3 -3 -3 -1 -15 5 -27 10 -21 10 -21 -6 -1 -9 11
-23 19 -31 17 -9 -2 -18 6 -21 17 -3 12 -9 21 -14 21 -5 0 -9 6 -9 13 0 6 11
0 23 -14 13 -14 31 -25 41 -23z m-8828 7 c-6 -6 -36 9 -36 18 0 5 9 4 20 -3
10 -7 18 -14 16 -15z m82 1 c0 -30 -2 -30 -21 -1 -13 21 -13 23 3 24 12 1 18
-6 18 -23z m-138 11 c0 -7 -30 -13 -34 -7 -3 4 4 9 15 9 10 1 19 0 19 -2z
m8608 -19 c-1 -14 -5 -23 -9 -20 -4 2 -6 12 -4 22 5 23 4 22 10 22 3 0 4 -11
3 -24z m88 16 c-3 -5 4 -19 15 -30 23 -26 14 -29 -13 -5 -20 18 -24 43 -7 43
5 0 8 -4 5 -8z m124 -12 c0 -5 -2 -10 -4 -10 -3 0 -8 5 -11 10 -3 6 -1 10 4
10 6 0 11 -4 11 -10z m-10263 -26 c0 -17 -7 -17 -29 0 -24 18 -22 24 5 19 13
-3 24 -11 24 -19z m273 11 c0 -8 -2 -15 -4 -15 -2 0 -6 7 -10 15 -3 8 -1 15 4
15 6 0 10 -7 10 -15z m43 8 c-7 -2 -19 -2 -25 0 -7 3 -2 5 12 5 14 0 19 -2 13
-5z m34 -8 c0 -8 -4 -15 -9 -15 -10 0 -11 14 -1 23 9 10 10 9 10 -8z m103 1
c0 -5 6 -3 14 3 10 8 16 9 21 1 4 -6 3 -9 -2 -8 -5 2 -21 -10 -36 -26 -15 -16
-27 -25 -27 -20 0 5 -5 2 -11 -6 -9 -13 -10 -12 -5 2 3 10 1 20 -4 23 -6 4
-10 11 -10 18 0 6 7 2 16 -9 11 -13 17 -15 20 -6 3 6 11 9 16 6 7 -5 8 -2 4 5
-5 7 -14 10 -21 7 -7 -2 -15 1 -18 7 -3 7 5 12 19 12 13 0 24 -4 24 -9z m94
-15 c-2 -3 -12 3 -22 13 -16 17 -16 18 5 5 12 -7 20 -15 17 -18z m9560 -8 c1
-18 -4 -30 -12 -30 -6 0 -11 7 -10 16 2 9 -2 15 -8 14 -7 -1 -10 6 -7 16 8 31
36 18 37 -16z m-10174 12 c-9 -10 -9 -15 -1 -15 16 0 13 -17 -5 -24 -8 -3 -12
-2 -9 3 3 5 0 13 -6 17 -9 5 -7 11 6 21 25 17 30 17 15 -2z m699 -25 c0 -10
-3 -8 -9 5 -12 27 -12 43 0 25 5 -8 9 -22 9 -30z m-310 17 c8 -10 7 -14 -2
-14 -8 0 -14 6 -14 14 0 7 1 13 2 13 2 0 8 -6 14 -13z m-349 -1 c0 -3 -4 -8
-10 -11 -5 -3 -10 -1 -10 4 0 6 5 11 10 11 6 0 10 -2 10 -4z m1410 0 c0 -3 -4
-8 -10 -11 -5 -3 -10 -1 -10 4 0 6 5 11 10 11 6 0 10 -2 10 -4z m8650 -2 c0
-8 -19 -13 -24 -6 -3 5 1 9 9 9 8 0 15 -2 15 -3z m-9475 -14 c3 -5 -1 -10 -10
-10 -9 0 -13 5 -10 10 3 6 8 10 10 10 2 0 7 -4 10 -10z m1101 -35 c-7 -5 -11
-17 -9 -25 4 -12 3 -13 -5 -1 -5 7 -8 21 -7 30 2 9 4 20 4 24 1 4 7 2 15 -5
12 -10 12 -15 2 -23z m41 5 c4 0 14 7 24 16 20 18 40 11 38 -14 -1 -15 -2 -15
-6 1 -2 9 -8 17 -13 17 -14 0 -32 -29 -24 -41 10 -16 11 -69 2 -69 -5 0 -8 13
-8 29 0 16 -7 34 -15 41 -8 7 -14 22 -14 34 1 17 2 17 6 4 2 -10 7 -18 10 -18z
m-1717 4 c0 -8 -4 -13 -9 -9 -5 3 -17 -5 -25 -17 -12 -17 -16 -19 -16 -6 0 9
-6 19 -12 22 -7 4 -3 4 9 2 15 -3 20 0 16 10 -3 9 2 14 16 14 12 0 21 -6 21
-16z m410 -4 c0 -5 -6 -10 -12 -10 -9 0 -8 -4 2 -10 9 -6 10 -10 3 -10 -6 0
-15 5 -18 10 -7 12 2 30 16 30 5 0 9 -4 9 -10z m336 -4 c8 -8 10 -17 5 -20 -5
-3 -12 1 -15 10 -4 9 -13 14 -21 10 -8 -3 -15 -1 -15 4 0 15 30 12 46 -4z
m259 4 c3 -5 1 -10 -4 -10 -6 0 -11 5 -11 10 0 6 2 10 4 10 3 0 8 -4 11 -10z
m-788 -21 c-9 -6 -15 -14 -12 -19 3 -5 0 -12 -6 -16 -8 -4 -9 -3 -5 4 7 11 -5
16 -29 13 -5 -1 -1 6 9 14 11 8 29 15 40 15 19 -1 20 -1 3 -11z m265 -12 c-9
-10 -7 -19 5 -38 l16 -24 -23 21 c-19 18 -20 25 -10 44 6 12 14 19 17 16 3 -3
1 -12 -5 -19z m1146 -2 c8 -7 -10 -25 -19 -20 -5 4 -9 0 -9 -7 0 -14 55 -17
68 -3 4 5 2 5 -4 2 -7 -4 -15 0 -18 8 -4 12 -2 13 13 6 28 -16 33 -39 10 -51
-15 -8 -19 -8 -17 2 2 9 -8 13 -29 12 -25 -2 -32 3 -36 22 -2 13 0 21 4 18 5
-3 9 -1 9 5 0 5 -6 11 -12 14 -7 2 -2 2 12 0 14 -3 27 -6 28 -8z m152 11 c0
-3 -4 -8 -10 -11 -5 -3 -10 -1 -10 4 0 6 5 11 10 11 6 0 10 -2 10 -4z m-1779
-21 c5 4 6 -1 3 -10 -5 -11 -10 -13 -19 -5 -6 5 -16 6 -21 2 -4 -4 -2 1 6 12
8 11 16 14 18 7 2 -6 8 -9 13 -6z m1559 -5 c6 -11 8 -20 6 -20 -3 0 -10 9 -16
20 -6 11 -8 20 -6 20 3 0 10 -9 16 -20z m256 -25 c-8 -9 -14 -21 -12 -28 1 -7
1 -9 -1 -4 -3 4 -9 7 -14 7 -6 0 -7 -4 -4 -10 3 -6 -1 -7 -9 -4 -9 3 -16 10
-16 16 0 5 5 6 10 3 6 -3 10 -2 10 4 0 5 -6 12 -12 15 -7 4 -3 4 9 2 13 -2 26
0 29 5 3 5 10 9 15 9 6 0 4 -7 -5 -15z m-1779 -9 c-3 -7 -1 -18 5 -24 6 -6 6
-12 -3 -17 -7 -5 -10 -4 -5 3 3 6 2 13 -3 17 -10 5 -4 35 6 35 3 0 3 -6 0 -14z
m756 -21 c-3 -9 -8 -14 -10 -11 -3 3 -2 9 2 15 9 16 15 13 8 -4z m9602 4 c11
-16 1 -19 -13 -3 -7 8 -8 14 -3 14 5 0 13 -5 16 -11z m-10320 -8 c3 -5 1 -12
-5 -16 -5 -3 -10 1 -10 9 0 18 6 21 15 7z m1565 -3 c0 -7 -5 -20 -11 -28 -8
-12 -9 -10 -4 7 5 19 3 22 -11 16 -12 -4 -15 -3 -10 5 10 16 36 15 36 0z
m-1520 -10 c0 -4 -4 -8 -9 -8 -6 0 -12 4 -15 8 -3 5 1 9 9 9 8 0 15 -4 15 -9z
m435 2 c3 -6 -1 -7 -9 -4 -18 7 -21 14 -7 14 6 0 13 -4 16 -10z m-358 -62 c-3
-7 -5 -2 -5 12 0 14 2 19 5 13 2 -7 2 -19 0 -25z m9593 -3 c0 -2 -9 -3 -19 -2
-11 0 -18 5 -15 9 4 6 34 0 34 -7z m-252 -20 c-3 -3 -9 2 -12 12 -6 14 -5 15
5 6 7 -7 10 -15 7 -18z m-157 -8 c-10 -9 -11 -8 -5 6 3 10 9 15 12 12 3 -3 0
-11 -7 -18z m139 -7 c6 -11 8 -20 6 -20 -3 0 -10 9 -16 20 -6 11 -8 20 -6 20
3 0 10 -9 16 -20z m180 16 c0 -2 -8 -10 -17 -17 -16 -13 -17 -12 -4 4 13 16
21 21 21 13z m-7878 -15 c-11 -6 -10 -12 5 -26 17 -18 17 -19 -1 -12 -14 6
-17 4 -12 -8 3 -9 2 -13 -3 -10 -7 4 -8 39 -2 63 1 1 7 2 14 2 9 0 9 -2 -1 -9z
m112 0 c3 -5 -1 -11 -9 -14 -9 -4 -12 -1 -8 9 6 16 10 17 17 5z m7628 -21 l-9
-24 -5 22 c-4 12 -2 20 3 16 5 -3 9 0 9 7 0 7 2 10 5 7 3 -3 2 -16 -3 -28z
m-8787 11 c3 -5 1 -12 -5 -16 -5 -3 -10 1 -10 9 0 18 6 21 15 7z m8689 -6 c-4
-8 -11 -15 -16 -15 -6 0 -5 6 2 15 7 8 14 15 16 15 2 0 1 -7 -2 -15z m-569
-35 c11 -13 13 -19 5 -13 -9 6 -29 14 -45 17 -43 6 -43 8 -10 15 17 4 30 7 30
7 0 -1 9 -12 20 -26z m-6960 10 c3 -6 -1 -7 -9 -4 -18 7 -21 14 -7 14 6 0 13
-4 16 -10z m215 -14 c0 -14 -3 -27 -8 -30 -10 -6 -47 22 -39 31 4 3 14 -2 23
-13 15 -18 15 -18 9 9 -3 15 -1 27 5 27 5 0 10 -11 10 -24z m6689 -12 c6 4 11
1 11 -7 0 -7 -7 -14 -15 -14 -8 0 -15 5 -15 10 0 5 -7 7 -15 3 -8 -3 -15 -1
-15 3 0 14 24 20 31 8 4 -5 12 -6 18 -3z m291 2 c0 -3 -4 -8 -10 -11 -5 -3
-10 -1 -10 4 0 6 5 11 10 11 6 0 10 -2 10 -4z m-4220 -82 c11 -36 22 -109 25
-162 7 -123 -7 -96 -29 56 -9 62 -21 124 -26 138 -13 32 -13 47 0 39 5 -3 19
-35 30 -71z m2750 70 c0 -8 -19 -13 -24 -6 -3 5 1 9 9 9 8 0 15 -2 15 -3z
m105 -12 c-3 -3 -11 0 -18 7 -9 10 -8 11 6 5 10 -3 15 -9 12 -12z m1412 12
c-3 -3 -12 -4 -19 -1 -8 3 -5 6 6 6 11 1 17 -2 13 -5z m-7058 -17 c8 -10 7
-14 -2 -14 -8 0 -14 6 -14 14 0 7 1 13 2 13 2 0 8 -6 14 -13z m6252 -4 c13
-16 12 -17 -3 -4 -10 7 -18 15 -18 17 0 8 8 3 21 -13z m294 7 c-4 -6 -11 -8
-16 -5 -5 4 -9 1 -9 -6 0 -7 -3 -10 -6 -6 -9 9 5 27 22 27 8 0 12 -5 9 -10z
m-520 -10 c-3 -5 2 -10 12 -10 15 0 16 -2 3 -10 -10 -6 -16 -6 -18 0 -2 6 -8
8 -13 4 -5 -3 -9 -1 -9 5 0 5 6 12 13 14 18 8 19 8 12 -3z m100 0 c-3 -5 -12
-10 -18 -10 -7 0 -6 4 3 10 19 12 23 12 15 0z m-548 -28 c-10 -10 -15 -22 -12
-25 3 -4 2 -5 -2 -2 -3 3 -13 -1 -22 -7 -19 -14 -15 -9 19 30 14 16 27 27 29
25 2 -1 -3 -11 -12 -21z m343 -21 c0 -5 -5 -13 -12 -17 -7 -5 -8 -3 -3 6 6 10
3 12 -13 8 -15 -4 -20 -3 -15 5 4 7 6 21 4 32 -3 19 -2 19 18 -2 12 -12 21
-27 21 -32z m723 34 c-3 -9 -8 -14 -10 -11 -3 3 -2 9 2 15 9 16 15 13 8 -4z
m-1173 -37 c0 -5 -4 -8 -10 -8 -5 0 -10 10 -10 23 0 18 2 19 10 7 5 -8 10 -18
10 -22z m27 17 c0 -8 -4 -12 -9 -9 -5 3 -6 10 -3 15 9 13 12 11 12 -6z m323 5
c0 -5 -2 -10 -4 -10 -3 0 -8 5 -11 10 -3 6 -1 10 4 10 6 0 11 -4 11 -10z m280
-6 c0 -8 -4 -12 -10 -9 -5 3 -10 10 -10 16 0 5 5 9 10 9 6 0 10 -7 10 -16z
m-690 2 c0 -3 -4 -8 -10 -11 -5 -3 -10 -1 -10 4 0 6 5 11 10 11 6 0 10 -2 10
-4z m-2745 -26 c-17 -19 -17 -20 1 -20 13 0 8 -7 -19 -23 -21 -13 -35 -26 -32
-29 4 -3 1 -9 -6 -14 -7 -4 -10 -3 -5 4 5 9 -15 10 -54 2 -3 0 3 -5 13 -11 9
-5 17 -15 17 -21 0 -7 -7 -5 -17 4 -10 9 -24 13 -31 11 -8 -3 -3 6 10 19 14
14 26 19 30 13 9 -12 10 -2 2 19 -3 9 -11 13 -18 9 -6 -3 -8 -2 -3 2 10 12 47
14 47 3 0 -5 5 -6 12 -2 7 4 8 3 4 -4 -4 -7 -2 -12 3 -12 6 0 11 4 11 9 0 10
39 61 47 61 3 0 -2 -9 -12 -20z m2955 -24 c14 -18 14 -18 -7 -6 -12 8 -19 18
-16 23 3 4 6 7 7 5 1 -2 8 -12 16 -22z m33 3 c-8 -8 -13 -7 -18 2 -5 8 -4 10
3 5 7 -4 12 -2 12 5 0 7 3 9 7 6 4 -4 2 -12 -4 -18z m147 17 c0 -2 -8 -10 -17
-17 -16 -13 -17 -12 -4 4 13 16 21 21 21 13z m-3593 -28 c0 -7 4 -22 8 -33 6
-16 5 -17 -4 -5 -10 13 -12 13 -21 0 -8 -13 -10 -12 -10 3 0 9 -6 17 -12 17
-7 0 -2 7 12 14 14 8 25 14 26 15 0 1 1 -5 1 -11z m3370 6 c-3 -3 -12 -4 -19
-1 -8 3 -5 6 6 6 11 1 17 -2 13 -5z m-3310 -27 c-12 -13 -25 -22 -30 -19 -4 2
3 12 15 22 32 27 42 25 15 -3z m98 -1 c-18 -13 -18 -14 3 -27 12 -8 22 -18 22
-23 0 -5 -8 -2 -18 7 -10 10 -21 14 -25 11 -8 -8 -3 18 6 34 5 6 13 12 20 12
6 0 2 -6 -8 -14z m3205 6 c0 -5 -7 -9 -15 -9 -8 0 -12 4 -9 9 3 4 9 8 15 8 5
0 9 -4 9 -8z m-3612 -33 c0 -22 -2 -29 -10 -21 -5 5 -7 19 -3 31 9 29 12 26
13 -10z m169 9 c-3 -8 -6 -5 -6 6 -1 11 2 17 5 13 3 -3 4 -12 1 -19z m3473 12
c0 -5 -4 -10 -10 -10 -5 0 -10 5 -10 10 0 6 5 10 10 10 6 0 10 -4 10 -10z
m-2930 -4 c0 -3 -4 -8 -10 -11 -5 -3 -10 -1 -10 4 0 6 5 11 10 11 6 0 10 -2
10 -4z m-1332 -46 c-7 -10 -14 -17 -16 -15 -3 2 -12 0 -22 -5 -12 -6 -17 -5
-17 5 0 8 4 12 8 10 4 -3 14 -2 23 1 12 5 13 10 5 26 -9 18 -9 18 10 8 18 -9
19 -14 9 -30z m245 15 c-7 -21 -13 -19 -13 6 0 11 4 18 10 14 5 -3 7 -12 3
-20z m341 9 c5 -14 4 -15 -9 -4 -17 14 -19 20 -6 20 5 0 12 -7 15 -16z m221
-3 c-3 -6 -11 -11 -16 -11 -5 0 -4 6 3 14 14 16 24 13 13 -3z m185 15 c0 -3
-4 -8 -10 -11 -5 -3 -10 -1 -10 4 0 6 5 11 10 11 6 0 10 -2 10 -4z m117 -11
c0 -8 -4 -12 -9 -9 -5 3 -6 10 -3 15 9 13 12 11 12 -6z m-1722 -11 c-9 -9 -19
-13 -23 -10 -3 4 0 11 8 16 24 15 33 11 15 -6z m4805 12 c0 -2 -7 -7 -16 -10
-8 -3 -12 -2 -9 4 6 10 25 14 25 6z m-4865 -16 c3 -6 -1 -7 -9 -4 -18 7 -21
14 -7 14 6 0 13 -4 16 -10z m325 0 c0 -5 -2 -10 -4 -10 -3 0 -8 5 -11 10 -3 6
-1 10 4 10 6 0 11 -4 11 -10z m504 2 c3 -5 -1 -9 -9 -9 -8 0 -12 4 -9 9 3 4 7
8 9 8 2 0 6 -4 9 -8z m276 -12 c0 -5 -2 -10 -4 -10 -3 0 -8 5 -11 10 -3 6 -1
10 4 10 6 0 11 -4 11 -10z m580 -24 c0 -3 -9 -3 -20 -1 -32 6 -53 -5 -40 -20
8 -10 8 -15 -1 -21 -8 -4 -9 -3 -5 4 4 7 2 12 -3 12 -6 0 -11 9 -11 20 0 13 7
20 19 20 11 0 23 5 26 10 6 9 35 -11 35 -24z m-990 14 c0 -5 -5 -10 -11 -10
-5 0 -7 5 -4 10 3 6 8 10 11 10 2 0 4 -4 4 -10z m270 4 c0 -8 -19 -13 -24 -6
-3 5 1 9 9 9 8 0 15 -2 15 -3z m305 -4 c3 -6 -1 -7 -9 -4 -18 7 -21 14 -7 14
6 0 13 -4 16 -10z m190 -8 c-3 -3 -11 0 -18 7 -9 10 -8 11 6 5 10 -3 15 -9 12
-12z m3322 -4 c-3 -8 -6 -5 -6 6 -1 11 2 17 5 13 3 -3 4 -12 1 -19z m-3996
-11 c-10 -9 -11 -8 -5 6 3 10 9 15 12 12 3 -3 0 -11 -7 -18z m519 13 c0 -5 -4
-10 -10 -10 -5 0 -10 5 -10 10 0 6 5 10 10 10 6 0 10 -4 10 -10z m590 -4 c0
-2 -7 -7 -16 -10 -8 -3 -12 -2 -9 4 6 10 25 14 25 6z m-1220 -22 c0 -8 -5 -12
-10 -9 -6 4 -8 11 -5 16 9 14 15 11 15 -7z m460 9 c0 -5 -4 -14 -9 -21 -7 -11
-9 -11 -14 1 -3 8 -3 18 0 21 9 8 23 7 23 -1z m420 0 c0 -3 -6 -11 -14 -19
-13 -12 -15 -12 -13 4 1 15 27 29 27 15z m-850 -13 c0 -5 -2 -10 -4 -10 -3 0
-8 5 -11 10 -3 6 -1 10 4 10 6 0 11 -4 11 -10z m250 4 c0 -8 -19 -13 -24 -6
-3 5 1 9 9 9 8 0 15 -2 15 -3z m420 2 c0 -3 -4 -8 -10 -11 -5 -3 -10 -1 -10 4
0 6 5 11 10 11 6 0 10 -2 10 -4z m230 -22 c0 -2 -9 0 -20 6 -11 6 -20 13 -20
16 0 2 9 0 20 -6 11 -6 20 -13 20 -16z m-200 -14 c0 -10 -10 -24 -21 -31 -13
-6 -19 -7 -15 -1 3 6 3 12 -1 15 -5 2 -2 2 5 0 8 -2 16 6 19 17 7 26 13 26 13
0z m109 -3 c12 -15 12 -17 -3 -11 -9 3 -16 13 -16 22 0 8 1 13 3 11 1 -2 9
-12 16 -22z m175 15 c3 -5 -1 -9 -9 -9 -8 0 -15 4 -15 9 0 4 4 8 9 8 6 0 12
-4 15 -8z m21 -21 c-3 -6 -14 -10 -23 -10 -15 1 -15 2 1 6 9 2 17 9 17 15 0 6
3 9 6 5 3 -3 3 -10 -1 -16z m-280 -10 c3 -5 2 -12 -3 -15 -5 -3 -9 1 -9 9 0
17 3 19 12 6z m181 -81 c0 -12 -4 -16 -9 -11 -5 5 -6 14 -3 20 10 15 12 14 12
-9z m-429 -4652 c-3 -8 -6 -5 -6 6 -1 11 2 17 5 13 3 -3 4 -12 1 -19z m14078
-483 c131 -23 257 -66 383 -132 96 -50 125 -69 207 -138 67 -56 85 -76 79 -87
-3 -5 0 -8 6 -8 6 0 9 -4 5 -9 -3 -6 3 -15 12 -21 16 -10 16 -11 -2 -5 -11 4
-27 8 -35 10 -8 1 -14 8 -12 15 1 6 -2 9 -8 5 -5 -3 -10 -12 -10 -19 0 -7 -7
-13 -15 -13 -8 0 -15 6 -15 12 0 15 -61 46 -74 38 -5 -3 -6 -1 -3 4 8 12 -14
23 -44 23 -10 0 -19 5 -19 12 0 6 -3 9 -6 5 -3 -3 -15 2 -25 12 -20 19 -45 21
-68 6 -10 -5 -12 -4 -7 3 4 7 2 12 -3 12 -6 0 -11 6 -11 14 0 10 -11 13 -35
12 -21 -1 -35 3 -35 10 0 7 -6 14 -13 17 -10 4 -13 -2 -11 -21 2 -15 1 -19 -2
-9 -3 9 -10 14 -16 11 -7 -5 -9 0 -6 14 4 15 2 19 -9 15 -8 -3 -12 -12 -9 -19
3 -8 0 -11 -10 -7 -13 5 -12 8 3 26 14 15 15 19 3 15 -8 -3 -19 1 -25 8 -7 10
-14 11 -25 4 -13 -9 -12 -12 4 -25 19 -15 19 -15 -3 -15 -12 0 -19 -4 -16 -10
3 -5 1 -10 -5 -10 -7 0 -9 12 -6 34 4 21 1 38 -6 42 -6 4 -8 3 -5 -3 4 -6 -2
-13 -14 -16 -12 -3 -22 0 -26 9 -3 8 -10 14 -16 14 -5 0 -2 -9 8 -20 17 -19
17 -20 0 -20 -15 0 -16 -2 -4 -17 13 -15 12 -15 -6 -6 -11 6 -26 8 -33 5 -11
-3 -12 0 -3 17 10 17 9 20 -4 15 -9 -4 -15 -1 -15 7 0 9 -3 10 -8 4 -4 -5 -16
-11 -27 -13 -14 -2 -16 0 -7 6 10 7 10 11 -3 22 -11 9 -18 10 -28 1 -8 -6 -16
-9 -18 -6 -3 2 -4 -9 -3 -25 1 -17 -3 -30 -8 -30 -6 0 -7 7 -4 16 4 12 2 15
-9 10 -8 -3 -14 0 -12 6 1 7 -3 12 -10 13 -6 0 -15 4 -20 9 -4 5 -3 6 4 2 6
-3 14 -2 17 3 6 10 -12 9 -29 -1 -15 -9 -65 -7 -65 3 0 5 -5 9 -12 9 -6 0 -3
-9 8 -21 14 -15 15 -20 4 -17 -8 2 -14 -3 -12 -10 1 -8 -2 -11 -7 -8 -5 4 -11
1 -13 -6 -3 -7 -7 -2 -10 10 -4 12 -2 22 4 22 5 0 6 5 3 10 -3 6 -11 10 -16
10 -6 0 -8 -4 -4 -9 3 -6 -3 -15 -14 -20 -26 -14 -34 -14 -25 2 5 6 -3 4 -16
-5 -14 -9 -24 -20 -23 -25 0 -4 -6 -14 -14 -22 -13 -12 -14 -11 -8 9 6 19 4
22 -9 17 -9 -4 -16 -3 -16 1 0 5 -7 17 -16 28 -15 18 -15 18 -5 -3 18 -36 12
-50 -9 -23 -16 20 -20 22 -20 8 0 -10 -3 -17 -7 -17 -5 1 -15 1 -23 0 -12 -1
-11 -5 4 -16 11 -8 16 -15 10 -15 -17 1 -41 25 -37 38 7 19 -25 14 -36 -6 -5
-10 -21 -24 -35 -31 -21 -11 -28 -12 -41 -1 -8 7 -15 8 -15 2 0 -5 8 -13 17
-16 13 -5 14 -9 4 -19 -9 -9 -13 -9 -19 0 -6 9 -12 7 -22 -6 -7 -11 -20 -17
-28 -13 -11 4 -13 2 -7 -9 7 -11 6 -12 -6 -3 -8 6 -25 15 -39 19 -22 7 -23 6
-12 -8 12 -14 11 -16 -7 -14 -13 1 -20 6 -17 14 3 7 1 15 -5 18 -5 4 -8 2 -7
-3 2 -6 0 -9 -4 -8 -4 0 -15 -9 -23 -21 -9 -13 -22 -23 -30 -23 -16 0 -57 -54
-48 -64 8 -8 -5 -8 -34 0 -13 4 -20 11 -17 16 4 6 -2 6 -13 -1 -11 -6 -24 -7
-28 -3 -5 4 -5 1 -1 -6 4 -7 12 -10 17 -7 5 4 9 1 9 -5 0 -6 5 -8 12 -4 7 4 8
3 4 -4 -5 -9 -15 -8 -35 3 -21 10 -29 11 -28 2 0 -7 -1 -23 -2 -37 -2 -22 -3
-23 -10 -6 -7 18 -8 18 -14 2 -5 -12 0 -19 15 -25 21 -8 21 -8 -4 -13 -23 -4
-25 -2 -22 26 3 20 1 26 -5 18 -4 -8 -12 -14 -17 -14 -5 -1 -23 -13 -41 -27
-22 -18 -28 -28 -20 -33 8 -5 4 -8 -11 -8 -13 0 -20 -4 -17 -10 4 -6 3 -10 -2
-9 -22 4 -31 -3 -37 -26 -4 -14 -10 -25 -15 -25 -4 0 -27 -14 -50 -31 -32 -23
-40 -33 -32 -43 8 -9 5 -12 -12 -12 -17 1 -22 -4 -21 -21 1 -13 -3 -20 -7 -17
-8 5 -13 -10 -10 -28 0 -5 -2 -7 -7 -7 -19 3 -23 -2 -12 -16 10 -12 8 -14 -8
-10 -12 2 -23 -3 -26 -11 -4 -10 -2 -12 6 -8 7 5 8 3 3 -5 -4 -7 -16 -11 -26
-8 -16 4 -17 2 -8 -15 8 -15 8 -19 0 -14 -6 4 -11 2 -11 -3 0 -6 -7 -11 -16
-11 -11 0 -15 6 -12 18 3 11 0 19 -7 19 -8 0 -11 -7 -7 -16 3 -9 2 -13 -2 -10
-27 24 -3 102 53 172 16 21 33 48 37 59 9 30 80 121 149 193 302 313 691 470
1100 444 55 -4 118 -10 140 -14z m-55 -169 c0 -2 -7 -9 -15 -16 -13 -11 -14
-10 -9 4 5 14 24 23 24 12z m160 -46 c0 -5 -7 -10 -15 -10 -8 0 -15 5 -15 10
0 6 7 10 15 10 8 0 15 -4 15 -10z m-900 -129 c0 -6 -4 -13 -10 -16 -5 -3 -10
1 -10 9 0 9 5 16 10 16 6 0 10 -4 10 -9z m1470 -85 c0 -3 -4 -8 -10 -11 -5 -3
-10 -1 -10 4 0 6 5 11 10 11 6 0 10 -2 10 -4z m-1647 -31 c-3 -9 -8 -14 -10
-11 -3 3 -2 9 2 15 9 16 15 13 8 -4z m-21257 -21 c1 -9 0 -13 -4 -10 -3 4 -7
14 -8 22 -1 9 0 13 4 10 3 -4 7 -14 8 -22z m229 -164 c3 -6 -1 -7 -9 -4 -18 7
-21 14 -7 14 6 0 13 -4 16 -10z m20516 -57 c-12 -20 -14 -14 -5 12 4 9 9 14
11 11 3 -2 0 -13 -6 -23z m179 -3 c0 -5 -2 -10 -4 -10 -3 0 -8 5 -11 10 -3 6
-1 10 4 10 6 0 11 -4 11 -10z m-200 -30 c0 -5 -5 -10 -11 -10 -5 0 -7 5 -4 10
3 6 8 10 11 10 2 0 4 -4 4 -10z m2754 -310 c42 -127 62 -233 70 -360 7 -117 3
-109 -24 45 -25 142 -56 259 -109 416 -56 162 -56 162 -12 79 22 -41 56 -122
75 -180z m-22719 -42 c38 -119 55 -208 60 -312 l5 -91 -15 90 c-19 117 -42
224 -66 306 -10 36 -19 71 -19 78 0 27 11 5 35 -71z m-110 16 c2 -16 2 -23 -1
-16 -3 6 -12 12 -20 12 -8 0 -14 5 -14 11 0 6 7 8 18 4 14 -5 15 -4 5 6 -7 7
-13 18 -13 23 0 22 21 -12 25 -40z m10630 -14 c-3 -5 -12 -10 -18 -10 -7 0 -6
4 3 10 19 12 23 12 15 0z m1802 -12 c-3 -8 -6 -5 -6 6 -1 11 2 17 5 13 3 -3 4
-12 1 -19z m150 0 c-3 -8 -6 -5 -6 6 -1 11 2 17 5 13 3 -3 4 -12 1 -19z
m-3482 2 c3 -5 1 -10 -4 -10 -6 0 -11 5 -11 10 0 6 2 10 4 10 3 0 8 -4 11 -10z
m39 2 c3 -5 -1 -9 -9 -9 -8 0 -12 4 -9 9 3 4 7 8 9 8 2 0 6 -4 9 -8z m-4105
-45 c12 -15 12 -17 -3 -11 -9 3 -16 13 -16 22 0 8 1 13 3 11 1 -2 9 -12 16
-22z m-739 -142 c-14 -7 -27 -11 -30 -9 -6 7 22 24 40 23 9 0 5 -6 -10 -14z
m-13 -119 c-3 -8 -1 -17 6 -20 7 -2 2 -5 -10 -5 -25 -1 -29 9 -11 27 16 16 21
15 15 -2z m-47 -16 c0 -5 -4 -10 -10 -10 -5 0 -10 5 -10 10 0 6 5 10 10 10 6
0 10 -4 10 -10z m10740 -35 c11 -13 10 -14 -4 -9 -9 3 -16 10 -16 15 0 13 6
11 20 -6z m16 -36 c3 -5 0 -9 -6 -9 -6 0 -8 -4 -5 -10 13 -21 -4 -9 -18 14
-15 23 -15 24 4 19 10 -3 22 -9 25 -14z m265 -289 c20 -65 49 -294 48 -380 -2
-59 -5 -43 -29 135 -11 83 -31 191 -45 240 -14 50 -28 101 -31 115 -9 44 33
-38 57 -110z m-6876 -2646 c148 -3 277 -10 287 -15 10 -5 22 -18 28 -28 5 -11
45 -156 89 -323 113 -434 1043 -4022 1108 -4273 30 -115 117 -452 193 -747 77
-296 140 -551 140 -567 0 -44 -27 -54 -165 -58 -168 -6 -975 31 -1001 45 -12
6 -25 19 -29 29 -4 10 -60 236 -125 503 -65 267 -128 527 -141 578 -27 114
-53 147 -120 156 -70 10 -1370 54 -1412 49 -45 -6 -53 -17 -36 -50 12 -23 1
-77 -123 -572 -120 -477 -141 -549 -162 -568 -39 -33 -131 -36 -536 -19 -509
22 -520 23 -541 42 -34 31 -47 -26 211 964 72 278 171 660 221 850 49 190 175
676 280 1080 291 1124 538 2079 633 2455 112 436 113 440 132 456 9 7 37 16
63 20 46 7 500 4 1006 -7z m4167 -65 c21 -6 43 -19 49 -31 9 -16 11 -759 7
-2989 -4 -2721 -6 -2969 -21 -2992 -31 -47 -95 -49 -657 -23 -278 13 -512 26
-522 30 -43 19 -42 -80 -35 3014 8 3250 1 2981 70 3001 41 13 1057 3 1109 -10z
m-13246 -196 c-17 -96 -16 -127 7 -160 12 -18 37 -41 57 -52 31 -17 47 -18
140 -13 142 9 446 8 795 -1 160 -4 497 -12 750 -17 253 -6 507 -12 565 -15 58
-3 254 -7 435 -10 182 -3 395 -7 475 -10 138 -5 240 -7 970 -21 173 -3 324 -8
335 -11 29 -8 34 -21 22 -60 -12 -37 -49 -63 -82 -57 -19 4 -317 13 -552 17
-57 1 -103 -1 -103 -5 0 -8 -68 -4 -76 5 -3 3 -16 2 -29 -3 -13 -5 -25 -7 -27
-5 -2 3 -21 7 -41 10 -25 4 -37 2 -37 -6 0 -8 -4 -8 -12 -2 -7 5 -50 10 -96
11 -46 1 -87 4 -93 7 -5 4 -14 3 -21 -1 -14 -9 -58 -12 -53 -4 2 3 -22 6 -53
5 -31 0 -61 1 -67 4 -18 10 -35 9 -29 0 3 -5 -6 -8 -20 -7 -15 1 -26 6 -26 9
0 4 -12 4 -27 0 -28 -8 -92 -6 -146 4 -20 3 -26 1 -21 -8 5 -9 4 -9 -7 1 -16
15 -54 16 -81 1 -15 -8 -19 -8 -14 0 4 6 4 11 -1 12 -4 0 -16 2 -26 4 -10 2
-14 -1 -10 -8 4 -6 0 -8 -10 -4 -9 3 -19 2 -22 -3 -4 -6 -16 -3 -30 6 -18 11
-25 12 -31 3 -5 -8 -3 -10 7 -4 8 5 10 4 6 0 -14 -16 -37 -14 -37 3 0 14 -2
14 -9 3 -6 -10 -24 -12 -70 -8 -39 4 -61 2 -61 -5 0 -6 -7 -7 -17 -2 -30 12
-113 13 -113 0 0 -6 -4 -5 -9 3 -5 8 -14 10 -21 6 -8 -5 -11 -4 -7 2 8 14 -39
23 -51 11 -15 -15 -80 -17 -86 -3 -4 12 -22 12 -84 -1 -13 -2 -21 -8 -18 -13
3 -4 -17 -8 -44 -8 -28 -1 -53 3 -55 8 -3 4 -18 4 -33 -2 -18 -7 -28 -7 -30 0
-2 5 -10 7 -19 4 -9 -4 -14 -2 -11 3 4 5 -5 9 -18 9 -13 0 -24 -4 -24 -8 0 -4
-8 -4 -17 0 -17 8 -55 9 -78 3 -5 -2 -23 2 -38 8 -16 7 -58 11 -93 9 -36 -2
-67 -1 -70 2 -10 11 -53 11 -59 1 -5 -8 -11 -7 -21 1 -8 6 -14 8 -14 3 0 -12
-216 -7 -255 5 -29 10 -193 25 -267 25 -21 0 -38 4 -38 7 0 9 -21 6 -39 -5
-10 -7 -12 -6 -6 4 6 10 4 12 -8 7 -10 -3 -17 -2 -17 2 0 5 -10 9 -22 8 -29 0
-124 8 -248 23 -317 36 -299 36 -358 6 -28 -14 -58 -26 -66 -26 -20 0 -144 67
-175 94 -13 12 -37 41 -53 65 -27 39 -30 48 -22 80 6 24 15 36 26 35 11 -1 18
9 23 32 3 19 9 34 12 34 3 0 3 -17 -1 -37z m21628 -414 l16 -40 -55 -68 c-38
-47 -68 -73 -97 -86 -24 -10 -66 -28 -94 -41 -64 -30 -79 -30 -134 3 -40 24
-55 27 -130 27 -83 0 -250 -8 -420 -20 -47 -3 -102 -6 -122 -7 -21 0 -36 -3
-34 -6 2 -3 -35 -7 -82 -7 -108 -2 -310 -13 -377 -20 -77 -9 -395 -10 -395 -1
0 4 -10 3 -21 -4 -12 -6 -19 -7 -16 -2 4 6 -32 10 -88 10 -52 0 -92 -3 -90 -7
3 -4 -13 -4 -35 0 -21 4 -43 4 -47 -1 -4 -4 -35 -8 -68 -9 -89 -1 -98 0 -114
13 -10 8 -13 8 -8 1 7 -13 -17 -27 -27 -16 -10 10 -58 14 -53 4 3 -4 -20 -7
-51 -6 -43 1 -56 5 -54 15 3 11 1 11 -9 2 -8 -8 -19 -9 -36 -2 -18 7 -25 5
-30 -6 -3 -10 -9 -12 -17 -7 -6 5 -19 8 -28 7 -10 -2 -18 1 -18 6 0 4 -22 6
-50 4 -32 -3 -50 -1 -50 6 0 7 -6 6 -17 -2 -15 -12 -16 -12 -8 1 5 9 0 8 -13
-4 -21 -18 -26 -16 -23 9 1 6 -5 2 -13 -8 -8 -10 -16 -14 -17 -9 -6 14 -49 25
-49 13 0 -6 -15 -5 -39 4 -22 7 -41 11 -44 9 -9 -9 -67 -12 -67 -4 0 5 -25 8
-55 8 -30 -1 -55 -6 -55 -11 0 -4 -9 -5 -20 -2 -12 4 -20 2 -20 -5 0 -6 -5 -8
-10 -5 -6 4 -7 12 -3 18 4 8 1 7 -9 -1 -11 -9 -18 -9 -23 -3 -7 12 -55 11 -55
-1 0 -4 -7 -8 -16 -8 -8 0 -13 4 -10 9 3 5 -15 9 -42 9 -26 -1 -78 2 -117 4
-38 3 -84 1 -102 -5 -23 -8 -39 -8 -56 0 -14 7 -29 7 -39 2 -10 -6 -19 -6 -22
0 -3 5 -21 5 -41 1 -19 -4 -35 -5 -35 -1 0 7 -82 5 -133 -3 -15 -2 -25 0 -22
5 4 5 -71 9 -177 9 -101 -1 -193 0 -205 0 -13 0 -29 1 -35 1 -7 0 -112 2 -233
3 -121 2 -260 7 -310 11 -49 4 -153 9 -230 10 -77 2 -142 4 -145 5 -3 1 -21 1
-41 0 -29 -1 -39 4 -53 25 -9 14 -16 36 -14 48 3 22 4 22 233 23 127 0 460 -3
740 -7 835 -12 1413 -19 2085 -25 349 -3 646 -8 660 -11 14 -2 302 -6 640 -8
431 -2 628 -6 658 -14 23 -7 61 -11 85 -10 23 1 62 -4 87 -11 43 -12 48 -11
105 18 86 43 135 106 113 145 -13 24 -1 77 17 71 7 -3 21 -23 29 -45z m-4899
-3814 c61 -3 247 -10 415 -15 168 -5 348 -12 400 -15 52 -2 192 -7 310 -10
118 -3 256 -8 305 -10 50 -2 160 -7 245 -10 85 -3 277 -10 425 -15 149 -5 338
-12 420 -15 137 -5 522 -18 885 -30 80 -3 217 -7 305 -10 88 -3 275 -10 415
-15 140 -6 419 -15 620 -20 363 -9 365 -9 464 -39 112 -33 156 -65 137 -97 -6
-11 -11 -14 -11 -9 0 6 -21 10 -47 10 -27 -1 -69 6 -95 16 -27 9 -48 14 -48
11 0 -4 -5 0 -10 8 -7 11 -10 11 -10 2 0 -8 -5 -10 -12 -6 -15 10 -108 6 -188
-8 -40 -7 -65 -7 -67 -1 -2 5 -22 7 -46 3 -23 -3 -61 -3 -85 1 -23 3 -45 3
-47 -1 -2 -4 -78 -5 -167 -3 -310 6 -483 11 -483 13 0 1 -26 3 -57 4 -32 2
-58 0 -58 -4 0 -6 -38 -5 -50 1 -3 1 -61 3 -130 5 -104 2 -491 13 -525 15 -5
0 -46 0 -90 0 -86 -1 -207 5 -295 14 -67 7 -49 6 -200 6 -206 1 -300 3 -300 9
0 3 -55 6 -123 7 -67 1 -151 4 -187 6 -36 2 -71 -1 -77 -6 -7 -5 -13 -6 -13
-1 0 10 -125 17 -307 18 -61 1 -110 3 -108 6 2 3 -38 6 -88 8 -124 4 -123 4
-197 3 -36 0 -92 1 -125 4 -33 3 -102 7 -153 9 -51 2 -96 7 -99 10 -4 3 -12 1
-19 -5 -8 -7 -14 -7 -18 0 -5 7 -15 7 -32 1 -14 -6 -23 -6 -20 -2 3 5 -27 9
-67 9 -84 0 -372 13 -437 18 -25 3 -88 7 -140 10 -113 6 -155 11 -171 21 -8 4
-9 3 -5 -4 5 -9 0 -9 -18 -2 -14 5 -26 7 -26 4 0 -4 -6 -3 -12 2 -7 5 -39 9
-70 9 -32 0 -58 2 -58 6 0 7 -18 8 -177 11 l-131 3 -6 34 c-3 19 -3 38 0 43 6
9 292 5 559 -7z m5676 -584 c27 -72 41 -151 37 -204 -3 -39 -4 -36 -17 33 -7
41 -24 111 -38 154 -14 44 -27 87 -30 95 -12 40 29 -28 48 -78z m-21551 -2631
c26 -77 47 -175 65 -300 11 -84 -5 -33 -39 121 -19 85 -49 194 -65 243 -17 50
-31 92 -31 95 1 15 44 -82 70 -159z m21265 -170 c103 -10 205 -31 243 -49 142
-67 216 -108 238 -130 25 -25 26 -26 6 -29 -12 -2 -31 2 -44 9 -13 7 -33 12
-46 10 -12 -1 -37 5 -55 14 -47 24 -116 44 -138 40 -10 -2 -24 2 -31 8 -7 7
-22 13 -33 14 -11 2 -36 5 -55 9 -19 3 -57 8 -85 11 -73 8 -375 12 -375 4 0
-6 -11 -8 -92 -12 -27 -1 -48 -5 -48 -9 0 -4 -17 -11 -37 -14 -49 -9 -184 -55
-200 -68 -7 -6 -13 -7 -13 -3 0 4 -6 3 -12 -2 -7 -6 -21 -9 -31 -8 -9 2 -22
-5 -27 -15 -6 -11 -17 -17 -25 -14 -8 4 -15 1 -15 -6 0 -6 -4 -9 -9 -6 -5 4
-23 -7 -39 -24 -17 -16 -36 -30 -42 -30 -7 0 -20 -10 -31 -22 -17 -22 -25 -15
-20 15 1 5 -3 6 -9 2 -6 -3 -8 -10 -5 -15 3 -4 -4 -10 -15 -13 -13 -3 -18 -1
-13 5 4 7 1 8 -8 2 -8 -5 -25 -10 -39 -12 l-25 -3 28 29 c27 28 151 122 217
165 56 36 228 108 315 132 69 20 107 23 270 24 105 1 240 -3 300 -9z m532
-226 c-3 -3 -12 -4 -19 -1 -8 3 -5 6 6 6 11 1 17 -2 13 -5z m-1666 -137 c-6
-8 -7 -18 -3 -22 4 -5 1 -5 -5 -1 -8 4 -13 1 -13 -8 0 -8 -4 -17 -8 -20 -13
-8 -7 31 7 48 8 9 18 16 23 16 7 0 6 -5 -1 -13z m-284 -282 c-4 -8 -11 -15
-17 -15 -6 0 -6 7 2 20 14 22 24 19 15 -5z m-27 -49 c0 -3 -4 -8 -10 -11 -5
-3 -10 -1 -10 4 0 6 5 11 10 11 6 0 10 -2 10 -4z m2703 -253 c46 -105 82 -225
102 -337 24 -141 16 -142 -20 -1 -34 132 -89 295 -144 425 -17 40 -31 75 -31
79 1 15 60 -91 93 -166z m-2763 127 c0 -5 -5 -10 -11 -10 -5 0 -7 5 -4 10 3 6
8 10 11 10 2 0 4 -4 4 -10z m-15252 -5101 c229 -25 473 -143 647 -313 59 -57
47 -72 -23 -28 -26 17 -72 43 -102 59 -30 15 -60 33 -67 39 -6 6 -26 17 -45
24 -18 7 -52 21 -75 31 -24 11 -46 19 -50 19 -5 1 -26 9 -48 20 -22 11 -50 19
-62 20 -13 0 -23 4 -23 8 0 4 -12 9 -27 10 -16 1 -66 9 -113 18 -54 10 -131
16 -210 15 -173 -2 -194 -4 -202 -16 -5 -6 -8 -5 -8 3 0 8 -5 10 -12 6 -13 -8
-20 -10 -81 -17 -21 -3 -47 -13 -57 -22 -11 -10 -26 -15 -33 -12 -8 3 -29 -3
-47 -14 -18 -11 -37 -18 -44 -15 -6 2 -1 8 12 11 12 4 22 12 22 17 0 5 5 6 10
3 6 -3 10 -2 10 3 0 24 205 103 316 121 140 23 185 24 312 10z m1131 -867 c27
-52 91 -239 91 -265 0 -34 -16 -7 -35 58 -9 33 -32 100 -51 149 -19 48 -34 90
-34 92 0 13 12 -1 29 -34z m8966 17 c152 -27 367 -118 489 -208 72 -53 75 -62
10 -34 -22 9 -42 18 -46 19 -5 1 -10 3 -13 4 -8 4 -24 7 -39 9 -8 0 -21 8 -30
16 -8 9 -19 14 -24 13 -4 -2 -24 5 -43 14 -95 46 -294 88 -444 93 -49 1 -90 3
-90 4 0 7 -36 8 -39 2 -3 -4 -25 -6 -50 -5 -26 1 -48 -2 -51 -6 -2 -4 -33 -6
-69 -4 -45 2 -68 -2 -76 -11 -6 -8 -20 -12 -31 -10 -11 2 -17 0 -14 -4 2 -5
-10 -12 -28 -16 -17 -4 -39 -10 -47 -12 -8 -3 -35 -7 -60 -9 -25 -3 -46 -9
-48 -14 -2 -6 -15 -10 -28 -10 -13 0 -24 -4 -24 -8 0 -10 -79 -36 -87 -29 -6
6 148 98 212 127 114 51 212 75 385 94 50 5 215 -3 285 -15z m-895 -219 c0 -5
-5 -10 -11 -10 -5 0 -7 5 -4 10 3 6 8 10 11 10 2 0 4 -4 4 -10z m-165 -90 c-3
-5 -12 -10 -18 -10 -7 0 -6 4 3 10 19 12 23 12 15 0z m-7470 -35 c201 -15 600
-49 715 -61 30 -3 109 -9 175 -13 66 -4 135 -14 153 -22 30 -13 5 -14 -235
-13 -147 0 -299 5 -338 12 -38 6 -126 13 -195 16 -69 3 -177 8 -240 11 -63 3
-126 7 -140 9 -14 3 -72 7 -130 11 -114 7 -137 17 -127 57 6 24 8 24 79 17 40
-5 167 -15 283 -24z m9735 -614 c21 -48 48 -123 60 -166 27 -94 50 -216 40
-210 -4 3 -11 22 -15 42 -12 66 -103 328 -145 419 -22 48 -40 90 -40 93 1 16
65 -100 100 -178z m-3770 90 c225 -23 1004 -99 1060 -103 32 -3 35 -6 38 -36
l3 -33 -78 6 c-120 8 -183 14 -243 21 -63 8 -50 6 -200 27 -63 9 -144 19 -180
21 -36 3 -81 8 -100 11 -19 3 -87 7 -151 10 -64 2 -143 11 -175 19 -33 8 -102
22 -154 30 -53 9 -111 21 -130 26 -19 6 -60 10 -90 10 -41 0 -51 3 -40 11 20
14 185 6 440 -20z"/>
<path d="M16896 28953 c-6 -14 -5 -15 5 -6 7 7 10 15 7 18 -3 3 -9 -2 -12 -12z"/>
<path d="M17070 28959 c0 -5 5 -7 10 -4 6 3 10 8 10 11 0 2 -4 4 -10 4 -5 0
-10 -5 -10 -11z"/>
<path d="M16940 28950 c-9 -6 -10 -10 -3 -10 6 0 15 5 18 10 8 12 4 12 -15 0z"/>
<path d="M16990 28950 c0 -5 5 -10 11 -10 5 0 7 5 4 10 -3 6 -8 10 -11 10 -2
0 -4 -4 -4 -10z"/>
<path d="M17191 28941 c-8 -5 -9 -11 -3 -15 5 -3 12 1 16 9 6 17 6 18 -13 6z"/>
<path d="M16854 28918 c-19 -23 -19 -23 2 -5 11 9 24 14 29 10 4 -5 5 -2 1 5
-9 16 -10 16 -32 -10z"/>
<path d="M17066 28903 c-6 -14 -5 -15 5 -6 7 7 10 15 7 18 -3 3 -9 -2 -12 -12z"/>
<path d="M16911 28894 c0 -11 3 -14 6 -6 3 7 2 16 -1 19 -3 4 -6 -2 -5 -13z"/>
<path d="M16731 28884 c0 -11 3 -14 6 -6 3 7 2 16 -1 19 -3 4 -6 -2 -5 -13z"/>
<path d="M16810 28885 c0 -8 2 -15 4 -15 2 0 6 7 10 15 3 8 1 15 -4 15 -6 0
-10 -7 -10 -15z"/>
<path d="M17248 28893 c6 -3 10 -9 6 -14 -8 -14 2 -11 14 4 8 10 6 13 -11 14
-12 0 -16 -1 -9 -4z"/>
<path d="M16777 28883 c-3 -5 -1 -17 4 -28 6 -17 7 -16 6 8 -1 28 -3 32 -10
20z"/>
<path d="M16872 28862 c-1 -15 -7 -28 -12 -30 -19 -7 -10 -22 13 -21 12 0 16
3 9 6 -6 2 -10 9 -6 14 9 16 13 48 6 53 -4 3 -9 -7 -10 -22z"/>
<path d="M17200 28875 c8 -10 9 -15 2 -15 -6 0 -14 5 -17 10 -3 6 -10 10 -16
10 -5 0 0 -9 11 -20 21 -21 37 -25 32 -8 -2 6 6 8 18 5 29 -7 25 -1 -11 17
-26 13 -29 13 -19 1z"/>
<path d="M16750 28851 c0 -6 4 -13 10 -16 6 -3 7 1 4 9 -7 18 -14 21 -14 7z"/>
<path d="M17510 28851 c0 -6 4 -13 10 -16 6 -3 7 1 4 9 -7 18 -14 21 -14 7z"/>
<path d="M16472 28831 c7 -9 13 -18 15 -20 1 -2 1 5 0 16 0 11 -7 20 -14 20
-10 0 -10 -4 -1 -16z"/>
<path d="M17596 28841 c-4 -5 -2 -12 3 -15 5 -4 12 -2 15 3 4 5 2 12 -3 15 -5
4 -12 2 -15 -3z"/>
<path d="M17631 28828 c-1 -10 -6 -18 -13 -18 -17 0 7 -23 27 -26 11 -2 12 2
6 14 -4 10 -11 24 -14 32 -4 12 -6 11 -6 -2z"/>
<path d="M17035 28819 c-4 -6 -4 -13 -1 -16 3 -4 6 -1 6 6 0 7 5 9 12 5 7 -4
8 -3 4 4 -9 15 -13 15 -21 1z"/>
<path d="M17315 28820 c-3 -5 -2 -10 4 -10 5 0 13 5 16 10 3 6 2 10 -4 10 -5
0 -13 -4 -16 -10z"/>
<path d="M17220 28811 c0 -5 7 -11 15 -15 8 -3 15 -1 15 3 0 5 -7 11 -15 15
-8 3 -15 1 -15 -3z"/>
<path d="M16580 28795 c-7 -9 -11 -17 -9 -20 3 -2 10 5 17 15 14 24 10 26 -8
5z"/>
<path d="M16666 28798 c3 -5 10 -6 15 -3 13 9 11 12 -6 12 -8 0 -12 -4 -9 -9z"/>
<path d="M17262 28805 c4 -4 3 -14 -4 -22 -6 -7 -8 -16 -5 -19 3 -3 10 3 16
15 8 15 8 22 -1 27 -7 4 -10 4 -6 -1z"/>
<path d="M17570 28791 c12 -9 10 -11 -12 -11 -16 0 -28 -4 -28 -9 0 -15 18
-22 25 -10 4 5 14 8 22 5 10 -4 13 0 11 11 -2 9 -10 18 -18 20 -13 4 -13 3 0
-6z"/>
<path d="M17405 28741 c-3 -5 -1 -12 5 -16 5 -3 10 1 10 9 0 18 -6 21 -15 7z"/>
<path d="M17609 28734 c-7 -51 -6 -64 2 -70 6 -3 16 -1 22 5 6 6 17 11 25 11
12 0 12 -3 2 -15 -7 -8 -19 -15 -26 -15 -8 0 -14 -4 -14 -8 0 -4 9 -8 19 -8
11 0 18 3 15 7 -2 4 6 9 18 12 21 6 21 7 5 25 -10 11 -15 26 -12 34 3 8 0 15
-7 15 -7 0 -21 4 -30 8 -10 4 -19 3 -19 -1z m29 -23 c-8 -3 -14 -14 -12 -24 1
-11 0 -16 -4 -13 -8 9 -12 38 -6 47 3 5 12 5 21 2 14 -6 15 -7 1 -12z"/>
<path d="M17940 28736 c0 -2 7 -7 16 -10 8 -3 12 -2 9 4 -6 10 -25 14 -25 6z"/>
<path d="M16483 28723 c4 -3 -1 -15 -10 -25 -10 -11 -13 -19 -8 -18 19 4 50
-2 38 -7 -7 -2 -13 -14 -13 -24 0 -11 -5 -17 -10 -14 -6 4 -8 10 -5 15 3 5 1
11 -5 15 -5 3 -10 -1 -10 -11 0 -14 -3 -14 -15 -4 -13 11 -14 10 -9 -5 6 -14
4 -16 -6 -10 -8 5 -11 4 -6 -3 3 -6 15 -9 26 -7 11 2 22 0 25 -6 4 -5 13 -2
22 7 13 13 18 13 25 2 7 -9 8 -7 3 7 -4 11 -8 26 -9 34 -2 8 -11 18 -22 22
-10 4 -14 8 -8 8 19 1 26 31 7 31 -9 0 -13 -3 -10 -7z"/>
<path d="M17808 28722 c-15 -6 -14 -9 7 -19 15 -6 27 -7 31 -2 3 5 -2 9 -11 9
-9 0 -13 5 -10 10 7 11 7 11 -17 2z"/>
<path d="M17385 28709 c-9 -14 -2 -20 14 -10 8 6 9 11 3 15 -6 3 -14 1 -17 -5z"/>
<path d="M17820 28669 c0 -5 5 -7 10 -4 6 3 10 8 10 11 0 2 -4 4 -10 4 -5 0
-10 -5 -10 -11z"/>
<path d="M18016 28625 c-11 -8 -15 -15 -9 -15 6 0 16 7 23 15 16 19 11 19 -14
0z"/>
<path d="M18165 28630 c3 -5 8 -10 11 -10 2 0 4 5 4 10 0 6 -5 10 -11 10 -5 0
-7 -4 -4 -10z"/>
<path d="M16411 28583 c8 -10 9 -14 2 -10 -6 4 -14 3 -18 -3 -4 -6 -11 -8 -16
-5 -5 4 -9 2 -9 -3 0 -16 25 -20 43 -7 18 13 14 45 -5 45 -6 0 -4 -8 3 -17z"/>
<path d="M17983 28584 c-5 -13 -8 -13 -15 -2 -8 10 -9 9 -4 -4 3 -10 -2 -22
-12 -27 -11 -7 -12 -11 -4 -11 7 0 10 -5 6 -12 -4 -7 -3 -8 5 -4 6 4 9 11 6
16 -3 5 4 14 15 20 11 6 18 15 15 20 -3 6 1 7 9 4 9 -3 16 -4 16 -1 0 14 -31
15 -37 1z"/>
<path d="M18080 28570 c11 -20 30 -28 30 -12 0 11 -22 32 -32 32 -5 0 -4 -9 2
-20z"/>
<path d="M18123 28565 c0 -14 3 -25 8 -25 5 0 8 11 7 25 -1 14 -5 25 -9 25 -4
0 -6 -11 -6 -25z"/>
<path d="M18002 28539 c-2 -19 1 -28 8 -24 6 3 8 11 4 16 -3 5 0 16 6 24 10
12 10 15 -2 15 -8 0 -15 -12 -16 -31z"/>
<path d="M16290 28525 c0 -8 4 -15 10 -15 5 0 7 7 4 15 -4 8 -8 15 -10 15 -2
0 -4 -7 -4 -15z"/>
<path d="M18185 28520 c4 -6 11 -8 16 -5 14 9 11 15 -7 15 -8 0 -12 -5 -9 -10z"/>
<path d="M16140 28495 c7 -8 17 -12 24 -8 6 3 -1 -6 -17 -22 -15 -15 -24 -31
-21 -34 4 -3 9 -1 11 6 2 7 10 10 17 7 17 -6 28 22 20 49 -5 16 -8 17 -15 6
-6 -10 -9 -11 -9 -1 0 6 -5 12 -11 12 -8 0 -8 -5 1 -15z"/>
<path d="M16295 28490 c3 -5 8 -10 11 -10 2 0 4 5 4 10 0 6 -5 10 -11 10 -5 0
-7 -4 -4 -10z"/>
<path d="M16285 28440 c3 -5 8 -10 11 -10 2 0 4 5 4 10 0 6 -5 10 -11 10 -5 0
-7 -4 -4 -10z"/>
<path d="M16070 28410 c0 -5 7 -10 15 -10 8 0 15 5 15 10 0 6 -7 10 -15 10 -8
0 -15 -4 -15 -10z"/>
<path d="M16114 28383 c2 -10 6 -17 10 -16 15 3 16 11 2 22 -12 10 -14 9 -12
-6z"/>
<path d="M16200 28396 c0 -2 7 -6 15 -10 8 -3 15 -1 15 4 0 6 -7 10 -15 10 -8
0 -15 -2 -15 -4z"/>
<path d="M15910 28369 c0 -5 5 -7 10 -4 6 3 10 8 10 11 0 2 -4 4 -10 4 -5 0
-10 -5 -10 -11z"/>
<path d="M15963 28373 c4 -3 2 -12 -5 -20 -8 -11 -7 -12 6 -7 18 7 22 34 4 34
-6 0 -8 -3 -5 -7z"/>
<path d="M15916 28341 c-3 -5 2 -15 12 -22 15 -13 16 -12 4 3 -10 13 -10 17 0
21 9 4 9 6 1 6 -6 1 -14 -3 -17 -8z"/>
<path d="M15955 28309 c-4 -6 -5 -12 -2 -15 2 -3 7 2 10 11 7 17 1 20 -8 4z"/>
<path d="M15873 28298 c4 -11 2 -18 -5 -18 -9 0 -9 -3 0 -12 10 -10 15 -10 21
1 7 11 9 11 14 0 4 -11 6 -11 6 -1 1 7 5 11 10 7 18 -10 21 13 4 26 -10 8 -14
9 -10 2 12 -20 -10 -24 -29 -6 -17 17 -18 17 -11 1z"/>
<path d="M15989 28213 c-13 -16 -12 -17 4 -4 9 7 17 15 17 17 0 8 -8 3 -21
-13z"/>
<path d="M10133 27683 c-12 -2 -24 -11 -27 -19 -5 -12 -1 -12 24 1 17 9 30 18
30 20 0 3 -1 4 -2 4 -2 -1 -13 -4 -25 -6z"/>
<path d="M8781 27656 c-16 -22 -22 -41 -6 -21 9 11 20 20 25 20 4 0 11 3 14 6
3 3 -1 6 -9 6 -8 0 -19 -5 -24 -11z"/>
<path d="M8838 27653 c7 -3 16 -2 19 1 4 3 -2 6 -13 5 -11 0 -14 -3 -6 -6z"/>
<path d="M8911 27651 c-7 -5 -9 -11 -5 -14 5 -3 15 1 22 9 14 16 5 18 -17 5z"/>
<path d="M9655 27650 c6 -10 4 -12 -8 -7 -10 4 -16 2 -14 -6 1 -7 -7 -12 -19
-11 -11 0 -21 -5 -21 -12 0 -9 6 -9 21 -3 12 5 29 12 39 15 20 7 22 20 5 30
-7 5 -8 3 -3 -6z"/>
<path d="M10045 27650 c-3 -5 -1 -10 4 -10 6 0 11 5 11 10 0 6 -2 10 -4 10 -3
0 -8 -4 -11 -10z"/>
<path d="M8336 27624 c-8 -20 -8 -24 2 -24 4 0 8 9 9 20 2 24 -3 26 -11 4z"/>
<path d="M8790 27631 c0 -6 4 -13 10 -16 6 -3 7 1 4 9 -7 18 -14 21 -14 7z"/>
<path d="M8870 27636 c0 -2 7 -7 16 -10 8 -3 12 -2 9 4 -6 10 -25 14 -25 6z"/>
<path d="M9696 27603 c-6 -14 -5 -15 5 -6 7 7 10 15 7 18 -3 3 -9 -2 -12 -12z"/>
<path d="M23695 22090 c-3 -5 -1 -10 4 -10 6 0 11 5 11 10 0 6 -2 10 -4 10 -3
0 -8 -4 -11 -10z"/>
<path d="M23505 22040 c4 -6 11 -8 16 -5 14 9 11 15 -7 15 -8 0 -12 -5 -9 -10z"/>
<path d="M23276 22011 c-3 -5 1 -11 9 -14 9 -4 12 -1 8 9 -6 16 -10 17 -17 5z"/>
<path d="M10240 16335 c-3 -177 -14 -356 -26 -420 -9 -44 -97 -408 -196 -810
-99 -401 -180 -752 -181 -780 l-2 -50 125 -7 c245 -13 781 -28 791 -22 13 8 9
29 -101 474 -86 349 -226 919 -351 1435 -42 170 -58 221 -59 180z"/>
<path d="M19538 16913 c7 -3 16 -2 19 1 4 3 -2 6 -13 5 -11 0 -14 -3 -6 -6z"/>
<path d="M20708 16883 c7 -3 16 -2 19 1 4 3 -2 6 -13 5 -11 0 -14 -3 -6 -6z"/>
<path d="M6821 28525 c0 -11 3 -14 6 -7 2 6 11 12 19 12 8 0 14 4 14 8 0 4 -9
8 -20 8 -14 0 -20 -7 -19 -21z"/>
<path d="M6656 28512 c-4 -6 -13 -9 -21 -6 -17 7 -50 -22 -35 -31 5 -3 20 -1
32 5 20 10 21 9 6 -3 -10 -8 -13 -18 -9 -26 6 -9 10 -8 15 6 7 17 8 17 22 -1
8 -11 14 -15 14 -9 0 7 -5 15 -10 18 -7 5 -8 11 -1 19 5 6 6 18 2 25 -6 9 -11
10 -15 3z"/>
<path d="M5920 28495 c0 -8 2 -15 4 -15 2 0 6 7 10 15 3 8 1 15 -4 15 -6 0
-10 -7 -10 -15z"/>
<path d="M6505 28500 c-3 -6 1 -7 9 -4 18 7 21 14 7 14 -6 0 -13 -4 -16 -10z"/>
<path d="M6787 28493 c3 -7 -2 -13 -10 -13 -24 0 -17 -54 7 -58 11 -3 16 0 11
7 -3 6 -11 9 -16 6 -15 -10 -10 8 9 32 9 12 28 23 42 25 20 3 18 5 -11 9 -27
3 -35 1 -32 -8z"/>
<path d="M6894 28481 c0 -15 3 -17 13 -9 7 6 10 14 7 19 -9 15 -20 10 -20 -10z"/>
<path d="M6980 28496 c0 -3 9 -10 20 -16 11 -6 20 -8 20 -6 0 3 -9 10 -20 16
-11 6 -20 8 -20 6z"/>
<path d="M6930 28468 c-29 -31 -17 -34 13 -4 15 14 22 26 17 26 -5 0 -18 -10
-30 -22z"/>
<path d="M6457 28474 c-3 -4 -2 -16 4 -27 7 -11 7 -17 1 -13 -5 3 -18 -6 -27
-20 -9 -15 -12 -23 -6 -20 6 4 11 0 11 -9 0 -8 -8 -19 -17 -23 -10 -4 -19 -18
-21 -32 -1 -14 -7 -26 -12 -28 -20 -7 -9 -20 11 -15 15 4 19 11 15 25 -2 11
-2 17 1 14 4 -3 12 -1 20 6 11 8 17 8 26 -2 9 -10 9 -11 0 -6 -7 4 -13 2 -13
-4 0 -6 -4 -9 -9 -6 -5 4 -8 -1 -7 -9 4 -26 13 -26 30 0 18 27 14 45 -10 45
-16 0 -19 16 -4 25 8 5 7 11 -1 21 -9 11 -8 14 9 14 11 0 25 7 32 15 9 11 9
15 1 15 -7 0 -9 5 -6 10 3 6 -1 10 -10 10 -9 0 -13 5 -10 10 7 11 2 13 -8 4z"/>
<path d="M7130 28453 c19 -27 26 -30 38 -20 13 10 13 12 -4 16 -10 1 -28 10
-38 20 -15 12 -14 8 4 -16z"/>
<path d="M6707 28450 c-3 -11 -2 -20 3 -20 12 0 21 28 11 35 -5 2 -11 -4 -14
-15z"/>
<path d="M7210 28460 c0 -5 5 -10 11 -10 5 0 7 5 4 10 -3 6 -8 10 -11 10 -2 0
-4 -4 -4 -10z"/>
<path d="M6413 28433 c0 -9 4 -10 14 -2 7 6 13 12 13 14 0 1 -6 2 -13 2 -8 0
-14 -6 -14 -14z"/>
<path d="M7220 28430 c-23 -7 -23 -8 -3 -9 12 -1 25 4 28 9 3 6 5 10 3 9 -2
-1 -14 -5 -28 -9z"/>
<path d="M6580 28424 c0 -6 -11 -10 -24 -9 -18 2 -23 -1 -19 -11 3 -8 9 -14
15 -14 5 0 6 5 3 10 -8 13 8 13 22 -1 14 -14 24 3 12 21 -5 8 -9 10 -9 4z"/>
<path d="M7176 28413 c-6 -14 -5 -15 5 -6 7 7 10 15 7 18 -3 3 -9 -2 -12 -12z"/>
<path d="M6509 28407 c13 -16 13 -20 0 -28 -11 -7 -11 -9 4 -9 9 0 17 6 17 14
0 7 -8 20 -17 27 -17 13 -17 12 -4 -4z"/>
<path d="M6674 28394 c-10 -8 -13 -12 -5 -8 7 3 17 0 22 -7 6 -10 8 -7 6 9 0
12 -2 22 -2 22 -1 0 -10 -7 -21 -16z"/>
<path d="M6718 28403 c6 -2 18 -2 25 0 6 3 1 5 -13 5 -14 0 -19 -2 -12 -5z"/>
<path d="M7091 28394 c0 -11 3 -14 6 -6 3 7 2 16 -1 19 -3 4 -6 -2 -5 -13z"/>
<path d="M7347 28399 c7 -7 15 -10 18 -7 3 3 -2 9 -12 12 -14 6 -15 5 -6 -5z"/>
<path d="M6750 28390 c-9 -6 -10 -10 -3 -10 6 0 15 5 18 10 8 12 4 12 -15 0z"/>
<path d="M6886 28385 c4 -8 8 -15 10 -15 2 0 4 7 4 15 0 8 -4 15 -10 15 -5 0
-7 -7 -4 -15z"/>
<path d="M7324 28385 c11 -8 24 -15 30 -15 5 0 1 7 -10 15 -10 8 -23 14 -29
14 -5 0 -1 -6 9 -14z"/>
<path d="M5841 28376 c-8 -9 -8 -21 -1 -40 12 -32 16 -33 22 -1 4 16 1 22 -6
18 -6 -4 -5 0 2 9 8 9 9 19 4 22 -6 3 -15 0 -21 -8z"/>
<path d="M6780 28364 c0 -22 3 -25 9 -14 6 8 7 18 5 22 -3 4 2 5 10 2 9 -3 13
-10 10 -15 -3 -5 0 -9 5 -9 6 0 11 7 11 15 0 8 -4 15 -9 15 -5 0 -16 3 -25 6
-12 5 -16 0 -16 -22z"/>
<path d="M6593 28366 c3 -6 10 -10 17 -8 7 1 18 -3 26 -9 9 -8 14 -8 14 -1 0
6 -6 14 -12 18 -20 12 -49 12 -45 0z"/>
<path d="M6557 28359 c7 -7 15 -10 18 -7 3 3 -2 9 -12 12 -14 6 -15 5 -6 -5z"/>
<path d="M6500 28352 c22 -11 25 -36 3 -28 -14 6 -15 4 -6 -5 6 -6 16 -8 21
-5 17 10 7 41 -14 43 -14 2 -15 1 -4 -5z"/>
<path d="M6746 28337 c3 -10 9 -15 12 -12 3 3 0 11 -7 18 -10 9 -11 8 -5 -6z"/>
<path d="M7505 28340 c3 -5 8 -10 11 -10 2 0 4 5 4 10 0 6 -5 10 -11 10 -5 0
-7 -4 -4 -10z"/>
<path d="M6241 28324 c-1 -6 5 -17 12 -23 10 -8 14 -7 14 4 0 8 -4 12 -8 9 -4
-2 -10 2 -12 8 -4 8 -6 9 -6 2z"/>
<path d="M6172 28286 c-2 -26 28 -59 44 -48 6 4 14 18 18 32 3 14 3 19 0 13
-8 -19 -24 -16 -24 5 -1 13 -4 11 -16 -8 -13 -22 -14 -22 -9 -3 3 12 2 24 -2
26 -5 3 -10 -5 -11 -17z"/>
<path d="M7403 28279 c-1 -10 2 -19 8 -19 11 0 12 27 1 34 -4 2 -9 -4 -9 -15z"/>
<path d="M7503 28285 c0 -8 4 -12 9 -9 5 3 6 10 3 15 -9 13 -12 11 -12 -6z"/>
<path d="M6093 28263 c-15 -5 -18 -33 -4 -33 8 0 25 30 19 35 -2 1 -9 0 -15
-2z"/>
<path d="M7348 28263 c7 -3 16 -2 19 1 4 3 -2 6 -13 5 -11 0 -14 -3 -6 -6z"/>
<path d="M7435 28261 c-3 -5 -2 -12 3 -15 5 -3 9 1 9 9 0 17 -3 19 -12 6z"/>
<path d="M7473 28258 c3 -9 1 -19 -6 -22 -9 -3 -8 -5 1 -5 7 -1 11 -5 8 -9 -3
-5 1 -9 9 -9 19 0 18 17 -2 42 -12 15 -14 16 -10 3z"/>
<path d="M7610 28206 c0 -2 7 -7 16 -10 8 -3 12 -2 9 4 -6 10 -25 14 -25 6z"/>
<path d="M7540 28190 c0 -5 5 -10 11 -10 5 0 7 5 4 10 -3 6 -8 10 -11 10 -2 0
-4 -4 -4 -10z"/>
<path d="M7615 28160 c-3 -5 -1 -10 4 -10 6 0 11 5 11 10 0 6 -2 10 -4 10 -3
0 -8 -4 -11 -10z"/>
<path d="M8026 28063 c-6 -14 -5 -15 5 -6 7 7 10 15 7 18 -3 3 -9 -2 -12 -12z"/>
<path d="M7725 28049 c-11 -16 -1 -19 13 -3 7 8 8 14 3 14 -5 0 -13 -5 -16
-11z"/>
<path d="M7693 28014 c9 -11 14 -24 10 -27 -3 -4 -2 -7 4 -7 6 0 14 8 17 17 4
10 4 14 0 10 -4 -4 -17 1 -28 10 -21 18 -21 18 -3 -3z"/>
<path d="M7745 28020 c3 -5 8 -10 11 -10 2 0 4 5 4 10 0 6 -5 10 -11 10 -5 0
-7 -4 -4 -10z"/>
<path d="M7770 28016 c0 -2 7 -7 16 -10 8 -3 12 -2 9 4 -6 10 -25 14 -25 6z"/>
<path d="M7742 27995 c4 -4 3 -14 -3 -21 -7 -9 -7 -19 0 -32 6 -11 7 -22 4
-26 -3 -3 -1 -6 6 -6 8 0 10 7 6 20 -4 14 -2 20 9 20 19 0 30 -17 14 -22 -13
-5 -2 -28 13 -28 7 0 7 29 -1 50 -2 3 -2 7 -2 10 0 3 -12 14 -26 24 -15 11
-24 16 -20 11z"/>
<path d="M7975 27951 c-3 -5 -2 -12 3 -15 5 -3 9 1 9 9 0 17 -3 19 -12 6z"/>
<path d="M7866 27923 c-4 -9 -3 -20 2 -25 6 -6 10 1 10 16 0 30 -3 32 -12 9z"/>
<path d="M15305 27910 c3 -5 8 -10 11 -10 2 0 4 5 4 10 0 6 -5 10 -11 10 -5 0
-7 -4 -4 -10z"/>
<path d="M15186 27877 c3 -10 9 -15 12 -12 3 3 0 11 -7 18 -10 9 -11 8 -5 -6z"/>
<path d="M7742 27869 c2 -6 8 -10 13 -10 5 0 11 4 13 10 2 6 -4 11 -13 11 -9
0 -15 -5 -13 -11z"/>
<path d="M15027 27863 c-4 -6 -15 -9 -26 -6 -21 5 -37 -22 -19 -33 6 -4 8 -3
4 4 -3 6 -2 13 4 17 5 3 10 1 10 -6 0 -9 3 -9 14 0 8 6 19 10 26 9 7 -2 15 4
17 12 4 12 3 12 -5 1 -8 -11 -10 -11 -14 0 -3 9 -6 10 -11 2z"/>
<path d="M15428 27863 c7 -3 16 -2 19 1 4 3 -2 6 -13 5 -11 0 -14 -3 -6 -6z"/>
<path d="M14620 27840 c0 -5 -1 -13 -2 -17 -2 -3 5 -7 14 -9 15 -2 16 1 8 17
-12 21 -20 25 -20 9z"/>
<path d="M13210 27818 c0 -5 9 -12 20 -15 16 -4 18 -8 9 -19 -7 -9 -8 -14 -1
-14 15 0 24 32 12 44 -14 14 -40 17 -40 4z"/>
<path d="M14030 27821 c0 -10 19 -25 25 -20 1 2 -3 10 -11 17 -8 7 -14 8 -14
3z"/>
<path d="M14848 27823 c7 -3 16 -2 19 1 4 3 -2 6 -13 5 -11 0 -14 -3 -6 -6z"/>
<path d="M15020 27820 c0 -5 5 -10 11 -10 5 0 7 5 4 10 -3 6 -8 10 -11 10 -2
0 -4 -4 -4 -10z"/>
<path d="M13640 27810 c-8 -5 -11 -12 -7 -16 4 -4 13 -2 19 4 15 15 7 24 -12
12z"/>
<path d="M14177 27809 c7 -7 15 -10 18 -7 3 3 -2 9 -12 12 -14 6 -15 5 -6 -5z"/>
<path d="M13907 27803 c-10 -9 -9 -23 1 -23 5 0 9 7 9 15 0 17 -1 18 -10 8z"/>
<path d="M14317 27791 c3 -12 11 -17 19 -14 8 3 14 6 12 7 -2 1 -11 7 -20 14
-14 11 -16 10 -11 -7z"/>
<path d="M13735 27790 c3 -5 8 -10 11 -10 2 0 4 5 4 10 0 6 -5 10 -11 10 -5 0
-7 -4 -4 -10z"/>
<path d="M14371 27795 c-1 -6 5 -17 12 -24 8 -10 8 -12 0 -7 -6 3 -14 2 -18
-4 -3 -5 -2 -10 4 -10 5 0 17 -3 26 -7 15 -5 16 -3 7 14 -6 11 -8 24 -4 28 4
5 2 5 -5 2 -6 -4 -14 -1 -16 5 -3 7 -6 8 -6 3z"/>
<path d="M13868 27773 c7 -3 16 -2 19 1 4 3 -2 6 -13 5 -11 0 -14 -3 -6 -6z"/>
<path d="M14337 27763 c-4 -3 -7 -13 -7 -22 1 -13 3 -13 11 2 11 19 8 33 -4
20z"/>
<path d="M13740 27756 c0 -2 7 -7 16 -10 8 -3 12 -2 9 4 -6 10 -25 14 -25 6z"/>
<path d="M9792 24640 c0 -14 2 -19 5 -12 2 6 2 18 0 25 -3 6 -5 1 -5 -13z"/>
<path d="M925 21890 c3 -5 8 -10 11 -10 2 0 4 5 4 10 0 6 -5 10 -11 10 -5 0
-7 -4 -4 -10z"/>
<path d="M22317 21420 c-3 -11 -2 -20 3 -20 4 0 10 9 13 20 3 11 2 20 -3 20
-4 0 -10 -9 -13 -20z"/>
<path d="M14660 21181 c0 -6 4 -13 10 -16 6 -3 7 1 4 9 -7 18 -14 21 -14 7z"/>
<path d="M10976 21168 c3 -5 10 -6 15 -3 13 9 11 12 -6 12 -8 0 -12 -4 -9 -9z"/>
<path d="M13628 21163 c7 -3 16 -2 19 1 4 3 -2 6 -13 5 -11 0 -14 -3 -6 -6z"/>
<path d="M6567 20923 c-4 -3 -7 -13 -7 -22 1 -13 3 -13 11 2 11 19 8 33 -4 20z"/>
<path d="M15801 2658 c-14 -23 -14 -23 8 -4 22 20 25 26 13 26 -4 0 -13 -10
-21 -22z"/>
<path d="M15737 2543 c-4 -3 -7 -11 -7 -17 0 -6 5 -5 12 2 6 6 9 14 7 17 -3 3
-9 2 -12 -2z"/>
</g>
</svg>
