<?xml version="1.0" standalone="no"?>
<!DOCTYPE svg PUBLIC "-//W3C//DTD SVG 20010904//EN"
 "http://www.w3.org/TR/2001/REC-SVG-20010904/DTD/svg10.dtd">
<svg version="1.0" xmlns="http://www.w3.org/2000/svg"
 width="70.000000pt" height="67.000000pt" viewBox="0 0 70.000000 67.000000"
 preserveAspectRatio="xMidYMid meet">

<g transform="translate(0.000000,67.000000) scale(0.100000,-0.100000)"
fill="#000000" stroke="none">
<path d="M0 335 l0 -335 350 0 350 0 0 335 0 335 -350 0 -350 0 0 -335z m482
296 c56 -35 94 -108 103 -196 4 -33 16 -78 27 -101 24 -46 19 -74 -12 -74 -13
0 -20 -7 -21 -20 -2 -33 -4 -38 -11 -46 -5 -4 -8 -24 -8 -44 0 -50 -17 -62
-82 -58 l-53 3 -3 38 c-3 40 -12 46 -32 22 -8 -9 -29 -15 -56 -15 -23 0 -46
-4 -49 -10 -9 -15 -41 -12 -55 5 -18 21 -3 55 25 55 13 0 27 -4 30 -10 9 -14
76 -12 108 3 20 9 27 19 27 40 0 23 -4 27 -30 27 -17 0 -39 -5 -49 -12 -24
-15 -51 -4 -51 22 0 26 27 37 51 22 10 -7 32 -12 49 -12 28 0 30 2 30 40 0 39
-1 40 -34 40 -19 0 -38 -4 -41 -10 -10 -17 -75 -12 -75 5 0 18 -47 20 -84 4
-31 -15 -59 3 -54 35 3 24 43 35 61 17 6 -6 30 -11 54 -11 36 0 43 -3 43 -20
0 -21 24 -28 35 -10 3 6 26 10 51 10 40 0 44 2 44 25 0 21 -5 25 -29 25 -17 0
-33 5 -36 10 -8 13 -78 13 -92 -1 -6 -6 -21 -9 -34 -7 -18 2 -24 9 -24 27 0
32 29 50 55 33 11 -6 38 -12 59 -12 22 0 43 -4 46 -10 3 -5 17 -10 31 -10 22
0 24 4 24 45 0 41 -2 45 -25 45 -14 0 -33 -4 -43 -9 -60 -31 -73 -34 -83 -24
-6 6 -9 19 -7 29 3 15 12 19 45 16 23 -1 44 2 48 8 3 5 19 10 36 10 19 0 29 5
29 15 0 19 -39 19 -64 0 -25 -19 -58 -2 -54 27 5 33 33 46 56 25 26 -24 62
-22 62 3 0 26 8 25 62 -9z"/>
<path d="M320 610 c0 -5 4 -10 9 -10 6 0 13 5 16 10 3 6 -1 10 -9 10 -9 0 -16
-4 -16 -10z"/>
<path d="M230 454 c0 -8 5 -12 10 -9 6 4 8 11 5 16 -9 14 -15 11 -15 -7z"/>
<path d="M535 391 c-19 -8 -19 -8 1 -19 23 -12 34 -7 34 15 0 14 -6 15 -35 4z"/>
<path d="M160 380 c0 -5 5 -10 10 -10 6 0 10 5 10 10 0 6 -4 10 -10 10 -5 0
-10 -4 -10 -10z"/>
<path d="M250 160 c0 -5 5 -10 10 -10 6 0 10 5 10 10 0 6 -4 10 -10 10 -5 0
-10 -4 -10 -10z"/>
</g>
</svg>
