<?xml version="1.0" standalone="no"?>
<!DOCTYPE svg PUBLIC "-//W3C//DTD SVG 20010904//EN"
 "http://www.w3.org/TR/2001/REC-SVG-20010904/DTD/svg10.dtd">
<svg version="1.0" xmlns="http://www.w3.org/2000/svg"
 width="464.000000pt" height="538.000000pt" viewBox="0 0 464.000000 538.000000"
 preserveAspectRatio="xMidYMid meet">

<g transform="translate(0.000000,538.000000) scale(0.100000,-0.100000)"
fill="#000000" stroke="none">
<path d="M3194 5335 c8 -8 22 -15 31 -15 9 0 13 -4 10 -10 -3 -5 -2 -10 3 -10
5 0 12 -9 15 -20 3 -11 1 -20 -4 -20 -5 0 -9 5 -9 10 0 24 -31 7 -36 -20 l-6
-30 -94 0 c-76 0 -94 3 -94 15 0 9 6 12 15 9 10 -4 15 0 15 15 0 29 -50 30
-57 1 -5 -19 -16 -25 -37 -21 -5 1 -4 -4 2 -12 18 -22 -5 -80 -29 -74 -10 3
-20 -2 -24 -12 -6 -14 -8 -14 -14 3 -6 17 -9 16 -26 -10 -10 -16 -25 -34 -33
-40 -8 -6 -12 -16 -8 -22 10 -17 -10 -23 -24 -7 -10 12 -10 15 1 15 10 0 10 3
2 11 -7 7 -19 9 -28 5 -14 -5 -15 -9 -6 -20 20 -23 -21 -29 -80 -12 -47 14
-143 22 -111 9 26 -10 11 -31 -29 -38 -34 -6 -44 -4 -60 14 -11 12 -24 19 -30
16 -5 -4 -9 -2 -9 3 0 11 30 25 38 17 3 -3 -1 -5 -9 -5 -10 -1 -9 -4 4 -11 26
-15 42 0 18 18 -24 16 -61 9 -61 -13 0 -8 -4 -14 -10 -14 -5 0 -7 7 -3 16 5
14 3 15 -15 5 -11 -6 -23 -19 -26 -28 -5 -17 -14 -524 -16 -968 l-2 -200 106
-5 c67 -3 106 -1 106 5 0 6 0 203 0 439 0 236 3 476 6 533 8 121 -7 110 165
118 l116 4 19 -41 c94 -209 388 -209 491 0 24 49 28 68 27 142 0 100 -24 160
-82 211 -37 33 -90 59 -117 59 -15 0 -15 -2 -1 -15z m63 -90 c28 -14 49 -42
40 -51 -8 -9 -87 38 -87 51 0 19 9 19 47 0z"/>
<path d="M3061 5314 c0 -11 3 -14 6 -6 3 7 2 16 -1 19 -3 4 -6 -2 -5 -13z"/>
<path d="M3101 5300 c-20 -17 -21 -20 -5 -17 11 1 20 6 21 11 1 5 7 13 15 17
7 5 9 9 3 9 -5 -1 -21 -10 -34 -20z"/>
<path d="M1345 5264 c11 -8 19 -20 18 -25 -2 -5 3 -9 10 -9 14 0 47 -35 47
-50 0 -6 4 -10 9 -10 6 0 10 -8 9 -17 0 -10 3 -34 7 -53 7 -33 6 -34 -8 -15
-11 14 -25 19 -51 17 -39 -3 -61 12 -68 44 -4 24 -38 32 -38 8 0 -15 -8 -16
-65 -10 -54 5 -65 4 -65 -8 0 -18 -34 -39 -45 -28 -3 4 -13 -2 -21 -12 -14
-19 -14 -19 -14 1 0 12 5 25 10 28 12 7 13 25 2 25 -39 0 -61 -196 -29 -272 8
-18 34 -54 59 -79 34 -36 56 -49 97 -59 64 -15 136 -8 188 19 42 21 97 87 115
137 14 40 24 43 158 44 138 2 130 3 123 -17 -4 -9 -2 -14 3 -10 5 3 10 -6 11
-21 1 -19 0 -22 -5 -10 -4 10 -7 -212 -7 -491 l0 -509 109 -1 c98 -1 108 0
102 16 -4 9 -9 271 -12 582 -6 618 -3 589 -63 612 -32 13 -34 8 -16 -34 l15
-37 -32 7 c-18 3 -39 13 -45 22 -8 10 -15 12 -20 6 -5 -6 -22 -12 -40 -13 -23
-3 -32 1 -36 15 -4 16 -5 16 -6 1 -2 -27 -80 -41 -128 -25 -18 6 -22 5 -18 -6
5 -11 -4 -12 -47 -7 -29 4 -56 6 -59 4 -4 -2 -9 7 -11 21 -6 27 14 51 32 40
16 -10 -20 76 -48 112 -13 18 -48 44 -77 58 -61 28 -80 32 -50 9z m485 -244
c0 -5 -17 -10 -37 -9 -31 0 -34 2 -18 9 28 12 55 12 55 0z"/>
<path d="M1178 5243 c7 -3 16 -2 19 1 4 3 -2 6 -13 5 -11 0 -14 -3 -6 -6z"/>
<path d="M1266 5235 c-19 -14 -18 -15 10 -14 16 0 23 3 16 6 -6 2 -10 9 -6 14
7 12 2 11 -20 -6z"/>
<path d="M2911 5237 c-6 -8 -8 -17 -4 -20 12 -13 22 -7 20 13 -2 24 -1 24 -16
7z"/>
<path d="M1097 5146 c10 -13 20 -19 22 -13 2 6 -1 13 -8 15 -6 2 -9 8 -5 13 3
5 -2 9 -11 9 -14 0 -14 -3 2 -24z"/>
<path d="M2530 5060 c20 -13 33 -13 25 0 -3 6 -14 10 -23 10 -15 0 -15 -2 -2
-10z"/>
<path d="M4354 4041 c22 -8 15 -15 -27 -25 -18 -4 -35 -2 -45 6 -9 8 -13 8 -9
2 8 -13 -19 -27 -34 -18 -5 3 -23 -4 -39 -16 -16 -12 -35 -18 -41 -14 -8 4 -9
3 -5 -4 4 -7 2 -12 -5 -12 -19 0 -78 -69 -85 -98 -3 -15 -10 -40 -15 -56 -34
-108 19 -239 125 -310 l58 -38 -4 -179 c-2 -130 -6 -182 -15 -187 -7 -5 -55
-9 -105 -11 -51 -1 -104 -5 -118 -7 -20 -5 -22 -3 -10 5 9 7 10 11 3 11 -6 0
-14 -4 -17 -9 -7 -11 -277 -8 -296 4 -22 14 -50 17 -50 5 0 -6 -18 -10 -40
-10 -22 0 -40 4 -40 8 0 5 -7 9 -15 9 -9 0 -11 -4 -6 -11 7 -8 -4 -10 -36 -7
-31 2 -41 6 -32 12 9 6 2 9 -24 9 -23 0 -36 -4 -32 -10 4 -6 -11 -10 -39 -8
-25 0 -43 5 -39 11 3 5 -4 6 -17 2 -15 -5 -20 -4 -16 4 4 6 2 11 -3 11 -7 0
-11 59 -11 178 -1 264 -14 420 -38 469 -40 77 -116 124 -202 122 l-35 0 53
-24 c28 -13 52 -26 52 -30 0 -6 -49 4 -65 14 -17 10 -35 11 -225 15 -102 3
-189 5 -193 5 -5 1 -5 7 -1 14 6 10 4 10 -7 0 -7 -7 -17 -13 -22 -13 -4 0 -5
6 -2 13 4 6 1 5 -7 -4 -10 -12 -30 -15 -88 -12 -41 1 -88 5 -105 7 -16 2 -38
-2 -49 -10 -12 -8 -25 -10 -36 -4 -9 5 -70 9 -136 8 -65 0 -127 3 -137 7 -10
4 -21 5 -24 1 -4 -3 2 -7 13 -7 11 -1 7 -4 -11 -8 -16 -4 -35 -3 -42 2 -7 5
-45 6 -85 4 -43 -3 -78 -1 -85 5 -9 7 -13 7 -13 0 0 -8 -55 -11 -173 -11 -94
0 -188 -2 -207 -4 -19 -2 -57 -4 -83 -5 -27 -1 -46 -6 -42 -11 3 -5 1 -13 -5
-16 -6 -4 -10 -3 -9 2 3 20 -2 23 -22 13 -11 -7 -19 -14 -16 -16 3 -3 -8 -19
-23 -36 -40 -44 -49 -109 -51 -378 0 -129 -1 -240 -2 -247 -1 -22 -49 -33
-145 -33 -281 -1 -650 16 -638 28 3 3 0 12 -7 20 -8 10 -13 65 -16 166 l-3
151 52 44 c74 62 105 131 103 231 -1 121 -60 214 -155 246 -70 23 -76 14 -17
-26 52 -36 125 -135 81 -111 -11 6 -26 24 -34 41 -8 19 -18 28 -27 25 -9 -4
-11 0 -7 11 5 12 1 14 -15 9 -15 -5 -19 -4 -15 4 13 20 -54 34 -87 18 -10 -5
-26 -5 -35 -1 -30 13 -41 12 -46 -3 -3 -8 -11 -11 -17 -7 -7 4 -9 3 -5 -4 3
-6 -3 -13 -14 -17 -51 -16 -95 -183 -71 -272 14 -51 68 -134 97 -148 55 -27
54 -23 54 -243 0 -240 7 -278 58 -299 26 -11 133 -16 460 -24 235 -5 433 -12
440 -14 9 -3 12 -55 12 -214 l0 -209 -27 -18 c-24 -15 -47 -17 -168 -16 -331
6 -470 13 -481 27 -6 8 -15 10 -23 5 -8 -4 -57 -7 -110 -5 -69 2 -102 -1 -118
-11 -34 -22 -43 -92 -38 -314 3 -136 1 -199 -6 -194 -6 3 -17 -2 -25 -12 -9
-11 -12 -12 -8 -4 8 17 -29 -12 -58 -45 -26 -29 -58 -120 -58 -163 0 -86 52
-197 112 -238 134 -93 321 -12 357 155 20 94 -20 225 -84 278 -16 13 -38 31
-47 39 -16 12 -18 34 -18 174 0 130 3 162 14 166 8 3 111 1 228 -5 117 -6 286
-14 376 -18 98 -4 166 -10 171 -17 5 -6 11 -132 14 -281 3 -148 9 -282 14
-297 4 -15 23 -47 41 -73 52 -74 79 -81 407 -105 88 -7 166 -17 174 -24 12 -9
13 -89 8 -504 -4 -354 -8 -497 -17 -507 -8 -10 -18 -11 -36 -4 -14 5 -49 9
-77 9 -29 0 -69 3 -91 7 -35 5 -41 11 -63 59 -28 62 -108 138 -154 148 -70 14
-110 8 -189 -28 -75 -34 -126 -129 -124 -234 3 -126 97 -252 200 -268 118 -17
208 31 279 150 9 16 20 16 114 7 57 -6 143 -11 193 -11 111 0 143 14 158 70 7
25 10 206 10 507 0 257 0 497 0 532 l0 64 128 -8 c70 -4 150 -10 177 -13 l50
-7 5 -570 c5 -624 3 -601 65 -629 29 -13 60 -17 294 -37 115 -9 141 -18 141
-48 1 -31 75 -125 120 -153 91 -56 224 -45 305 25 156 133 109 416 -81 486
-64 25 -121 27 -150 6 -12 -8 -24 -12 -27 -9 -9 9 -80 -28 -114 -60 -18 -17
-40 -45 -48 -63 -15 -31 -17 -32 -68 -27 -154 16 -203 25 -214 41 -14 18 -16
100 -18 691 0 214 3 326 10 330 5 4 121 5 256 3 230 -3 249 -2 285 17 46 24
90 65 111 106 21 41 32 181 33 407 0 161 3 199 15 209 10 9 40 10 102 6 110
-7 270 -14 533 -21 237 -7 278 -11 297 -27 20 -16 18 -378 -2 -378 -7 0 -15
-6 -18 -14 -3 -8 -20 -17 -36 -21 -30 -6 -81 -59 -81 -83 0 -7 -4 -12 -8 -12
-16 0 -32 -76 -32 -146 0 -80 27 -147 81 -205 44 -46 73 -63 131 -77 65 -17
88 -15 163 10 105 34 175 123 191 240 11 77 -26 179 -88 244 -28 30 -57 54
-64 54 -7 0 -20 10 -28 22 -13 19 -16 60 -16 253 1 137 -4 242 -10 261 -16 45
-68 70 -135 64 l-20 -1 20 -9 c15 -6 9 -8 -25 -8 -25 0 -37 2 -27 5 9 2 15 8
12 13 -3 5 -21 4 -41 -2 -39 -10 -146 -7 -179 6 -14 6 -16 5 -6 -2 9 -6 -18
-8 -80 -6 -52 2 -96 3 -99 4 -3 0 2 5 10 10 16 10 18 10 -115 15 -33 1 -121 4
-195 8 -86 3 -121 2 -95 -3 22 -5 69 -9 105 -10 47 -1 59 -4 44 -10 -12 -5
-53 -4 -94 1 -40 5 -83 6 -96 3 -28 -7 -52 5 -34 16 8 5 3 7 -13 7 -14 -1 -23
-5 -20 -9 2 -5 -2 -8 -10 -8 -8 0 -17 10 -20 23 -11 45 -11 447 0 458 8 8 148
7 495 -2 267 -6 505 -9 531 -5 53 8 92 41 101 87 3 18 6 130 6 249 0 120 3
226 6 235 4 9 23 24 43 34 52 27 89 67 123 135 25 49 30 71 29 126 -1 159 -93
275 -231 293 -25 3 -36 3 -26 -2z m62 -36 c19 -14 19 -14 -2 -15 -12 0 -27 7
-34 15 -17 20 9 21 36 0z m-2491 -796 c99 -13 162 -38 205 -81 60 -58 75 -99
74 -203 0 -99 -18 -144 -75 -195 l-28 -25 49 -40 c69 -58 85 -98 85 -220 0
-77 -4 -108 -19 -137 -24 -50 -68 -92 -125 -120 -44 -22 -58 -23 -316 -26
-178 -2 -289 0 -325 8 l-55 12 2 141 c2 78 5 313 9 522 l6 381 222 -4 c121 -1
253 -7 291 -13z m1107 -15 c3 -2 5 -12 3 -22 -2 -9 -4 -64 -4 -121 l-1 -104
-130 8 -130 7 -1 -334 c0 -284 -5 -478 -12 -485 -1 -1 -64 1 -140 4 l-138 6 5
36 c3 20 6 203 8 406 l3 370 -127 3 -128 3 0 120 0 121 393 -7 c215 -4 395 -9
399 -11z m235 -110 c-3 -3 -12 -4 -19 -1 -8 3 -5 6 6 6 11 1 17 -2 13 -5z
m381 -681 c-10 -2 -28 -2 -40 0 -13 2 -5 4 17 4 22 1 32 -1 23 -4z m138 -3 c8
0 14 -4 14 -9 0 -4 -10 -7 -22 -6 -13 1 -29 3 -36 4 -7 0 -10 6 -7 12 4 6 14
8 22 5 8 -3 21 -6 29 -6z m-3451 -427 c11 -7 16 -13 12 -13 -11 0 -67 29 -67
35 0 6 32 -6 55 -22z"/>
<path d="M1688 2903 c-3 -49 -1 -92 3 -97 4 -4 45 -7 92 -5 73 3 89 7 110 27
30 28 38 63 25 108 -12 46 -32 54 -136 54 l-90 0 -4 -87z"/>
<path d="M1678 2489 c-2 -55 -1 -103 1 -105 10 -10 202 -3 226 8 55 25 73 117
33 161 -21 23 -32 26 -140 31 l-117 6 -3 -101z"/>
<path d="M1421 2244 c0 -11 3 -14 6 -6 3 7 2 16 -1 19 -3 4 -6 -2 -5 -13z"/>
<path d="M2325 3870 c3 -5 8 -10 11 -10 2 0 4 5 4 10 0 6 -5 10 -11 10 -5 0
-7 -4 -4 -10z"/>
<path d="M3558 3093 c6 -2 18 -2 25 0 6 3 1 5 -13 5 -14 0 -19 -2 -12 -5z"/>
<path d="M3873 2403 c9 -2 25 -2 35 0 9 3 1 5 -18 5 -19 0 -27 -2 -17 -5z"/>
<path d="M4088 2393 c7 -3 16 -2 19 1 4 3 -2 6 -13 5 -11 0 -14 -3 -6 -6z"/>
</g>
</svg>
